<?xml version="1.0" encoding="utf-8"?>
<!-- Generator: Adobe Illustrator 21.1.0, SVG Export Plug-In . SVG Version: 6.00 Build 0)  -->
<svg version="1.1" id="Layer_1" xmlns="http://www.w3.org/2000/svg" xmlns:xlink="http://www.w3.org/1999/xlink" x="0px" y="0px"
	 viewBox="0 0 120 100" style="enable-background:new 0 0 120 100;" xml:space="preserve">
<style type="text/css">
	.st0{fill:#999999;}
	.st1{font-family:'MyriadPro-Regular';}
	.st2{font-size:1px;}
	.st3{display:none;fill:none;stroke:#00FF66;stroke-width:0.25;stroke-miterlimit:10;}
	.st4{display:none;fill:none;stroke:#FF0000;stroke-width:0.25;stroke-miterlimit:10;}
	.st5{display:none;fill:none;stroke:#FFC115;stroke-width:0.25;stroke-miterlimit:10;}
	.st6{fill:none;stroke:#FF00DD;stroke-width:0.25;stroke-miterlimit:10;}
</style>
<g id="numbers">
	<text transform="matrix(6.123234e-17 -1 1 6.123234e-17 2.441406e-04 101.5132)"><tspan x="0" y="0" class="st0 st1 st2">1</tspan><tspan x="0" y="2" class="st0 st1 st2">2</tspan><tspan x="0" y="4" class="st0 st1 st2">3</tspan><tspan x="0" y="6" class="st0 st1 st2">4</tspan><tspan x="0" y="8" class="st0 st1 st2">5</tspan><tspan x="0" y="10" class="st0 st1 st2">6</tspan><tspan x="0" y="12" class="st0 st1 st2">7</tspan><tspan x="0" y="14" class="st0 st1 st2">8</tspan><tspan x="0" y="16" class="st0 st1 st2">9</tspan><tspan x="-0.5" y="18" class="st0 st1 st2">10</tspan><tspan x="-0.5" y="20" class="st0 st1 st2">11</tspan><tspan x="-0.5" y="22" class="st0 st1 st2">12</tspan><tspan x="-0.5" y="24" class="st0 st1 st2">13</tspan><tspan x="-0.5" y="26" class="st0 st1 st2">14</tspan><tspan x="-0.5" y="28" class="st0 st1 st2">15</tspan><tspan x="-0.5" y="30" class="st0 st1 st2">16</tspan><tspan x="-0.5" y="32" class="st0 st1 st2">17</tspan><tspan x="-0.5" y="34" class="st0 st1 st2">18</tspan><tspan x="-0.5" y="36" class="st0 st1 st2">19</tspan><tspan x="-0.5" y="38" class="st0 st1 st2">20</tspan><tspan x="-0.5" y="40" class="st0 st1 st2">21</tspan><tspan x="-0.5" y="42" class="st0 st1 st2">22</tspan><tspan x="-0.5" y="44" class="st0 st1 st2">23</tspan><tspan x="-0.5" y="46" class="st0 st1 st2">24</tspan><tspan x="-0.5" y="48" class="st0 st1 st2">25</tspan><tspan x="-0.5" y="50" class="st0 st1 st2">26</tspan><tspan x="-0.5" y="52" class="st0 st1 st2">27</tspan><tspan x="-0.5" y="54" class="st0 st1 st2">28</tspan><tspan x="-0.5" y="56" class="st0 st1 st2">29</tspan><tspan x="-0.5" y="58" class="st0 st1 st2">30</tspan><tspan x="-0.5" y="60" class="st0 st1 st2">31</tspan><tspan x="0" y="62" class="st0 st1 st2">1</tspan><tspan x="0" y="64" class="st0 st1 st2">2</tspan><tspan x="0" y="66" class="st0 st1 st2">3</tspan><tspan x="0" y="68" class="st0 st1 st2">4</tspan><tspan x="0" y="70" class="st0 st1 st2">5</tspan><tspan x="0" y="72" class="st0 st1 st2">6</tspan><tspan x="0" y="74" class="st0 st1 st2">7</tspan><tspan x="0" y="76" class="st0 st1 st2">8</tspan><tspan x="0" y="78" class="st0 st1 st2">9</tspan><tspan x="-0.5" y="80" class="st0 st1 st2">10</tspan><tspan x="-0.5" y="82" class="st0 st1 st2">11</tspan><tspan x="-0.5" y="84" class="st0 st1 st2">12</tspan><tspan x="-0.5" y="86" class="st0 st1 st2">13</tspan><tspan x="-0.5" y="88" class="st0 st1 st2">14</tspan><tspan x="-0.5" y="90" class="st0 st1 st2">15</tspan><tspan x="-0.5" y="92" class="st0 st1 st2">16</tspan><tspan x="-0.5" y="94" class="st0 st1 st2">17</tspan><tspan x="-0.5" y="96" class="st0 st1 st2">18</tspan><tspan x="-0.5" y="98" class="st0 st1 st2">19</tspan><tspan x="-0.5" y="100" class="st0 st1 st2">20</tspan><tspan x="-0.5" y="102" class="st0 st1 st2">21</tspan><tspan x="-0.5" y="104" class="st0 st1 st2">22</tspan><tspan x="-0.5" y="106" class="st0 st1 st2">23</tspan><tspan x="-0.5" y="108" class="st0 st1 st2">24</tspan><tspan x="-0.5" y="110" class="st0 st1 st2">25</tspan><tspan x="-0.5" y="112" class="st0 st1 st2">26</tspan><tspan x="-0.5" y="114" class="st0 st1 st2">27</tspan><tspan x="-0.5" y="116" class="st0 st1 st2">28</tspan><tspan x="-0.5" y="118" class="st0 st1 st2">29</tspan><tspan x="-0.5" y="120" class="st0 st1 st2">30</tspan></text>
	<text transform="matrix(6.123234e-17 -1 1 6.123234e-17 2.441406e-04 0)"><tspan x="0" y="0" class="st0 st1 st2">1</tspan><tspan x="0" y="2" class="st0 st1 st2">2</tspan><tspan x="0" y="4" class="st0 st1 st2">3</tspan><tspan x="0" y="6" class="st0 st1 st2">4</tspan><tspan x="0" y="8" class="st0 st1 st2">5</tspan><tspan x="0" y="10" class="st0 st1 st2">6</tspan><tspan x="0" y="12" class="st0 st1 st2">7</tspan><tspan x="0" y="14" class="st0 st1 st2">8</tspan><tspan x="0" y="16" class="st0 st1 st2">9</tspan><tspan x="0" y="18" class="st0 st1 st2">10</tspan><tspan x="0" y="20" class="st0 st1 st2">11</tspan><tspan x="0" y="22" class="st0 st1 st2">12</tspan><tspan x="0" y="24" class="st0 st1 st2">13</tspan><tspan x="0" y="26" class="st0 st1 st2">14</tspan><tspan x="0" y="28" class="st0 st1 st2">15</tspan><tspan x="0" y="30" class="st0 st1 st2">16</tspan><tspan x="0" y="32" class="st0 st1 st2">17</tspan><tspan x="0" y="34" class="st0 st1 st2">18</tspan><tspan x="0" y="36" class="st0 st1 st2">19</tspan><tspan x="0" y="38" class="st0 st1 st2">20</tspan><tspan x="0" y="40" class="st0 st1 st2">21</tspan><tspan x="0" y="42" class="st0 st1 st2">22</tspan><tspan x="0" y="44" class="st0 st1 st2">23</tspan><tspan x="0" y="46" class="st0 st1 st2">24</tspan><tspan x="0" y="48" class="st0 st1 st2">25</tspan><tspan x="0" y="50" class="st0 st1 st2">26</tspan><tspan x="0" y="52" class="st0 st1 st2">27</tspan><tspan x="0" y="54" class="st0 st1 st2">28</tspan><tspan x="0" y="56" class="st0 st1 st2">29</tspan><tspan x="0" y="58" class="st0 st1 st2">30</tspan><tspan x="0" y="60" class="st0 st1 st2">31</tspan><tspan x="0" y="62" class="st0 st1 st2">1</tspan><tspan x="0" y="64" class="st0 st1 st2">2</tspan><tspan x="0" y="66" class="st0 st1 st2">3</tspan><tspan x="0" y="68" class="st0 st1 st2">4</tspan><tspan x="0" y="70" class="st0 st1 st2">5</tspan><tspan x="0" y="72" class="st0 st1 st2">6</tspan><tspan x="0" y="74" class="st0 st1 st2">7</tspan><tspan x="0" y="76" class="st0 st1 st2">8</tspan><tspan x="0" y="78" class="st0 st1 st2">9</tspan><tspan x="0" y="80" class="st0 st1 st2">10</tspan><tspan x="0" y="82" class="st0 st1 st2">11</tspan><tspan x="0" y="84" class="st0 st1 st2">12</tspan><tspan x="0" y="86" class="st0 st1 st2">13</tspan><tspan x="0" y="88" class="st0 st1 st2">14</tspan><tspan x="0" y="90" class="st0 st1 st2">15</tspan><tspan x="0" y="92" class="st0 st1 st2">16</tspan><tspan x="0" y="94" class="st0 st1 st2">17</tspan><tspan x="0" y="96" class="st0 st1 st2">18</tspan><tspan x="0" y="98" class="st0 st1 st2">19</tspan><tspan x="0" y="100" class="st0 st1 st2">20</tspan><tspan x="0" y="102" class="st0 st1 st2">21</tspan><tspan x="0" y="104" class="st0 st1 st2">22</tspan><tspan x="0" y="106" class="st0 st1 st2">23</tspan><tspan x="0" y="108" class="st0 st1 st2">24</tspan><tspan x="0" y="110" class="st0 st1 st2">25</tspan><tspan x="0" y="112" class="st0 st1 st2">26</tspan><tspan x="0" y="114" class="st0 st1 st2">27</tspan><tspan x="0" y="116" class="st0 st1 st2">28</tspan><tspan x="0" y="118" class="st0 st1 st2">29</tspan><tspan x="0" y="120" class="st0 st1 st2">30</tspan></text>
	<text transform="matrix(6.123234e-17 -1 1 6.123234e-17 2.441406e-04 201.5132)"><tspan x="0" y="0" class="st0 st1 st2">1</tspan><tspan x="0" y="2" class="st0 st1 st2">2</tspan><tspan x="0" y="4" class="st0 st1 st2">3</tspan><tspan x="0" y="6" class="st0 st1 st2">4</tspan><tspan x="0" y="8" class="st0 st1 st2">5</tspan><tspan x="0" y="10" class="st0 st1 st2">6</tspan><tspan x="0" y="12" class="st0 st1 st2">7</tspan><tspan x="0" y="14" class="st0 st1 st2">8</tspan><tspan x="0" y="16" class="st0 st1 st2">9</tspan><tspan x="-0.5" y="18" class="st0 st1 st2">10</tspan><tspan x="-0.5" y="20" class="st0 st1 st2">11</tspan><tspan x="-0.5" y="22" class="st0 st1 st2">12</tspan><tspan x="-0.5" y="24" class="st0 st1 st2">13</tspan><tspan x="-0.5" y="26" class="st0 st1 st2">14</tspan><tspan x="-0.5" y="28" class="st0 st1 st2">15</tspan><tspan x="-0.5" y="30" class="st0 st1 st2">16</tspan><tspan x="-0.5" y="32" class="st0 st1 st2">17</tspan><tspan x="-0.5" y="34" class="st0 st1 st2">18</tspan><tspan x="-0.5" y="36" class="st0 st1 st2">19</tspan><tspan x="-0.5" y="38" class="st0 st1 st2">20</tspan><tspan x="-0.5" y="40" class="st0 st1 st2">21</tspan><tspan x="-0.5" y="42" class="st0 st1 st2">22</tspan><tspan x="-0.5" y="44" class="st0 st1 st2">23</tspan><tspan x="-0.5" y="46" class="st0 st1 st2">24</tspan><tspan x="-0.5" y="48" class="st0 st1 st2">25</tspan><tspan x="-0.5" y="50" class="st0 st1 st2">26</tspan><tspan x="-0.5" y="52" class="st0 st1 st2">27</tspan><tspan x="-0.5" y="54" class="st0 st1 st2">28</tspan><tspan x="-0.5" y="56" class="st0 st1 st2">29</tspan><tspan x="-0.5" y="58" class="st0 st1 st2">30</tspan><tspan x="-0.5" y="60" class="st0 st1 st2">31</tspan><tspan x="0" y="62" class="st0 st1 st2">1</tspan><tspan x="0" y="64" class="st0 st1 st2">2</tspan><tspan x="0" y="66" class="st0 st1 st2">3</tspan><tspan x="0" y="68" class="st0 st1 st2">4</tspan><tspan x="0" y="70" class="st0 st1 st2">5</tspan><tspan x="0" y="72" class="st0 st1 st2">6</tspan><tspan x="0" y="74" class="st0 st1 st2">7</tspan><tspan x="0" y="76" class="st0 st1 st2">8</tspan><tspan x="0" y="78" class="st0 st1 st2">9</tspan><tspan x="-0.5" y="80" class="st0 st1 st2">10</tspan><tspan x="-0.5" y="82" class="st0 st1 st2">11</tspan><tspan x="-0.5" y="84" class="st0 st1 st2">12</tspan><tspan x="-0.5" y="86" class="st0 st1 st2">13</tspan><tspan x="-0.5" y="88" class="st0 st1 st2">14</tspan><tspan x="-0.5" y="90" class="st0 st1 st2">15</tspan><tspan x="-0.5" y="92" class="st0 st1 st2">16</tspan><tspan x="-0.5" y="94" class="st0 st1 st2">17</tspan><tspan x="-0.5" y="96" class="st0 st1 st2">18</tspan><tspan x="-0.5" y="98" class="st0 st1 st2">19</tspan><tspan x="-0.5" y="100" class="st0 st1 st2">20</tspan><tspan x="-0.5" y="102" class="st0 st1 st2">21</tspan><tspan x="-0.5" y="104" class="st0 st1 st2">22</tspan><tspan x="-0.5" y="106" class="st0 st1 st2">23</tspan><tspan x="-0.5" y="108" class="st0 st1 st2">24</tspan><tspan x="-0.5" y="110" class="st0 st1 st2">25</tspan><tspan x="-0.5" y="112" class="st0 st1 st2">26</tspan><tspan x="-0.5" y="114" class="st0 st1 st2">27</tspan><tspan x="-0.5" y="116" class="st0 st1 st2">28</tspan><tspan x="-0.5" y="118" class="st0 st1 st2">29</tspan><tspan x="-0.5" y="120" class="st0 st1 st2">30</tspan></text>
</g>
<polyline id="normal" class="st3" points="0,100 2,100 4,100 6,100 8,100 10,100 12,100 14,100 16,100 18,100 20,100 22,100 24,100 
	26,100 28,100 30,100 32,100 34,100 36,100 38,100 40,100 42,100 44,100 46,100 48,100 50,100 52,100 54,100 56,100 58,100 60,100 
	62,100 64,100 66,100 68,100 70,100 72,100 74,100 76,100 78,100 80,100 82,100 84,100 86,100 88,100 90,100 92,100 94,100 96,100 
	98,100 100,100 102,100 104,100 106,100 108,100 110,100 112,100 114,100 116,100 118,100 120,100 "/>
<polyline id="errorPath_Imps1_8Jul" class="st4" points="0,200 2,200 4,200 6,200 8,200 10,200 12,200 14,200 16,100 18,100 20,100 
	22,100 24,100 26,100 28,100 30,100 32,100 34,100 36,100 38,100 40,100 42,100 44,100 46,100 48,100 50,100 52,100 54,100 56,100 
	58,100 60,100 62,100 64,100 66,100 68,100 70,100 72,100 74,100 76,100 78,100 80,100 82,100 84,100 86,100 88,100 90,100 92,100 
	94,100 96,100 98,100 100,100 102,100 104,100 106,100 108,100 110,100 112,100 114,100 116,100 118,100 120,100 "/>
<polyline id="errorPath_reqImps1Jul_30Aug" class="st5" points="0,100 2,100 4,100 6,100 8,100 10,100 12,100 14,100 16,100 18,100 
	20,100 22,100 24,100 26,100 28,100 30,100 32,100 34,100 36,100 38,100 40,100 42,100 44,100 46,100 48,100 50,100 52,100 54,100 
	56,100 58,100 60,49 62,47 64,35 66,42 68,44 70,53 72,100 74,100 76,100 78,100 80,100 82,100 84,100 86,100 88,100 90,100 92,100 
	94,100 96,100 98,97 100,92 102,88 104,84 106,78 108,64 110,34 112,34 114,30 116,30 118,30 120,29 "/>
<polyline id="erroPath_viewb25_30July" class="st3" points="118,100 120,100 118,100 116,100 114,100 112,100 110,100 108,100 
	106,100 104,100 102,100 100,100 98,100 96,100 94,100 92,100 90,100 88,100 86,100 84,100 82,100 80,100 78,100 76,100 74,100 
	72,100 70,100 68,100 66,100 64,100 62,100 60,100 58,100 56,137 54,138 52,142 50,139 48,139 46,100 44,100 42,100 40,100 38,100 
	36,100 34,100 32,100 30,100 28,100 26,100 24,100 22,100 20,100 18,100 16,100 14,100 12,100 10,100 8,100 6,100 4,100 2,100 
	0,100 "/>
<polyline id="errorPath_eng1July30Aug" class="st6" points="0,133 2,129 4,127 6,141 8,125 10,133 12,143 14,147 16,130 18,128 
	20,123 22,117 24,123 26,119 28,118 30,119 32,119 34,119 36,119 38,119 40,119 42,109 44,109 46,109 48,109 50,109 52,109 54,109 
	56,109 58,90 60,90 62,90 64,90 66,82 68,82 70,82 72,82 74,82 76,82 78,82 80,68 82,68 84,68 86,68 88,68 90,68 92,68 94,68 96,68 
	98,68 100,68 102,60 104,60 106,60 108,60 110,60 112,60 114,60 116,60 118,60 120,60 "/>
</svg>
