<?xml version="1.0" encoding="utf-8"?>
<!-- Generator: Adobe Illustrator 21.1.0, SVG Export Plug-In . SVG Version: 6.00 Build 0)  -->
<svg version="1.1" id="logos" xmlns="http://www.w3.org/2000/svg" xmlns:xlink="http://www.w3.org/1999/xlink" x="0px" y="0px"
	 viewBox="0 0 980 265" style="enable-background:new 0 0 980 265;" xml:space="preserve">
<path id="pgxyz" d="M70.3,89.9H37.7c-2,0-2.9,1-2.9,3.3v103.3c0,2.2,0.8,3.3,2.9,3.3h9.8c2.2,0,2.9-1,2.9-3.3V159h20
	c27.7,0,36.7-11.6,36.7-24.8V115C106.9,101.5,98.2,89.9,70.3,89.9z M91.2,131.3c0,8.8-6.5,14.1-21,14.1h-20v-42.2h20
	c14.5,0,21,5.3,21,14.1V131.3z M184.1,186.1h-41.3V93c0-2.2-0.8-3.3-2.9-3.3h-9.8c-2.2,0-3.1,1-3.1,3.3v103.3c0,2,0.8,3.3,2.6,3.3
	h54.6c2,0,3.1-0.8,3.1-3.1v-7.3C187.2,186.9,186.1,186.1,184.1,186.1z M248.9,93c-0.6-2-1.8-3.1-3.9-3.1h-19.3c-2,0-3.3,1-3.9,3.1
	l-26.7,103.5c-0.6,2,0.2,3.1,2.2,3.1h65.6h10.2c2.2,0,3.1-1.2,2.4-3.1L248.9,93z M350.7,89.9h-9.8c-1.8,0-2.6,1.4-3.5,3.1
	l-21.6,42.6c-1.2,2-2.6,6.9-2.6,7.3c-0.2-0.6-1.6-5.1-2.6-7.3L290.4,93c-1-2-1.6-3.1-3.7-3.1h-11.2c-2.2,0-3.3,1.2-2.2,3.1l32,64.8
	v38.7c0,2,0.8,3.1,3.1,3.1h9.8c2,0,2.9-1,2.9-3.1V156l31.6-63.1C354,90.8,352.9,89.9,350.7,89.9z M400.6,88.5
	c-27.7,0-35.6,11.6-35.6,24.8v62.5c0,13.2,7.9,24.8,35.6,24.8s35.6-11.6,35.6-24.8v-28.3c0-2-1-2.9-3.1-2.9h-31.4
	c-2,0-3.1,0.8-3.1,2.9v7.3c0,2.2,1,3.1,3.1,3.1H421v15.5c0,8.8-5.9,13.8-20.2,13.8c-14.5,0-20-5.3-20-14.1v-57.4
	c0-8.8,5.5-14.1,20-14.1s20.2,5.3,20.2,14.1v4.5c0,2,0.8,3.1,3.1,3.1h9.4c2,0,2.9-1,2.9-3.1v-7.1C436.2,100.1,428.3,88.5,400.6,88.5
	z M512.6,154.1c13.8-3.9,18.9-12.8,18.9-22.6v-16.7c0-13.2-9-24.8-36.7-24.8H462c-2,0-2.9,1-2.9,3.3v103.3c0,2.2,0.8,3.3,2.9,3.3
	h9.8c2.2,0,2.9-1,2.9-3.3v-40.1h20h2.6l18.1,40.1c1,2,1.2,3.3,3.5,3.3h9.8c2.2,0,3.7-1.2,2.9-3.3L512.6,154.1z M494.7,142.7h-20
	v-39.5h20c14.5,0,21,5.3,21,14.1v11.4C515.7,137.6,509.4,142.7,494.7,142.7z M589.8,88.5c-27.5,0-36.7,11.6-36.7,24.8v62.5
	c0,13.2,9,24.8,36.7,24.8s36.9-11.6,36.9-24.8v-62.5C626.5,100.1,617.5,88.5,589.8,88.5z M610.8,173.4c0,8.8-6.5,14.1-21,14.1
	c-14.3,0-20.8-5.3-20.8-14.1V116c0-8.8,6.5-14.1,20.8-14.1c14.5,0,21,5.3,21,14.1V173.4z M720.8,89.9H711c-2,0-2.9,1-2.9,3.3v80.2
	c0,8.8-6.5,14.1-21.2,14.1c-14.3,0-20.8-5.3-20.8-14.1V93.2c0-2.2-0.8-3.3-2.9-3.3h-9.8c-2,0-3.1,1-3.1,3.3v82.9
	c0,13.2,9,24.8,36.7,24.8s36.9-11.6,36.9-24.8V93.2C723.6,90.8,723,89.9,720.8,89.9z M819.3,89.9h-9c-2,0-3.1,1-3.1,3.1v76.4
	c0,0-2.6-6.5-5.1-10.4l-38.9-67.8c-0.4-0.8-1.2-1.2-2.6-1.2h-9c-2,0-2.9,1-2.9,3.1v103.5c0,2,0.8,3.1,2.9,3.1h9c2,0,2.9-1,2.9-3.1
	v-76.4c0.4,0.6,2.2,5.7,5.9,11.6l37.9,66.4c0.6,1,1.2,1.4,2.9,1.4h9c2.2,0,2.9-1,2.9-3.1V93C822.4,90.8,821.6,89.9,819.3,89.9z
	 M885.3,89.9h-33.6c-2,0-2.9,1-2.9,3.3v103.3c0,2,0.6,3.3,2.6,3.3h34c27.5,0,36.9-11.6,36.9-24.8v-60.1
	C922.2,101.5,913,89.9,885.3,89.9z M906.3,172.2c0,8.8-6.5,14.1-21,14.1h-21v-82.9h21c14.5,0,21,5.3,21,14.1V172.2z M853.1,69.2h4.7
	c1,0,1.6-0.6,1.8-1.4l9.6-17.1l10,17.1c0.4,0.6,1,1.4,2,1.4h5.1c1,0,1-0.6,0.6-1.4l-13.4-23l12.8-22c0.4-0.8,0.2-1.4-0.6-1.4H881
	c-0.8,0-1.4,0.6-1.8,1.4L870,39l-9.6-16.3c-0.4-0.8-1-1.4-2-1.4h-4.9c-1,0-1,0.6-0.6,1.4l12.8,21.8l-13.2,23
	C852.1,68.6,852.3,69.2,853.1,69.2z M924.4,21.5h-4.3c-0.8,0-1.2,0.6-1.6,1.4l-9.4,18.5c-0.4,0.8-1.2,3.1-1.2,3.3
	c0-0.2-0.6-2.2-1.2-3.3l-8.8-18.5c-0.4-0.8-0.6-1.4-1.6-1.4h-4.9c-1,0-1.4,0.4-1,1.4l13.8,28.3v16.9c0,0.8,0.4,1.4,1.4,1.4h4.3
	c0.8,0,1.2-0.4,1.2-1.4V50.4L925,22.9C925.8,21.9,925.4,21.5,924.4,21.5z M958.2,63.5H938L958.2,27c0.2-0.2,0.2-0.6,0.2-1.2v-3.1
	c0-1-0.4-1.4-1.4-1.4h-24.8c-0.8,0-1.4,0.4-1.4,1.4V26c0,1,0.4,1.4,1.4,1.4h17.7l-20,36.3c-0.2,0.4-0.4,0.6-0.4,1.2v3.3
	c0,1,0.4,1.4,1.4,1.4H958c0.8,0,1.4-0.4,1.4-1.4v-3.3C959.7,63.7,959.2,63.5,958.2,63.5z"/>
<path id="super-skin" d="M615.6,188.6c6.8-2.2,12.4-5.4,17-9.6c4.6-4.2,8.1-9.4,10.6-15.6c2.4-6.2,3.6-12.2,3.6-18
	c0-3.6-0.5-6.9-1.6-9.9s-2.7-5.7-4.9-8s-4.9-4.4-8.3-6.3c-3.3-1.9-8.7-4.1-16.1-6.7c-5.8-2-9.4-3.5-10.9-4.5s-2.2-2.2-2.2-3.7
	c0-2.5,1.1-4.6,3.4-6.3s5.3-2.6,9.1-2.6c13.2,0,23.3,3.1,30.5,9.3h3.5l5.9-27.8c-5.6-2.5-11.6-4.4-18-5.7c-6.4-1.3-12.6-2-18.6-2
	c-7.3,0-14.3,1.1-21,3.4s-12.5,5.6-17.4,10c-4.9,4.3-8.5,9.2-10.7,14.7c-2.3,5.4-3.4,11.2-3.4,17.2c0,6.6,1.8,12.3,5.5,17.2
	s9.5,8.9,17.6,12.1c4.9,1.9,8.7,3.5,11.5,4.8c2.7,1.3,4.8,2.5,6.1,3.6s2,2.4,2,4c0,5-3.9,7.4-11.7,7.4c-13,0-24.7-4-35-11.9h-3.6
	l-6.4,30c5.7,3.1,11.7,5.2,18,6.4S584,192,593,192C601.4,191.9,608.9,190.8,615.6,188.6z M726,126.5l44.6-53.8h-40.3l-26.6,34.1
	l7.2-34.1h-37.5l-25,117.7H686l7.8-36.9l2.1-2.1l11.2,39.1h43L726,126.5z M817.9,160.2h-12.4l12.2-57.5h12.4l6.4-30.1H774l-6.4,30.1
	H780l-12.2,57.5h-12.3l-6.4,30.1h62.5L817.9,160.2z M939.9,72.7h-33.2L896,122.9l-11.9-50.2h-34.7l-25,117.7h33.2l11.1-51.9
	l13.1,51.9h33.1L939.9,72.7z M94.1,190c6.8-2.2,12.4-5.4,17.1-9.7c4.6-4.2,8.1-9.5,10.6-15.6c2.4-6.2,3.6-12.2,3.6-18
	c0-3.6-0.5-6.9-1.6-9.9s-2.7-5.7-4.9-8c-2.2-2.3-4.9-4.4-8.3-6.3c-3.3-1.9-8.7-4.1-16.1-6.7c-5.8-2-9.4-3.5-10.9-4.5
	s-2.2-2.2-2.2-3.7c0-2.5,1.1-4.6,3.4-6.3s5.3-2.6,9.1-2.6c13.2,0,23.4,3.1,30.5,9.3h3.5l5.9-27.8c-5.6-2.5-11.6-4.4-18-5.7
	c-6.4-1.3-12.6-2-18.6-2c-7.3,0-14.3,1.1-21,3.4s-12.5,5.6-17.4,10s-8.5,9.2-10.7,14.7c-2.3,5.4-3.4,11.2-3.4,17.2
	c0,6.6,1.8,12.3,5.5,17.2s9.6,8.9,17.6,12.1c4.9,1.9,8.7,3.5,11.5,4.8c2.7,1.3,4.8,2.5,6.1,3.6c1.3,1.1,2,2.4,2,4
	c0,5-3.9,7.4-11.7,7.4c-13,0-24.7-4-35.1-11.9H37l-6.4,30c5.7,3.1,11.7,5.2,18,6.4s13.9,1.9,22.9,1.9
	C79.8,193.3,87.3,192.2,94.1,190z M230.6,147.4L246.1,74h-38.2l-15.3,71.9c-1.3,6.5-2.9,11-4.6,13.6c-1.8,2.6-4.4,3.8-8,3.8
	c-5,0-7.5-3.4-7.5-10.2c0-2.1,0.3-4.5,0.9-7L188.7,74h-37.3l-15.6,73.5c-0.7,3.4-1,6.6-1,9.7c0,3.1,0.5,6.8,1.6,11s3.5,8.3,7.3,12.3
	s8.7,7.1,14.6,9.3c6,2.2,12.8,3.3,20.4,3.3C206.8,193,224.1,177.8,230.6,147.4L230.6,147.4z M316.6,152.4
	c5.5-2.6,10.3-6.3,14.3-11.3s7.1-10.8,9.3-17.5c2.2-6.7,3.2-12.9,3.2-18.4c0-10.2-3.8-17.9-11.4-23.2s-18.7-8-33.4-8h-37.1
	l-25,117.8H274l7.6-35.6h16.6C305.1,156.2,311.1,154.9,316.6,152.4z M305.5,118.5c-0.6,2.2-1.5,4-2.6,5.4c-1.1,1.3-2.4,2.3-4,2.8
	c-1.6,0.6-4.6,0.8-9.1,0.8h-2.9l5.1-24h6c2.2,0,4.2,0.9,5.9,2.7c1.7,1.8,2.6,3.9,2.6,6.5C306.4,114.3,306.1,116.3,305.5,118.5z
	 M417.8,161.7h-39.2l3.6-16.8h36.5l6.4-29.8h-36.5l2.2-10.9H430l6.4-30.1h-75.5l-25,117.8h75.5L417.8,161.7z M490.3,119.8
	c-1.1,2.6-2.8,4.5-5,5.6s-5.3,1.7-9.1,1.7h-3.6l5.1-24h3.8c3.2,0,5.7,0.8,7.6,2.5c1.9,1.6,2.9,3.9,2.9,6.6
	C491.9,114.6,491.4,117.2,490.3,119.8z M506.3,141.4c6.9-3.3,12-6.8,15.5-10.5s6.1-8.3,7.9-13.7c1.8-5.4,2.7-10.3,2.7-14.7
	c0-2.6-0.5-5.7-1.5-9.1s-3.2-6.7-6.5-9.8c-3.3-3.1-7.5-5.5-12.5-7.2s-10.6-2.5-16.8-2.5h-48.5l-25,117.8h37.1l8.8-41.4h3.2
	l11.2,41.4h42.2L506.3,141.4z"/>
<path id="drive-by_1_" d="M120.7,77.3H90.3l-7.8,57.5l-7.9-57.5H43l15.4,95.3H105L120.7,77.3z M451.7,55.2v23.6h-22.3
	c-10.4,0-16.9,3.1-16.9,11.2v71.3c0,4,1.9,7.5,4.4,9.4s7.1,3.5,12.5,3.5h53.2v-119H451.7z M451.7,149.5h-6.4c-0.2,0-0.8-0.3-0.8-0.5
	v-47c0-0.2,0.6,1.4,0.8,1.4h6.4V149.5z M166.8,169.2c2.5,1.9,7.4,3.5,12.8,3.5h52.7v-119h-30.9v23.6h-21.7
	c-10.4,0-17.4,3.1-17.4,11.1v71.3C162.1,163.7,164.3,167.2,166.8,169.2z M194,100.5c0-0.2,1.1,1.4,1.3,1.4h5.9V148h-5.9
	c-0.2,0-1.3-0.3-1.3-0.5V100.5z M256.9,172.6h38.8c10.4,0,13.8-5.1,13.8-12.9v-16.8h-30.9v4.6c0,0.2,1.4,0.5,1.2,0.5h-7
	c-0.2,0-1.4-0.3-1.4-0.5v-10.8h38.2V88.4c0-8-3.4-11.1-13.8-11.1H257c-10.4,0-17.5,3.1-17.5,11.1v71.3
	C239.4,167.6,246.6,172.6,256.9,172.6z M271.4,100.5c0-0.2,1.2,1.4,1.4,1.4h7c0.2,0-1.2-1.6-1.2-1.4v14.7h-7.2L271.4,100.5
	L271.4,100.5z M334.1,172.6h38.8c10.4,0,15.1-5.1,15.1-12.9V88.4c0-8-4.7-11.1-15.1-11.1h-38.8c-10.4,0-16.3,3.1-16.3,11.1v71.3
	C317.8,167.6,323.7,172.6,334.1,172.6z M348.7,100.5c0-0.2,1,1.4,1.2,1.4h7c0.2,0-1-1.6-1-1.4v47c0,0.2,1.2,0.5,1,0.5h-7
	c-0.2,0-1.2-0.3-1.2-0.5V100.5z M569.2,174.1h29.9V78.8h-29.9V174.1z M605.2,78.8l15.4,95.3h46.6l15.7-95.3h-30.4l-7.8,57.5
	l-7.9-57.5H605.2z M685.8,89.9v71.3c0,7.8,6.7,12.9,17.1,12.9h38.8c10.4,0,14.3-5,14.3-12.9v-16.9h-31v4.7c0,0.2,1,0.5,0.8,0.5h-7
	c-0.2,0-1-0.3-1-0.5v-10.8H756V89.9c0-8-3.9-11.2-14.3-11.2h-38.8C692.5,78.8,685.8,81.9,685.8,89.9z M717.8,102
	c0-0.2,0.8,1.4,1,1.4h7c0.2,0-0.8-1.6-0.8-1.4v14.7h-7.2V102z M899.3,78.8v70.7h-7.1c-0.2,0-1.2-0.3-1.2-0.5V78.8h-32v82.5
	c0,7.8,6.9,12.9,17.3,12.9h23v4.5c0,0.2,0.2,1.6,0,1.6H601.4l0,0h-39.1c-0.2,0-2.3-1.4-2.3-1.6v-45.4c0-4.6-2.5-7.2-7.7-7.9
	c5.1-0.6,7.7-3.2,7.7-7.7V89.9c0-8-3.3-11.2-13.6-11.2h-54.5V174h29.9v-39h8.7c0.2,0-0.4-0.2-0.4,0v55.7c0,7.8,5.9,13,16.3,13h38.8
	h15.7h314.2c10.4,0,14.1-5.1,14.1-13V78.8H899.3z M530.1,115.7c0,0.2,0.6,2,0.4,2h-8.7v-14.4h8.7c0.2,0-0.4-1.6-0.4-1.4V115.7z
	 M851.8,161.2v-28c0-4.6-2.5-7.2-7.7-7.9c5.1-0.6,7.7-3.2,7.7-7.7V89.9c0-8-3.7-11.2-14-11.2h-55.1V174h55.1
	C848.2,174.1,851.8,169.1,851.8,161.2z M821.9,149c0,0.2,0.2,0.5,0,0.5h-8.3v-14.4h8.3c0.2,0,0-0.2,0,0V149z M821.9,115.7
	c0,0.2,0.2,2,0,2h-8.3v-14.4h8.3c0.2,0,0-1.6,0-1.4V115.7z M125,172.6h30.9 M154.9,172.6V156V77.3H124v78.8v16.6h30.9V172.6z"/>
<path id="hang-time" d="M40.1,85.7c0-1.6,0.6-3,1.8-4.1s2.6-1.8,4.1-1.8c1.7,0,3.1,0.6,4.2,1.8c1.1,1.2,1.7,2.6,1.7,4.1
	c0,1.7-0.6,3.1-1.7,4.3c-1.1,1.2-2.5,1.8-4.2,1.8c-1.6,0-3-0.6-4.1-1.8C40.7,88.8,40.1,87.4,40.1,85.7z M40.1,100.2
	c0-1.7,0.6-3.1,1.8-4.3s2.6-1.8,4.1-1.8c1.7,0,3.1,0.6,4.2,1.8c1.1,1.2,1.7,2.6,1.7,4.3c0,1.6-0.6,3-1.7,4.1
	c-1.1,1.2-2.5,1.8-4.2,1.8c-1.6,0-3-0.6-4.1-1.8C40.7,103.2,40.1,101.8,40.1,100.2z M40.1,114.6c0-1.7,0.6-3.1,1.8-4.3
	c1.2-1.2,2.6-1.8,4.1-1.8c1.7,0,3.1,0.6,4.2,1.8c1.1,1.2,1.7,2.6,1.7,4.3c0,1.6-0.6,3-1.7,4.1c-1.1,1.2-2.5,1.8-4.2,1.8
	c-1.6,0-3-0.6-4.1-1.8S40.1,116.2,40.1,114.6z M40.1,129c0-1.7,0.6-3.1,1.8-4.3c1.2-1.2,2.6-1.8,4.1-1.8c1.7,0,3.1,0.6,4.2,1.8
	c1.1,1.2,1.7,2.6,1.7,4.3c0,1.6-0.6,3-1.7,4.1c-1.1,1.2-2.5,1.8-4.2,1.8c-1.6,0-3-0.6-4.1-1.8S40.1,130.5,40.1,129z M40.1,143.3
	c0-1.7,0.6-3.1,1.8-4.2c1.2-1.1,2.6-1.7,4.1-1.7c1.7,0,3.1,0.6,4.2,1.7c1.1,1.1,1.7,2.5,1.7,4.2c0,1.6-0.6,3-1.7,4.1
	c-1.1,1.2-2.5,1.8-4.2,1.8c-1.6,0-3-0.6-4.1-1.8S40.1,144.9,40.1,143.3z M40.1,157.7c0-1.7,0.6-3.1,1.8-4.2c1.2-1.1,2.6-1.7,4.1-1.7
	c1.7,0,3.1,0.6,4.2,1.7c1.1,1.1,1.7,2.5,1.7,4.2c0,1.6-0.6,3-1.7,4.1c-1.1,1.2-2.5,1.8-4.2,1.8c-1.6,0-3-0.6-4.1-1.8
	C40.7,160.7,40.1,159.3,40.1,157.7z M40.1,172.1c0-1.7,0.6-3.1,1.8-4.2c1.2-1.1,2.6-1.7,4.1-1.7c1.7,0,3.1,0.6,4.2,1.7
	c1.1,1.1,1.7,2.5,1.7,4.2c0,1.6-0.6,3-1.7,4.1c-1.1,1.2-2.5,1.8-4.2,1.8c-1.6,0-3-0.6-4.1-1.8C40.7,175,40.1,173.6,40.1,172.1z
	 M40.1,186.4c0-1.7,0.6-3.1,1.8-4.2c1.2-1.1,2.6-1.7,4.1-1.7c1.7,0,3.1,0.6,4.2,1.7c1.1,1.1,1.7,2.5,1.7,4.2c0,1.6-0.6,3-1.7,4.1
	c-1.1,1.2-2.5,1.8-4.2,1.8c-1.6,0-3-0.6-4.1-1.8S40.1,188,40.1,186.4z M54.5,85.7c0-1.6,0.6-3,1.8-4.1c1.2-1.2,2.6-1.8,4.1-1.8
	c1.7,0,3.1,0.6,4.2,1.8c1.1,1.2,1.7,2.6,1.7,4.1c0,1.7-0.6,3.1-1.7,4.3c-1.1,1.2-2.5,1.8-4.2,1.8c-1.6,0-3-0.6-4.1-1.8
	C55.1,88.8,54.5,87.4,54.5,85.7z M54.5,100.2c0-1.7,0.6-3.1,1.8-4.3c1.2-1.2,2.6-1.8,4.1-1.8c1.7,0,3.1,0.6,4.2,1.8
	c1.1,1.2,1.7,2.6,1.7,4.3c0,1.6-0.6,3-1.7,4.1c-1.1,1.2-2.5,1.8-4.2,1.8c-1.6,0-3-0.6-4.1-1.8C55.1,103.2,54.5,101.8,54.5,100.2z
	 M54.5,114.6c0-1.7,0.6-3.1,1.8-4.3c1.2-1.2,2.6-1.8,4.1-1.8c1.7,0,3.1,0.6,4.2,1.8c1.1,1.2,1.7,2.6,1.7,4.3c0,1.6-0.6,3-1.7,4.1
	c-1.1,1.2-2.5,1.8-4.2,1.8c-1.6,0-3-0.6-4.1-1.8C55.1,117.6,54.5,116.2,54.5,114.6z M54.5,129c0-1.7,0.6-3.1,1.8-4.3
	c1.2-1.2,2.6-1.8,4.1-1.8c1.7,0,3.1,0.6,4.2,1.8c1.1,1.2,1.7,2.6,1.7,4.3c0,1.6-0.6,3-1.7,4.1c-1.1,1.2-2.5,1.8-4.2,1.8
	c-1.6,0-3-0.6-4.1-1.8C55.1,131.9,54.5,130.5,54.5,129z M54.5,143.3c0-1.7,0.6-3.1,1.8-4.2c1.2-1.1,2.6-1.7,4.1-1.7
	c1.7,0,3.1,0.6,4.2,1.7c1.1,1.1,1.7,2.5,1.7,4.2c0,1.6-0.6,3-1.7,4.1c-1.1,1.2-2.5,1.8-4.2,1.8c-1.6,0-3-0.6-4.1-1.8
	C55.1,146.3,54.5,144.9,54.5,143.3z M54.5,157.7c0-1.7,0.6-3.1,1.8-4.2c1.2-1.1,2.6-1.7,4.1-1.7c1.7,0,3.1,0.6,4.2,1.7
	c1.1,1.1,1.7,2.5,1.7,4.2c0,1.6-0.6,3-1.7,4.1c-1.1,1.2-2.5,1.8-4.2,1.8c-1.6,0-3-0.6-4.1-1.8C55.1,160.7,54.5,159.3,54.5,157.7z
	 M54.5,172.1c0-1.7,0.6-3.1,1.8-4.2c1.2-1.1,2.6-1.7,4.1-1.7c1.7,0,3.1,0.6,4.2,1.7c1.1,1.1,1.7,2.5,1.7,4.2c0,1.6-0.6,3-1.7,4.1
	c-1.1,1.2-2.5,1.8-4.2,1.8c-1.6,0-3-0.6-4.1-1.8C55.1,175,54.5,173.6,54.5,172.1z M54.5,186.4c0-1.7,0.6-3.1,1.8-4.2
	c1.2-1.1,2.6-1.7,4.1-1.7c1.7,0,3.1,0.6,4.2,1.7c1.1,1.1,1.7,2.5,1.7,4.2c0,1.6-0.6,3-1.7,4.1c-1.1,1.2-2.5,1.8-4.2,1.8
	c-1.6,0-3-0.6-4.1-1.8C55.1,189.4,54.5,188,54.5,186.4z M68.9,129c0-1.7,0.6-3.1,1.8-4.3c1.2-1.2,2.6-1.8,4.1-1.8
	c1.7,0,3.1,0.6,4.2,1.8c1.1,1.2,1.7,2.6,1.7,4.3c0,1.6-0.6,3-1.7,4.1c-1.1,1.2-2.5,1.8-4.2,1.8c-1.6,0-3-0.6-4.1-1.8
	C69.4,131.9,68.9,130.5,68.9,129z M68.9,143.3c0-1.7,0.6-3.1,1.8-4.2c1.2-1.1,2.6-1.7,4.1-1.7c1.7,0,3.1,0.6,4.2,1.7
	c1.1,1.1,1.7,2.5,1.7,4.2c0,1.6-0.6,3-1.7,4.1c-1.1,1.2-2.5,1.8-4.2,1.8c-1.6,0-3-0.6-4.1-1.8C69.4,146.3,68.9,144.9,68.9,143.3z
	 M83.2,129c0-1.7,0.6-3.1,1.8-4.3c1.2-1.2,2.6-1.8,4.1-1.8c1.7,0,3.1,0.6,4.2,1.8c1.1,1.2,1.7,2.6,1.7,4.3c0,1.6-0.6,3-1.7,4.1
	c-1.1,1.2-2.5,1.8-4.2,1.8c-1.6,0-3-0.6-4.1-1.8S83.2,130.5,83.2,129z M83.2,143.3c0-1.7,0.6-3.1,1.8-4.2c1.2-1.1,2.6-1.7,4.1-1.7
	c1.7,0,3.1,0.6,4.2,1.7c1.1,1.1,1.7,2.5,1.7,4.2c0,1.6-0.6,3-1.7,4.1c-1.1,1.2-2.5,1.8-4.2,1.8c-1.6,0-3-0.6-4.1-1.8
	S83.2,144.9,83.2,143.3z M97.6,85.7c0-1.6,0.6-3,1.8-4.1s2.6-1.8,4.1-1.8c1.7,0,3.1,0.6,4.2,1.8c1.1,1.2,1.7,2.6,1.7,4.1
	c0,1.7-0.6,3.1-1.7,4.3c-1.1,1.2-2.5,1.8-4.2,1.8c-1.6,0-3-0.6-4.1-1.8C98.2,88.8,97.6,87.4,97.6,85.7z M97.6,100.2
	c0-1.7,0.6-3.1,1.8-4.3s2.6-1.8,4.1-1.8c1.7,0,3.1,0.6,4.2,1.8c1.1,1.2,1.7,2.6,1.7,4.3c0,1.6-0.6,3-1.7,4.1
	c-1.1,1.2-2.5,1.8-4.2,1.8c-1.6,0-3-0.6-4.1-1.8C98.2,103.2,97.6,101.8,97.6,100.2z M97.6,114.6c0-1.7,0.6-3.1,1.8-4.3
	c1.2-1.2,2.6-1.8,4.1-1.8c1.7,0,3.1,0.6,4.2,1.8c1.1,1.2,1.7,2.6,1.7,4.3c0,1.6-0.6,3-1.7,4.1c-1.1,1.2-2.5,1.8-4.2,1.8
	c-1.6,0-3-0.6-4.1-1.8S97.6,116.2,97.6,114.6z M97.6,129c0-1.7,0.6-3.1,1.8-4.3c1.2-1.2,2.6-1.8,4.1-1.8c1.7,0,3.1,0.6,4.2,1.8
	c1.1,1.2,1.7,2.6,1.7,4.3c0,1.6-0.6,3-1.7,4.1c-1.1,1.2-2.5,1.8-4.2,1.8c-1.6,0-3-0.6-4.1-1.8S97.6,130.5,97.6,129z M97.6,143.3
	c0-1.7,0.6-3.1,1.8-4.2c1.2-1.1,2.6-1.7,4.1-1.7c1.7,0,3.1,0.6,4.2,1.7c1.1,1.1,1.7,2.5,1.7,4.2c0,1.6-0.6,3-1.7,4.1
	c-1.1,1.2-2.5,1.8-4.2,1.8c-1.6,0-3-0.6-4.1-1.8S97.6,144.9,97.6,143.3z M97.6,157.7c0-1.7,0.6-3.1,1.8-4.2c1.2-1.1,2.6-1.7,4.1-1.7
	c1.7,0,3.1,0.6,4.2,1.7c1.1,1.1,1.7,2.5,1.7,4.2c0,1.6-0.6,3-1.7,4.1c-1.1,1.2-2.5,1.8-4.2,1.8c-1.6,0-3-0.6-4.1-1.8
	C98.2,160.7,97.6,159.3,97.6,157.7z M97.6,172.1c0-1.7,0.6-3.1,1.8-4.2c1.2-1.1,2.6-1.7,4.1-1.7c1.7,0,3.1,0.6,4.2,1.7
	c1.1,1.1,1.7,2.5,1.7,4.2c0,1.6-0.6,3-1.7,4.1c-1.1,1.2-2.5,1.8-4.2,1.8c-1.6,0-3-0.6-4.1-1.8C98.2,175,97.6,173.6,97.6,172.1z
	 M97.6,186.4c0-1.7,0.6-3.1,1.8-4.2c1.2-1.1,2.6-1.7,4.1-1.7c1.7,0,3.1,0.6,4.2,1.7c1.1,1.1,1.7,2.5,1.7,4.2c0,1.6-0.6,3-1.7,4.1
	c-1.1,1.2-2.5,1.8-4.2,1.8c-1.6,0-3-0.6-4.1-1.8S97.6,188,97.6,186.4z M111.9,85.7c0-1.6,0.6-3,1.8-4.1s2.6-1.8,4.1-1.8
	c1.7,0,3.1,0.6,4.3,1.8s1.8,2.6,1.8,4.1c0,1.7-0.6,3.1-1.8,4.3c-1.2,1.2-2.6,1.8-4.3,1.8c-1.6,0-3-0.6-4.1-1.8
	C112.5,88.8,111.9,87.4,111.9,85.7z M111.9,100.2c0-1.7,0.6-3.1,1.8-4.3s2.6-1.8,4.1-1.8c1.7,0,3.1,0.6,4.3,1.8s1.8,2.6,1.8,4.3
	c0,1.6-0.6,3-1.8,4.1c-1.2,1.2-2.6,1.8-4.3,1.8c-1.6,0-3-0.6-4.1-1.8C112.5,103.2,111.9,101.8,111.9,100.2z M111.9,114.6
	c0-1.7,0.6-3.1,1.8-4.3c1.2-1.2,2.6-1.8,4.1-1.8c1.7,0,3.1,0.6,4.3,1.8c1.2,1.2,1.8,2.6,1.8,4.3c0,1.6-0.6,3-1.8,4.1
	s-2.6,1.8-4.3,1.8c-1.6,0-3-0.6-4.1-1.8S111.9,116.2,111.9,114.6z M111.9,129c0-1.7,0.6-3.1,1.8-4.3c1.2-1.2,2.6-1.8,4.1-1.8
	c1.7,0,3.1,0.6,4.3,1.8c1.2,1.2,1.8,2.6,1.8,4.3c0,1.6-0.6,3-1.8,4.1s-2.6,1.8-4.3,1.8c-1.6,0-3-0.6-4.1-1.8S111.9,130.5,111.9,129z
	 M111.9,143.3c0-1.7,0.6-3.1,1.8-4.2c1.2-1.1,2.6-1.7,4.1-1.7c1.7,0,3.1,0.6,4.3,1.7c1.2,1.1,1.8,2.5,1.8,4.2c0,1.6-0.6,3-1.8,4.1
	s-2.6,1.8-4.3,1.8c-1.6,0-3-0.6-4.1-1.8S111.9,144.9,111.9,143.3z M111.9,157.7c0-1.7,0.6-3.1,1.8-4.2c1.2-1.1,2.6-1.7,4.1-1.7
	c1.7,0,3.1,0.6,4.3,1.7c1.2,1.1,1.8,2.5,1.8,4.2c0,1.6-0.6,3-1.8,4.1c-1.2,1.2-2.6,1.8-4.3,1.8c-1.6,0-3-0.6-4.1-1.8
	C112.5,160.7,111.9,159.3,111.9,157.7z M111.9,172.1c0-1.7,0.6-3.1,1.8-4.2c1.2-1.1,2.6-1.7,4.1-1.7c1.7,0,3.1,0.6,4.3,1.7
	c1.2,1.1,1.8,2.5,1.8,4.2c0,1.6-0.6,3-1.8,4.1c-1.2,1.2-2.6,1.8-4.3,1.8c-1.6,0-3-0.6-4.1-1.8C112.5,175,111.9,173.6,111.9,172.1z
	 M111.9,186.4c0-1.7,0.6-3.1,1.8-4.2c1.2-1.1,2.6-1.7,4.1-1.7c1.7,0,3.1,0.6,4.3,1.7c1.2,1.1,1.8,2.5,1.8,4.2c0,1.6-0.6,3-1.8,4.1
	s-2.6,1.8-4.3,1.8c-1.6,0-3-0.6-4.1-1.8S111.9,188,111.9,186.4z M138.3,100.2c0-1.7,0.6-3.1,1.8-4.3s2.6-1.8,4.1-1.8
	c1.7,0,3.1,0.6,4.2,1.8c1.1,1.2,1.7,2.6,1.7,4.3c0,1.6-0.6,3-1.7,4.1c-1.1,1.2-2.5,1.8-4.2,1.8c-1.6,0-3-0.6-4.1-1.8
	C138.9,103.2,138.3,101.8,138.3,100.2z M138.3,114.6c0-1.7,0.6-3.1,1.8-4.3c1.2-1.2,2.6-1.8,4.1-1.8c1.7,0,3.1,0.6,4.2,1.8
	c1.1,1.2,1.7,2.6,1.7,4.3c0,1.6-0.6,3-1.7,4.1c-1.1,1.2-2.5,1.8-4.2,1.8c-1.6,0-3-0.6-4.1-1.8S138.3,116.2,138.3,114.6z M138.3,129
	c0-1.7,0.6-3.1,1.8-4.3c1.2-1.2,2.6-1.8,4.1-1.8c1.7,0,3.1,0.6,4.2,1.8c1.1,1.2,1.7,2.6,1.7,4.3c0,1.6-0.6,3-1.7,4.1
	c-1.1,1.2-2.5,1.8-4.2,1.8c-1.6,0-3-0.6-4.1-1.8S138.3,130.5,138.3,129z M138.3,143.3c0-1.7,0.6-3.1,1.8-4.2
	c1.2-1.1,2.6-1.7,4.1-1.7c1.7,0,3.1,0.6,4.2,1.7c1.1,1.1,1.7,2.5,1.7,4.2c0,1.6-0.6,3-1.7,4.1c-1.1,1.2-2.5,1.8-4.2,1.8
	c-1.6,0-3-0.6-4.1-1.8S138.3,144.9,138.3,143.3z M138.3,157.7c0-1.7,0.6-3.1,1.8-4.2c1.2-1.1,2.6-1.7,4.1-1.7c1.7,0,3.1,0.6,4.2,1.7
	c1.1,1.1,1.7,2.5,1.7,4.2c0,1.6-0.6,3-1.7,4.1c-1.1,1.2-2.5,1.8-4.2,1.8c-1.6,0-3-0.6-4.1-1.8C138.9,160.7,138.3,159.3,138.3,157.7z
	 M138.3,172.1c0-1.7,0.6-3.1,1.8-4.2c1.2-1.1,2.6-1.7,4.1-1.7c1.7,0,3.1,0.6,4.2,1.7c1.1,1.1,1.7,2.5,1.7,4.2c0,1.6-0.6,3-1.7,4.1
	c-1.1,1.2-2.5,1.8-4.2,1.8c-1.6,0-3-0.6-4.1-1.8C138.9,175,138.3,173.6,138.3,172.1z M138.3,186.4c0-1.7,0.6-3.1,1.8-4.2
	c1.2-1.1,2.6-1.7,4.1-1.7c1.7,0,3.1,0.6,4.2,1.7c1.1,1.1,1.7,2.5,1.7,4.2c0,1.6-0.6,3-1.7,4.1c-1.1,1.2-2.5,1.8-4.2,1.8
	c-1.6,0-3-0.6-4.1-1.8S138.3,188,138.3,186.4z M152.7,85.7c0-1.6,0.6-3,1.8-4.1c1.2-1.2,2.6-1.8,4.1-1.8c1.7,0,3.1,0.6,4.2,1.8
	c1.1,1.2,1.7,2.6,1.7,4.1c0,1.7-0.6,3.1-1.7,4.3c-1.1,1.2-2.5,1.8-4.2,1.8c-1.6,0-3-0.6-4.1-1.8C153.3,88.8,152.7,87.4,152.7,85.7z
	 M152.7,100.2c0-1.7,0.6-3.1,1.8-4.3c1.2-1.2,2.6-1.8,4.1-1.8c1.7,0,3.1,0.6,4.2,1.8c1.1,1.2,1.7,2.6,1.7,4.3c0,1.6-0.6,3-1.7,4.1
	c-1.1,1.2-2.5,1.8-4.2,1.8c-1.6,0-3-0.6-4.1-1.8C153.3,103.2,152.7,101.8,152.7,100.2z M152.7,114.6c0-1.7,0.6-3.1,1.8-4.3
	c1.2-1.2,2.6-1.8,4.1-1.8c1.7,0,3.1,0.6,4.2,1.8c1.1,1.2,1.7,2.6,1.7,4.3c0,1.6-0.6,3-1.7,4.1c-1.1,1.2-2.5,1.8-4.2,1.8
	c-1.6,0-3-0.6-4.1-1.8C153.3,117.6,152.7,116.2,152.7,114.6z M152.7,129c0-1.7,0.6-3.1,1.8-4.3c1.2-1.2,2.6-1.8,4.1-1.8
	c1.7,0,3.1,0.6,4.2,1.8c1.1,1.2,1.7,2.6,1.7,4.3c0,1.6-0.6,3-1.7,4.1c-1.1,1.2-2.5,1.8-4.2,1.8c-1.6,0-3-0.6-4.1-1.8
	C153.3,131.9,152.7,130.5,152.7,129z M152.7,143.3c0-1.7,0.6-3.1,1.8-4.2c1.2-1.1,2.6-1.7,4.1-1.7c1.7,0,3.1,0.6,4.2,1.7
	c1.1,1.1,1.7,2.5,1.7,4.2c0,1.6-0.6,3-1.7,4.1c-1.1,1.2-2.5,1.8-4.2,1.8c-1.6,0-3-0.6-4.1-1.8C153.3,146.3,152.7,144.9,152.7,143.3z
	 M152.7,157.7c0-1.7,0.6-3.1,1.8-4.2c1.2-1.1,2.6-1.7,4.1-1.7c1.7,0,3.1,0.6,4.2,1.7c1.1,1.1,1.7,2.5,1.7,4.2c0,1.6-0.6,3-1.7,4.1
	c-1.1,1.2-2.5,1.8-4.2,1.8c-1.6,0-3-0.6-4.1-1.8C153.3,160.7,152.7,159.3,152.7,157.7z M152.7,172.1c0-1.7,0.6-3.1,1.8-4.2
	c1.2-1.1,2.6-1.7,4.1-1.7c1.7,0,3.1,0.6,4.2,1.7c1.1,1.1,1.7,2.5,1.7,4.2c0,1.6-0.6,3-1.7,4.1c-1.1,1.2-2.5,1.8-4.2,1.8
	c-1.6,0-3-0.6-4.1-1.8C153.3,175,152.7,173.6,152.7,172.1z M152.7,186.4c0-1.7,0.6-3.1,1.8-4.2c1.2-1.1,2.6-1.7,4.1-1.7
	c1.7,0,3.1,0.6,4.2,1.7c1.1,1.1,1.7,2.5,1.7,4.2c0,1.6-0.6,3-1.7,4.1c-1.1,1.2-2.5,1.8-4.2,1.8c-1.6,0-3-0.6-4.1-1.8
	C153.3,189.4,152.7,188,152.7,186.4z M167,85.7c0-1.6,0.6-3,1.8-4.1c1.2-1.2,2.6-1.8,4.1-1.8c1.7,0,3.1,0.6,4.2,1.8
	c1.1,1.2,1.7,2.6,1.7,4.1c0,1.7-0.6,3.1-1.7,4.3c-1.1,1.2-2.5,1.8-4.2,1.8c-1.6,0-3-0.6-4.1-1.8C167.6,88.8,167,87.4,167,85.7z
	 M167,100.2c0-1.7,0.6-3.1,1.8-4.3c1.2-1.2,2.6-1.8,4.1-1.8c1.7,0,3.1,0.6,4.2,1.8c1.1,1.2,1.7,2.6,1.7,4.3c0,1.6-0.6,3-1.7,4.1
	c-1.1,1.2-2.5,1.8-4.2,1.8c-1.6,0-3-0.6-4.1-1.8C167.6,103.2,167,101.8,167,100.2z M167,143.3c0-1.7,0.6-3.1,1.8-4.2
	c1.2-1.1,2.6-1.7,4.1-1.7c1.7,0,3.1,0.6,4.2,1.7c1.1,1.1,1.7,2.5,1.7,4.2c0,1.6-0.6,3-1.7,4.1c-1.1,1.2-2.5,1.8-4.2,1.8
	c-1.6,0-3-0.6-4.1-1.8C167.6,146.3,167,144.9,167,143.3z M167,157.7c0-1.7,0.6-3.1,1.8-4.2c1.2-1.1,2.6-1.7,4.1-1.7
	c1.7,0,3.1,0.6,4.2,1.7c1.1,1.1,1.7,2.5,1.7,4.2c0,1.6-0.6,3-1.7,4.1c-1.1,1.2-2.5,1.8-4.2,1.8c-1.6,0-3-0.6-4.1-1.8
	C167.6,160.7,167,159.3,167,157.7z M181.4,85.7c0-1.6,0.6-3,1.8-4.1s2.6-1.8,4.1-1.8c1.7,0,3.1,0.6,4.2,1.8c1.1,1.2,1.7,2.6,1.7,4.1
	c0,1.7-0.6,3.1-1.7,4.3c-1.1,1.2-2.5,1.8-4.2,1.8c-1.6,0-3-0.6-4.1-1.8C182,88.8,181.4,87.4,181.4,85.7z M181.4,100.2
	c0-1.7,0.6-3.1,1.8-4.3s2.6-1.8,4.1-1.8c1.7,0,3.1,0.6,4.2,1.8c1.1,1.2,1.7,2.6,1.7,4.3c0,1.6-0.6,3-1.7,4.1
	c-1.1,1.2-2.5,1.8-4.2,1.8c-1.6,0-3-0.6-4.1-1.8C182,103.2,181.4,101.8,181.4,100.2z M181.4,143.3c0-1.7,0.6-3.1,1.8-4.2
	c1.2-1.1,2.6-1.7,4.1-1.7c1.7,0,3.1,0.6,4.2,1.7c1.1,1.1,1.7,2.5,1.7,4.2c0,1.6-0.6,3-1.7,4.1c-1.1,1.2-2.5,1.8-4.2,1.8
	c-1.6,0-3-0.6-4.1-1.8S181.4,144.9,181.4,143.3z M181.4,157.7c0-1.7,0.6-3.1,1.8-4.2c1.2-1.1,2.6-1.7,4.1-1.7c1.7,0,3.1,0.6,4.2,1.7
	c1.1,1.1,1.7,2.5,1.7,4.2c0,1.6-0.6,3-1.7,4.1c-1.1,1.2-2.5,1.8-4.2,1.8c-1.6,0-3-0.6-4.1-1.8C182,160.7,181.4,159.3,181.4,157.7z
	 M195.8,85.7c0-1.6,0.6-3,1.8-4.1s2.6-1.8,4.1-1.8c1.7,0,3.1,0.6,4.2,1.8c1.1,1.2,1.7,2.6,1.7,4.1c0,1.7-0.6,3.1-1.7,4.3
	c-1.1,1.2-2.5,1.8-4.2,1.8c-1.6,0-3-0.6-4.1-1.8C196.3,88.8,195.8,87.4,195.8,85.7z M195.8,100.2c0-1.7,0.6-3.1,1.8-4.3
	s2.6-1.8,4.1-1.8c1.7,0,3.1,0.6,4.2,1.8c1.1,1.2,1.7,2.6,1.7,4.3c0,1.6-0.6,3-1.7,4.1c-1.1,1.2-2.5,1.8-4.2,1.8
	c-1.6,0-3-0.6-4.1-1.8C196.3,103.2,195.8,101.8,195.8,100.2z M195.8,114.6c0-1.7,0.6-3.1,1.8-4.3c1.2-1.2,2.6-1.8,4.1-1.8
	c1.7,0,3.1,0.6,4.2,1.8c1.1,1.2,1.7,2.6,1.7,4.3c0,1.6-0.6,3-1.7,4.1c-1.1,1.2-2.5,1.8-4.2,1.8c-1.6,0-3-0.6-4.1-1.8
	S195.8,116.2,195.8,114.6z M195.8,129c0-1.7,0.6-3.1,1.8-4.3c1.2-1.2,2.6-1.8,4.1-1.8c1.7,0,3.1,0.6,4.2,1.8
	c1.1,1.2,1.7,2.6,1.7,4.3c0,1.6-0.6,3-1.7,4.1c-1.1,1.2-2.5,1.8-4.2,1.8c-1.6,0-3-0.6-4.1-1.8S195.8,130.5,195.8,129z M195.8,143.3
	c0-1.7,0.6-3.1,1.8-4.2c1.2-1.1,2.6-1.7,4.1-1.7c1.7,0,3.1,0.6,4.2,1.7c1.1,1.1,1.7,2.5,1.7,4.2c0,1.6-0.6,3-1.7,4.1
	c-1.1,1.2-2.5,1.8-4.2,1.8c-1.6,0-3-0.6-4.1-1.8S195.8,144.9,195.8,143.3z M195.8,157.7c0-1.7,0.6-3.1,1.8-4.2
	c1.2-1.1,2.6-1.7,4.1-1.7c1.7,0,3.1,0.6,4.2,1.7c1.1,1.1,1.7,2.5,1.7,4.2c0,1.6-0.6,3-1.7,4.1c-1.1,1.2-2.5,1.8-4.2,1.8
	c-1.6,0-3-0.6-4.1-1.8C196.3,160.7,195.8,159.3,195.8,157.7z M195.8,172.1c0-1.7,0.6-3.1,1.8-4.2c1.2-1.1,2.6-1.7,4.1-1.7
	c1.7,0,3.1,0.6,4.2,1.7c1.1,1.1,1.7,2.5,1.7,4.2c0,1.6-0.6,3-1.7,4.1c-1.1,1.2-2.5,1.8-4.2,1.8c-1.6,0-3-0.6-4.1-1.8
	C196.3,175,195.8,173.6,195.8,172.1z M195.8,186.4c0-1.7,0.6-3.1,1.8-4.2c1.2-1.1,2.6-1.7,4.1-1.7c1.7,0,3.1,0.6,4.2,1.7
	c1.1,1.1,1.7,2.5,1.7,4.2c0,1.6-0.6,3-1.7,4.1c-1.1,1.2-2.5,1.8-4.2,1.8c-1.6,0-3-0.6-4.1-1.8S195.8,188,195.8,186.4z M210.1,100.2
	c0-1.7,0.6-3.1,1.8-4.3s2.6-1.8,4.1-1.8c1.7,0,3.1,0.6,4.3,1.8s1.8,2.6,1.8,4.3c0,1.6-0.6,3-1.8,4.1c-1.2,1.2-2.6,1.8-4.3,1.8
	c-1.6,0-3-0.6-4.1-1.8C210.7,103.2,210.1,101.8,210.1,100.2z M210.1,114.6c0-1.7,0.6-3.1,1.8-4.3c1.2-1.2,2.6-1.8,4.1-1.8
	c1.7,0,3.1,0.6,4.3,1.8c1.2,1.2,1.8,2.6,1.8,4.3c0,1.6-0.6,3-1.8,4.1s-2.6,1.8-4.3,1.8c-1.6,0-3-0.6-4.1-1.8
	S210.1,116.2,210.1,114.6z M210.1,129c0-1.7,0.6-3.1,1.8-4.3c1.2-1.2,2.6-1.8,4.1-1.8c1.7,0,3.1,0.6,4.3,1.8
	c1.2,1.2,1.8,2.6,1.8,4.3c0,1.6-0.6,3-1.8,4.1s-2.6,1.8-4.3,1.8c-1.6,0-3-0.6-4.1-1.8S210.1,130.5,210.1,129z M210.1,143.3
	c0-1.7,0.6-3.1,1.8-4.2c1.2-1.1,2.6-1.7,4.1-1.7c1.7,0,3.1,0.6,4.3,1.7c1.2,1.1,1.8,2.5,1.8,4.2c0,1.6-0.6,3-1.8,4.1
	s-2.6,1.8-4.3,1.8c-1.6,0-3-0.6-4.1-1.8S210.1,144.9,210.1,143.3z M210.1,157.7c0-1.7,0.6-3.1,1.8-4.2c1.2-1.1,2.6-1.7,4.1-1.7
	c1.7,0,3.1,0.6,4.3,1.7c1.2,1.1,1.8,2.5,1.8,4.2c0,1.6-0.6,3-1.8,4.1c-1.2,1.2-2.6,1.8-4.3,1.8c-1.6,0-3-0.6-4.1-1.8
	C210.7,160.7,210.1,159.3,210.1,157.7z M210.1,172.1c0-1.7,0.6-3.1,1.8-4.2c1.2-1.1,2.6-1.7,4.1-1.7c1.7,0,3.1,0.6,4.3,1.7
	c1.2,1.1,1.8,2.5,1.8,4.2c0,1.6-0.6,3-1.8,4.1c-1.2,1.2-2.6,1.8-4.3,1.8c-1.6,0-3-0.6-4.1-1.8C210.7,175,210.1,173.6,210.1,172.1z
	 M210.1,186.4c0-1.7,0.6-3.1,1.8-4.2c1.2-1.1,2.6-1.7,4.1-1.7c1.7,0,3.1,0.6,4.3,1.7c1.2,1.1,1.8,2.5,1.8,4.2c0,1.6-0.6,3-1.8,4.1
	s-2.6,1.8-4.3,1.8c-1.6,0-3-0.6-4.1-1.8S210.1,188,210.1,186.4z M236.5,85.7c0-1.6,0.6-3,1.8-4.1s2.6-1.8,4.1-1.8
	c1.7,0,3.1,0.6,4.2,1.8c1.1,1.2,1.7,2.6,1.7,4.1c0,1.7-0.6,3.1-1.7,4.3c-1.1,1.2-2.5,1.8-4.2,1.8c-1.6,0-3-0.6-4.1-1.8
	C237.1,88.8,236.5,87.4,236.5,85.7z M236.5,100.2c0-1.7,0.6-3.1,1.8-4.3s2.6-1.8,4.1-1.8c1.7,0,3.1,0.6,4.2,1.8
	c1.1,1.2,1.7,2.6,1.7,4.3c0,1.6-0.6,3-1.7,4.1c-1.1,1.2-2.5,1.8-4.2,1.8c-1.6,0-3-0.6-4.1-1.8C237.1,103.2,236.5,101.8,236.5,100.2z
	 M236.5,114.6c0-1.7,0.6-3.1,1.8-4.3c1.2-1.2,2.6-1.8,4.1-1.8c1.7,0,3.1,0.6,4.2,1.8c1.1,1.2,1.7,2.6,1.7,4.3c0,1.6-0.6,3-1.7,4.1
	c-1.1,1.2-2.5,1.8-4.2,1.8c-1.6,0-3-0.6-4.1-1.8S236.5,116.2,236.5,114.6z M236.5,129c0-1.7,0.6-3.1,1.8-4.3
	c1.2-1.2,2.6-1.8,4.1-1.8c1.7,0,3.1,0.6,4.2,1.8c1.1,1.2,1.7,2.6,1.7,4.3c0,1.6-0.6,3-1.7,4.1c-1.1,1.2-2.5,1.8-4.2,1.8
	c-1.6,0-3-0.6-4.1-1.8S236.5,130.5,236.5,129z M236.5,143.3c0-1.7,0.6-3.1,1.8-4.2c1.2-1.1,2.6-1.7,4.1-1.7c1.7,0,3.1,0.6,4.2,1.7
	c1.1,1.1,1.7,2.5,1.7,4.2c0,1.6-0.6,3-1.7,4.1c-1.1,1.2-2.5,1.8-4.2,1.8c-1.6,0-3-0.6-4.1-1.8S236.5,144.9,236.5,143.3z
	 M236.5,157.7c0-1.7,0.6-3.1,1.8-4.2c1.2-1.1,2.6-1.7,4.1-1.7c1.7,0,3.1,0.6,4.2,1.7c1.1,1.1,1.7,2.5,1.7,4.2c0,1.6-0.6,3-1.7,4.1
	c-1.1,1.2-2.5,1.8-4.2,1.8c-1.6,0-3-0.6-4.1-1.8C237.1,160.7,236.5,159.3,236.5,157.7z M236.5,172.1c0-1.7,0.6-3.1,1.8-4.2
	c1.2-1.1,2.6-1.7,4.1-1.7c1.7,0,3.1,0.6,4.2,1.7c1.1,1.1,1.7,2.5,1.7,4.2c0,1.6-0.6,3-1.7,4.1c-1.1,1.2-2.5,1.8-4.2,1.8
	c-1.6,0-3-0.6-4.1-1.8C237.1,175,236.5,173.6,236.5,172.1z M236.5,186.4c0-1.7,0.6-3.1,1.8-4.2c1.2-1.1,2.6-1.7,4.1-1.7
	c1.7,0,3.1,0.6,4.2,1.7c1.1,1.1,1.7,2.5,1.7,4.2c0,1.6-0.6,3-1.7,4.1c-1.1,1.2-2.5,1.8-4.2,1.8c-1.6,0-3-0.6-4.1-1.8
	S236.5,188,236.5,186.4z M250.8,85.7c0-1.6,0.6-3,1.8-4.1c1.2-1.2,2.6-1.8,4.1-1.8c1.7,0,3.1,0.6,4.2,1.8c1.1,1.2,1.7,2.6,1.7,4.1
	c0,1.7-0.6,3.1-1.7,4.3c-1.1,1.2-2.5,1.8-4.2,1.8c-1.6,0-3-0.6-4.1-1.8C251.4,88.8,250.8,87.4,250.8,85.7z M250.8,100.2
	c0-1.7,0.6-3.1,1.8-4.3c1.2-1.2,2.6-1.8,4.1-1.8c1.7,0,3.1,0.6,4.2,1.8c1.1,1.2,1.7,2.6,1.7,4.3c0,1.6-0.6,3-1.7,4.1
	c-1.1,1.2-2.5,1.8-4.2,1.8c-1.6,0-3-0.6-4.1-1.8C251.4,103.2,250.8,101.8,250.8,100.2z M250.8,114.6c0-1.7,0.6-3.1,1.8-4.3
	c1.2-1.2,2.6-1.8,4.1-1.8c1.7,0,3.1,0.6,4.2,1.8c1.1,1.2,1.7,2.6,1.7,4.3c0,1.6-0.6,3-1.7,4.1c-1.1,1.2-2.5,1.8-4.2,1.8
	c-1.6,0-3-0.6-4.1-1.8C251.4,117.6,250.8,116.2,250.8,114.6z M250.8,129c0-1.7,0.6-3.1,1.8-4.3c1.2-1.2,2.6-1.8,4.1-1.8
	c1.7,0,3.1,0.6,4.2,1.8c1.1,1.2,1.7,2.6,1.7,4.3c0,1.6-0.6,3-1.7,4.1c-1.1,1.2-2.5,1.8-4.2,1.8c-1.6,0-3-0.6-4.1-1.8
	C251.4,131.9,250.8,130.5,250.8,129z M250.8,143.3c0-1.7,0.6-3.1,1.8-4.2c1.2-1.1,2.6-1.7,4.1-1.7c1.7,0,3.1,0.6,4.2,1.7
	c1.1,1.1,1.7,2.5,1.7,4.2c0,1.6-0.6,3-1.7,4.1c-1.1,1.2-2.5,1.8-4.2,1.8c-1.6,0-3-0.6-4.1-1.8C251.4,146.3,250.8,144.9,250.8,143.3z
	 M250.8,157.7c0-1.7,0.6-3.1,1.8-4.2c1.2-1.1,2.6-1.7,4.1-1.7c1.7,0,3.1,0.6,4.2,1.7c1.1,1.1,1.7,2.5,1.7,4.2c0,1.6-0.6,3-1.7,4.1
	c-1.1,1.2-2.5,1.8-4.2,1.8c-1.6,0-3-0.6-4.1-1.8C251.4,160.7,250.8,159.3,250.8,157.7z M250.8,172.1c0-1.7,0.6-3.1,1.8-4.2
	c1.2-1.1,2.6-1.7,4.1-1.7c1.7,0,3.1,0.6,4.2,1.7c1.1,1.1,1.7,2.5,1.7,4.2c0,1.6-0.6,3-1.7,4.1c-1.1,1.2-2.5,1.8-4.2,1.8
	c-1.6,0-3-0.6-4.1-1.8C251.4,175,250.8,173.6,250.8,172.1z M250.8,186.4c0-1.7,0.6-3.1,1.8-4.2c1.2-1.1,2.6-1.7,4.1-1.7
	c1.7,0,3.1,0.6,4.2,1.7c1.1,1.1,1.7,2.5,1.7,4.2c0,1.6-0.6,3-1.7,4.1c-1.1,1.2-2.5,1.8-4.2,1.8c-1.6,0-3-0.6-4.1-1.8
	C251.4,189.4,250.8,188,250.8,186.4z M265.2,114.6c0-1.7,0.6-3.1,1.8-4.3c1.2-1.2,2.6-1.8,4.1-1.8c1.7,0,3.1,0.6,4.2,1.8
	c1.1,1.2,1.7,2.6,1.7,4.3c0,1.6-0.6,3-1.7,4.1c-1.1,1.2-2.5,1.8-4.2,1.8c-1.6,0-3-0.6-4.1-1.8C265.8,117.6,265.2,116.2,265.2,114.6z
	 M265.2,129c0-1.7,0.6-3.1,1.8-4.3c1.2-1.2,2.6-1.8,4.1-1.8c1.7,0,3.1,0.6,4.2,1.8c1.1,1.2,1.7,2.6,1.7,4.3c0,1.6-0.6,3-1.7,4.1
	c-1.1,1.2-2.5,1.8-4.2,1.8c-1.6,0-3-0.6-4.1-1.8C265.8,131.9,265.2,130.5,265.2,129z M279.6,129c0-1.7,0.6-3.1,1.8-4.3
	c1.2-1.2,2.6-1.8,4.1-1.8c1.7,0,3.1,0.6,4.2,1.8c1.1,1.2,1.7,2.6,1.7,4.3c0,1.6-0.6,3-1.7,4.1c-1.1,1.2-2.5,1.8-4.2,1.8
	c-1.6,0-3-0.6-4.1-1.8C280.2,131.9,279.6,130.5,279.6,129z M279.6,143.3c0-1.7,0.6-3.1,1.8-4.2c1.2-1.1,2.6-1.7,4.1-1.7
	c1.7,0,3.1,0.6,4.2,1.7c1.1,1.1,1.7,2.5,1.7,4.2c0,1.6-0.6,3-1.7,4.1c-1.1,1.2-2.5,1.8-4.2,1.8c-1.6,0-3-0.6-4.1-1.8
	C280.2,146.3,279.6,144.9,279.6,143.3z M293.9,85.7c0-1.6,0.6-3,1.8-4.1c1.2-1.2,2.6-1.8,4.1-1.8c1.7,0,3.1,0.6,4.2,1.8
	c1.1,1.2,1.7,2.6,1.7,4.1c0,1.7-0.6,3.1-1.7,4.3c-1.1,1.2-2.5,1.8-4.2,1.8c-1.6,0-3-0.6-4.1-1.8C294.5,88.8,293.9,87.4,293.9,85.7z
	 M293.9,100.2c0-1.7,0.6-3.1,1.8-4.3c1.2-1.2,2.6-1.8,4.1-1.8c1.7,0,3.1,0.6,4.2,1.8c1.1,1.2,1.7,2.6,1.7,4.3c0,1.6-0.6,3-1.7,4.1
	c-1.1,1.2-2.5,1.8-4.2,1.8c-1.6,0-3-0.6-4.1-1.8C294.5,103.2,293.9,101.8,293.9,100.2z M293.9,114.6c0-1.7,0.6-3.1,1.8-4.3
	c1.2-1.2,2.6-1.8,4.1-1.8c1.7,0,3.1,0.6,4.2,1.8c1.1,1.2,1.7,2.6,1.7,4.3c0,1.6-0.6,3-1.7,4.1c-1.1,1.2-2.5,1.8-4.2,1.8
	c-1.6,0-3-0.6-4.1-1.8C294.5,117.6,293.9,116.2,293.9,114.6z M293.9,129c0-1.7,0.6-3.1,1.8-4.3c1.2-1.2,2.6-1.8,4.1-1.8
	c1.7,0,3.1,0.6,4.2,1.8c1.1,1.2,1.7,2.6,1.7,4.3c0,1.6-0.6,3-1.7,4.1c-1.1,1.2-2.5,1.8-4.2,1.8c-1.6,0-3-0.6-4.1-1.8
	C294.5,131.9,293.9,130.5,293.9,129z M293.9,143.3c0-1.7,0.6-3.1,1.8-4.2c1.2-1.1,2.6-1.7,4.1-1.7c1.7,0,3.1,0.6,4.2,1.7
	c1.1,1.1,1.7,2.5,1.7,4.2c0,1.6-0.6,3-1.7,4.1c-1.1,1.2-2.5,1.8-4.2,1.8c-1.6,0-3-0.6-4.1-1.8C294.5,146.3,293.9,144.9,293.9,143.3z
	 M293.9,157.7c0-1.7,0.6-3.1,1.8-4.2c1.2-1.1,2.6-1.7,4.1-1.7c1.7,0,3.1,0.6,4.2,1.7c1.1,1.1,1.7,2.5,1.7,4.2c0,1.6-0.6,3-1.7,4.1
	c-1.1,1.2-2.5,1.8-4.2,1.8c-1.6,0-3-0.6-4.1-1.8C294.5,160.7,293.9,159.3,293.9,157.7z M293.9,172.1c0-1.7,0.6-3.1,1.8-4.2
	c1.2-1.1,2.6-1.7,4.1-1.7c1.7,0,3.1,0.6,4.2,1.7c1.1,1.1,1.7,2.5,1.7,4.2c0,1.6-0.6,3-1.7,4.1c-1.1,1.2-2.5,1.8-4.2,1.8
	c-1.6,0-3-0.6-4.1-1.8C294.5,175,293.9,173.6,293.9,172.1z M293.9,186.4c0-1.7,0.6-3.1,1.8-4.2c1.2-1.1,2.6-1.7,4.1-1.7
	c1.7,0,3.1,0.6,4.2,1.7c1.1,1.1,1.7,2.5,1.7,4.2c0,1.6-0.6,3-1.7,4.1c-1.1,1.2-2.5,1.8-4.2,1.8c-1.6,0-3-0.6-4.1-1.8
	C294.5,189.4,293.9,188,293.9,186.4z M308.3,85.7c0-1.6,0.6-3,1.8-4.1c1.2-1.2,2.6-1.8,4.1-1.8c1.7,0,3.1,0.6,4.3,1.8
	c1.2,1.2,1.8,2.6,1.8,4.1c0,1.7-0.6,3.1-1.8,4.3c-1.2,1.2-2.6,1.8-4.3,1.8c-1.6,0-3-0.6-4.1-1.8C308.9,88.8,308.3,87.4,308.3,85.7z
	 M308.3,100.2c0-1.7,0.6-3.1,1.8-4.3c1.2-1.2,2.6-1.8,4.1-1.8c1.7,0,3.1,0.6,4.3,1.8c1.2,1.2,1.8,2.6,1.8,4.3c0,1.6-0.6,3-1.8,4.1
	c-1.2,1.2-2.6,1.8-4.3,1.8c-1.6,0-3-0.6-4.1-1.8C308.9,103.2,308.3,101.8,308.3,100.2z M308.3,114.6c0-1.7,0.6-3.1,1.8-4.3
	c1.2-1.2,2.6-1.8,4.1-1.8c1.7,0,3.1,0.6,4.3,1.8c1.2,1.2,1.8,2.6,1.8,4.3c0,1.6-0.6,3-1.8,4.1c-1.2,1.2-2.6,1.8-4.3,1.8
	c-1.6,0-3-0.6-4.1-1.8C308.9,117.6,308.3,116.2,308.3,114.6z M308.3,129c0-1.7,0.6-3.1,1.8-4.3c1.2-1.2,2.6-1.8,4.1-1.8
	c1.7,0,3.1,0.6,4.3,1.8c1.2,1.2,1.8,2.6,1.8,4.3c0,1.6-0.6,3-1.8,4.1c-1.2,1.2-2.6,1.8-4.3,1.8c-1.6,0-3-0.6-4.1-1.8
	C308.9,131.9,308.3,130.5,308.3,129z M308.3,143.3c0-1.7,0.6-3.1,1.8-4.2c1.2-1.1,2.6-1.7,4.1-1.7c1.7,0,3.1,0.6,4.3,1.7
	c1.2,1.1,1.8,2.5,1.8,4.2c0,1.6-0.6,3-1.8,4.1c-1.2,1.2-2.6,1.8-4.3,1.8c-1.6,0-3-0.6-4.1-1.8C308.9,146.3,308.3,144.9,308.3,143.3z
	 M308.3,157.7c0-1.7,0.6-3.1,1.8-4.2c1.2-1.1,2.6-1.7,4.1-1.7c1.7,0,3.1,0.6,4.3,1.7c1.2,1.1,1.8,2.5,1.8,4.2c0,1.6-0.6,3-1.8,4.1
	c-1.2,1.2-2.6,1.8-4.3,1.8c-1.6,0-3-0.6-4.1-1.8C308.9,160.7,308.3,159.3,308.3,157.7z M308.3,172.1c0-1.7,0.6-3.1,1.8-4.2
	c1.2-1.1,2.6-1.7,4.1-1.7c1.7,0,3.1,0.6,4.3,1.7c1.2,1.1,1.8,2.5,1.8,4.2c0,1.6-0.6,3-1.8,4.1c-1.2,1.2-2.6,1.8-4.3,1.8
	c-1.6,0-3-0.6-4.1-1.8C308.9,175,308.3,173.6,308.3,172.1z M308.3,186.4c0-1.7,0.6-3.1,1.8-4.2c1.2-1.1,2.6-1.7,4.1-1.7
	c1.7,0,3.1,0.6,4.3,1.7c1.2,1.1,1.8,2.5,1.8,4.2c0,1.6-0.6,3-1.8,4.1c-1.2,1.2-2.6,1.8-4.3,1.8c-1.6,0-3-0.6-4.1-1.8
	C308.9,189.4,308.3,188,308.3,186.4z M334.6,100.2c0-1.7,0.6-3.1,1.8-4.3c1.2-1.2,2.6-1.8,4.1-1.8c1.7,0,3.1,0.6,4.2,1.8
	c1.1,1.2,1.7,2.6,1.7,4.3c0,1.6-0.6,3-1.7,4.1c-1.1,1.2-2.5,1.8-4.2,1.8c-1.6,0-3-0.6-4.1-1.8C335.2,103.2,334.6,101.8,334.6,100.2z
	 M334.6,114.6c0-1.7,0.6-3.1,1.8-4.3c1.2-1.2,2.6-1.8,4.1-1.8c1.7,0,3.1,0.6,4.2,1.8c1.1,1.2,1.7,2.6,1.7,4.3c0,1.6-0.6,3-1.7,4.1
	c-1.1,1.2-2.5,1.8-4.2,1.8c-1.6,0-3-0.6-4.1-1.8C335.2,117.6,334.6,116.2,334.6,114.6z M334.6,129c0-1.7,0.6-3.1,1.8-4.3
	c1.2-1.2,2.6-1.8,4.1-1.8c1.7,0,3.1,0.6,4.2,1.8c1.1,1.2,1.7,2.6,1.7,4.3c0,1.6-0.6,3-1.7,4.1c-1.1,1.2-2.5,1.8-4.2,1.8
	c-1.6,0-3-0.6-4.1-1.8C335.2,131.9,334.6,130.5,334.6,129z M334.6,143.3c0-1.7,0.6-3.1,1.8-4.2c1.2-1.1,2.6-1.7,4.1-1.7
	c1.7,0,3.1,0.6,4.2,1.7c1.1,1.1,1.7,2.5,1.7,4.2c0,1.6-0.6,3-1.7,4.1c-1.1,1.2-2.5,1.8-4.2,1.8c-1.6,0-3-0.6-4.1-1.8
	C335.2,146.3,334.6,144.9,334.6,143.3z M334.6,157.7c0-1.7,0.6-3.1,1.8-4.2c1.2-1.1,2.6-1.7,4.1-1.7c1.7,0,3.1,0.6,4.2,1.7
	c1.1,1.1,1.7,2.5,1.7,4.2c0,1.6-0.6,3-1.7,4.1c-1.1,1.2-2.5,1.8-4.2,1.8c-1.6,0-3-0.6-4.1-1.8C335.2,160.7,334.6,159.3,334.6,157.7z
	 M334.6,172.1c0-1.7,0.6-3.1,1.8-4.2c1.2-1.1,2.6-1.7,4.1-1.7c1.7,0,3.1,0.6,4.2,1.7c1.1,1.1,1.7,2.5,1.7,4.2c0,1.6-0.6,3-1.7,4.1
	c-1.1,1.2-2.5,1.8-4.2,1.8c-1.6,0-3-0.6-4.1-1.8C335.2,175,334.6,173.6,334.6,172.1z M349,85.7c0-1.6,0.6-3,1.8-4.1
	c1.2-1.2,2.6-1.8,4.1-1.8c1.7,0,3.1,0.6,4.2,1.8c1.1,1.2,1.7,2.6,1.7,4.1c0,1.7-0.6,3.1-1.7,4.3c-1.1,1.2-2.5,1.8-4.2,1.8
	c-1.6,0-3-0.6-4.1-1.8C349.6,88.8,349,87.4,349,85.7z M349,100.2c0-1.7,0.6-3.1,1.8-4.3c1.2-1.2,2.6-1.8,4.1-1.8
	c1.7,0,3.1,0.6,4.2,1.8c1.1,1.2,1.7,2.6,1.7,4.3c0,1.6-0.6,3-1.7,4.1c-1.1,1.2-2.5,1.8-4.2,1.8c-1.6,0-3-0.6-4.1-1.8
	C349.6,103.2,349,101.8,349,100.2z M349,114.6c0-1.7,0.6-3.1,1.8-4.3c1.2-1.2,2.6-1.8,4.1-1.8c1.7,0,3.1,0.6,4.2,1.8
	c1.1,1.2,1.7,2.6,1.7,4.3c0,1.6-0.6,3-1.7,4.1c-1.1,1.2-2.5,1.8-4.2,1.8c-1.6,0-3-0.6-4.1-1.8C349.6,117.6,349,116.2,349,114.6z
	 M349,129c0-1.7,0.6-3.1,1.8-4.3c1.2-1.2,2.6-1.8,4.1-1.8c1.7,0,3.1,0.6,4.2,1.8c1.1,1.2,1.7,2.6,1.7,4.3c0,1.6-0.6,3-1.7,4.1
	c-1.1,1.2-2.5,1.8-4.2,1.8c-1.6,0-3-0.6-4.1-1.8C349.6,131.9,349,130.5,349,129z M349,143.3c0-1.7,0.6-3.1,1.8-4.2
	c1.2-1.1,2.6-1.7,4.1-1.7c1.7,0,3.1,0.6,4.2,1.7c1.1,1.1,1.7,2.5,1.7,4.2c0,1.6-0.6,3-1.7,4.1c-1.1,1.2-2.5,1.8-4.2,1.8
	c-1.6,0-3-0.6-4.1-1.8C349.6,146.3,349,144.9,349,143.3z M349,157.7c0-1.7,0.6-3.1,1.8-4.2c1.2-1.1,2.6-1.7,4.1-1.7
	c1.7,0,3.1,0.6,4.2,1.7c1.1,1.1,1.7,2.5,1.7,4.2c0,1.6-0.6,3-1.7,4.1c-1.1,1.2-2.5,1.8-4.2,1.8c-1.6,0-3-0.6-4.1-1.8
	C349.6,160.7,349,159.3,349,157.7z M349,172.1c0-1.7,0.6-3.1,1.8-4.2c1.2-1.1,2.6-1.7,4.1-1.7c1.7,0,3.1,0.6,4.2,1.7
	c1.1,1.1,1.7,2.5,1.7,4.2c0,1.6-0.6,3-1.7,4.1c-1.1,1.2-2.5,1.8-4.2,1.8c-1.6,0-3-0.6-4.1-1.8C349.6,175,349,173.6,349,172.1z
	 M349,186.4c0-1.7,0.6-3.1,1.8-4.2c1.2-1.1,2.6-1.7,4.1-1.7c1.7,0,3.1,0.6,4.2,1.7c1.1,1.1,1.7,2.5,1.7,4.2c0,1.6-0.6,3-1.7,4.1
	c-1.1,1.2-2.5,1.8-4.2,1.8c-1.6,0-3-0.6-4.1-1.8C349.6,189.4,349,188,349,186.4z M363.4,85.7c0-1.6,0.6-3,1.8-4.1
	c1.2-1.2,2.6-1.8,4.1-1.8c1.7,0,3.1,0.6,4.2,1.8c1.1,1.2,1.7,2.6,1.7,4.1c0,1.7-0.6,3.1-1.7,4.3c-1.1,1.2-2.5,1.8-4.2,1.8
	c-1.6,0-3-0.6-4.1-1.8C364,88.8,363.4,87.4,363.4,85.7z M363.4,100.2c0-1.7,0.6-3.1,1.8-4.3c1.2-1.2,2.6-1.8,4.1-1.8
	c1.7,0,3.1,0.6,4.2,1.8c1.1,1.2,1.7,2.6,1.7,4.3c0,1.6-0.6,3-1.7,4.1c-1.1,1.2-2.5,1.8-4.2,1.8c-1.6,0-3-0.6-4.1-1.8
	C364,103.2,363.4,101.8,363.4,100.2z M363.4,172.1c0-1.7,0.6-3.1,1.8-4.2c1.2-1.1,2.6-1.7,4.1-1.7c1.7,0,3.1,0.6,4.2,1.7
	c1.1,1.1,1.7,2.5,1.7,4.2c0,1.6-0.6,3-1.7,4.1c-1.1,1.2-2.5,1.8-4.2,1.8c-1.6,0-3-0.6-4.1-1.8C364,175,363.4,173.6,363.4,172.1z
	 M363.4,186.4c0-1.7,0.6-3.1,1.8-4.2c1.2-1.1,2.6-1.7,4.1-1.7c1.7,0,3.1,0.6,4.2,1.7c1.1,1.1,1.7,2.5,1.7,4.2c0,1.6-0.6,3-1.7,4.1
	c-1.1,1.2-2.5,1.8-4.2,1.8c-1.6,0-3-0.6-4.1-1.8C364,189.4,363.4,188,363.4,186.4z M377.7,85.7c0-1.6,0.6-3,1.8-4.1
	c1.2-1.2,2.6-1.8,4.1-1.8c1.7,0,3.1,0.6,4.2,1.8c1.1,1.2,1.7,2.6,1.7,4.1c0,1.7-0.6,3.1-1.7,4.3c-1.1,1.2-2.5,1.8-4.2,1.8
	c-1.6,0-3-0.6-4.1-1.8C378.3,88.8,377.7,87.4,377.7,85.7z M377.7,100.2c0-1.7,0.6-3.1,1.8-4.3c1.2-1.2,2.6-1.8,4.1-1.8
	c1.7,0,3.1,0.6,4.2,1.8c1.1,1.2,1.7,2.6,1.7,4.3c0,1.6-0.6,3-1.7,4.1c-1.1,1.2-2.5,1.8-4.2,1.8c-1.6,0-3-0.6-4.1-1.8
	C378.3,103.2,377.7,101.8,377.7,100.2z M377.7,143.3c0-1.7,0.6-3.1,1.8-4.2c1.2-1.1,2.6-1.7,4.1-1.7c1.7,0,3.1,0.6,4.2,1.7
	c1.1,1.1,1.7,2.5,1.7,4.2c0,1.6-0.6,3-1.7,4.1c-1.1,1.2-2.5,1.8-4.2,1.8c-1.6,0-3-0.6-4.1-1.8C378.3,146.3,377.7,144.9,377.7,143.3z
	 M377.7,172.1c0-1.7,0.6-3.1,1.8-4.2c1.2-1.1,2.6-1.7,4.1-1.7c1.7,0,3.1,0.6,4.2,1.7c1.1,1.1,1.7,2.5,1.7,4.2c0,1.6-0.6,3-1.7,4.1
	c-1.1,1.2-2.5,1.8-4.2,1.8c-1.6,0-3-0.6-4.1-1.8C378.3,175,377.7,173.6,377.7,172.1z M377.7,186.4c0-1.7,0.6-3.1,1.8-4.2
	c1.2-1.1,2.6-1.7,4.1-1.7c1.7,0,3.1,0.6,4.2,1.7c1.1,1.1,1.7,2.5,1.7,4.2c0,1.6-0.6,3-1.7,4.1c-1.1,1.2-2.5,1.8-4.2,1.8
	c-1.6,0-3-0.6-4.1-1.8C378.3,189.4,377.7,188,377.7,186.4z M392.1,85.7c0-1.6,0.6-3,1.8-4.1c1.2-1.2,2.6-1.8,4.1-1.8
	c1.7,0,3.1,0.6,4.2,1.8c1.1,1.2,1.7,2.6,1.7,4.1c0,1.7-0.6,3.1-1.7,4.3c-1.1,1.2-2.5,1.8-4.2,1.8c-1.6,0-3-0.6-4.1-1.8
	C392.7,88.8,392.1,87.4,392.1,85.7z M392.1,100.2c0-1.7,0.6-3.1,1.8-4.3c1.2-1.2,2.6-1.8,4.1-1.8c1.7,0,3.1,0.6,4.2,1.8
	c1.1,1.2,1.7,2.6,1.7,4.3c0,1.6-0.6,3-1.7,4.1c-1.1,1.2-2.5,1.8-4.2,1.8c-1.6,0-3-0.6-4.1-1.8C392.7,103.2,392.1,101.8,392.1,100.2z
	 M392.1,114.6c0-1.7,0.6-3.1,1.8-4.3c1.2-1.2,2.6-1.8,4.1-1.8c1.7,0,3.1,0.6,4.2,1.8c1.1,1.2,1.7,2.6,1.7,4.3c0,1.6-0.6,3-1.7,4.1
	c-1.1,1.2-2.5,1.8-4.2,1.8c-1.6,0-3-0.6-4.1-1.8C392.7,117.6,392.1,116.2,392.1,114.6z M392.1,143.3c0-1.7,0.6-3.1,1.8-4.2
	c1.2-1.1,2.6-1.7,4.1-1.7c1.7,0,3.1,0.6,4.2,1.7c1.1,1.1,1.7,2.5,1.7,4.2c0,1.6-0.6,3-1.7,4.1c-1.1,1.2-2.5,1.8-4.2,1.8
	c-1.6,0-3-0.6-4.1-1.8C392.7,146.3,392.1,144.9,392.1,143.3z M392.1,157.7c0-1.7,0.6-3.1,1.8-4.2c1.2-1.1,2.6-1.7,4.1-1.7
	c1.7,0,3.1,0.6,4.2,1.7c1.1,1.1,1.7,2.5,1.7,4.2c0,1.6-0.6,3-1.7,4.1c-1.1,1.2-2.5,1.8-4.2,1.8c-1.6,0-3-0.6-4.1-1.8
	C392.7,160.7,392.1,159.3,392.1,157.7z M392.1,172.1c0-1.7,0.6-3.1,1.8-4.2c1.2-1.1,2.6-1.7,4.1-1.7c1.7,0,3.1,0.6,4.2,1.7
	c1.1,1.1,1.7,2.5,1.7,4.2c0,1.6-0.6,3-1.7,4.1c-1.1,1.2-2.5,1.8-4.2,1.8c-1.6,0-3-0.6-4.1-1.8C392.7,175,392.1,173.6,392.1,172.1z
	 M392.1,186.4c0-1.7,0.6-3.1,1.8-4.2c1.2-1.1,2.6-1.7,4.1-1.7c1.7,0,3.1,0.6,4.2,1.7c1.1,1.1,1.7,2.5,1.7,4.2c0,1.6-0.6,3-1.7,4.1
	c-1.1,1.2-2.5,1.8-4.2,1.8c-1.6,0-3-0.6-4.1-1.8C392.7,189.4,392.1,188,392.1,186.4z M406.5,100.2c0-1.7,0.6-3.1,1.8-4.3
	c1.2-1.2,2.6-1.8,4.1-1.8c1.7,0,3.1,0.6,4.3,1.8c1.2,1.2,1.8,2.6,1.8,4.3c0,1.6-0.6,3-1.8,4.1c-1.2,1.2-2.6,1.8-4.3,1.8
	c-1.6,0-3-0.6-4.1-1.8C407,103.2,406.5,101.8,406.5,100.2z M406.5,114.6c0-1.7,0.6-3.1,1.8-4.3c1.2-1.2,2.6-1.8,4.1-1.8
	c1.7,0,3.1,0.6,4.3,1.8c1.2,1.2,1.8,2.6,1.8,4.3c0,1.6-0.6,3-1.8,4.1c-1.2,1.2-2.6,1.8-4.3,1.8c-1.6,0-3-0.6-4.1-1.8
	C407,117.6,406.5,116.2,406.5,114.6z M406.5,143.3c0-1.7,0.6-3.1,1.8-4.2c1.2-1.1,2.6-1.7,4.1-1.7c1.7,0,3.1,0.6,4.3,1.7
	c1.2,1.1,1.8,2.5,1.8,4.2c0,1.6-0.6,3-1.8,4.1c-1.2,1.2-2.6,1.8-4.3,1.8c-1.6,0-3-0.6-4.1-1.8C407,146.3,406.5,144.9,406.5,143.3z
	 M406.5,157.7c0-1.7,0.6-3.1,1.8-4.2c1.2-1.1,2.6-1.7,4.1-1.7c1.7,0,3.1,0.6,4.3,1.7c1.2,1.1,1.8,2.5,1.8,4.2c0,1.6-0.6,3-1.8,4.1
	c-1.2,1.2-2.6,1.8-4.3,1.8c-1.6,0-3-0.6-4.1-1.8C407,160.7,406.5,159.3,406.5,157.7z M406.5,172.1c0-1.7,0.6-3.1,1.8-4.2
	c1.2-1.1,2.6-1.7,4.1-1.7c1.7,0,3.1,0.6,4.3,1.7c1.2,1.1,1.8,2.5,1.8,4.2c0,1.6-0.6,3-1.8,4.1c-1.2,1.2-2.6,1.8-4.3,1.8
	c-1.6,0-3-0.6-4.1-1.8C407,175,406.5,173.6,406.5,172.1z M443,90.7c0-1.6,0.6-3,1.8-4.1c1.2-1.2,2.6-1.8,4.1-1.8
	c1.7,0,3.1,0.6,4.2,1.8c1.1,1.2,1.7,2.6,1.7,4.1c0,1.7-0.6,3.1-1.7,4.3c-1.1,1.2-2.5,1.8-4.2,1.8c-1.6,0-3-0.6-4.1-1.8
	C443.6,93.8,443,92.4,443,90.7z M443,105.2c0-1.7,0.6-3.1,1.8-4.3c1.2-1.2,2.6-1.8,4.1-1.8c1.7,0,3.1,0.6,4.2,1.8
	c1.1,1.2,1.7,2.6,1.7,4.3c0,1.6-0.6,3-1.7,4.1c-1.1,1.2-2.5,1.8-4.2,1.8c-1.6,0-3-0.6-4.1-1.8C443.6,108.2,443,106.8,443,105.2z
	 M457.4,90.7c0-1.6,0.6-3,1.8-4.1c1.2-1.2,2.6-1.8,4.1-1.8c1.7,0,3.1,0.6,4.2,1.8c1.1,1.2,1.7,2.6,1.7,4.1c0,1.7-0.6,3.1-1.7,4.3
	c-1.1,1.2-2.5,1.8-4.2,1.8c-1.6,0-3-0.6-4.1-1.8C458,93.8,457.4,92.4,457.4,90.7z M457.4,105.2c0-1.7,0.6-3.1,1.8-4.3
	c1.2-1.2,2.6-1.8,4.1-1.8c1.7,0,3.1,0.6,4.2,1.8c1.1,1.2,1.7,2.6,1.7,4.3c0,1.6-0.6,3-1.7,4.1c-1.1,1.2-2.5,1.8-4.2,1.8
	c-1.6,0-3-0.6-4.1-1.8C458,108.2,457.4,106.8,457.4,105.2z M471.7,90.7c0-1.6,0.6-3,1.8-4.1c1.2-1.2,2.6-1.8,4.1-1.8
	c1.7,0,3.1,0.6,4.2,1.8c1.1,1.2,1.7,2.6,1.7,4.1c0,1.7-0.6,3.1-1.7,4.3c-1.1,1.2-2.5,1.8-4.2,1.8c-1.6,0-3-0.6-4.1-1.8
	C472.3,93.8,471.7,92.4,471.7,90.7z M471.7,105.2c0-1.7,0.6-3.1,1.8-4.3c1.2-1.2,2.6-1.8,4.1-1.8c1.7,0,3.1,0.6,4.2,1.8
	c1.1,1.2,1.7,2.6,1.7,4.3c0,1.6-0.6,3-1.7,4.1c-1.1,1.2-2.5,1.8-4.2,1.8c-1.6,0-3-0.6-4.1-1.8C472.3,108.2,471.7,106.8,471.7,105.2z
	 M471.7,119.6c0-1.7,0.6-3.1,1.8-4.3c1.2-1.2,2.6-1.8,4.1-1.8c1.7,0,3.1,0.6,4.2,1.8c1.1,1.2,1.7,2.6,1.7,4.3c0,1.6-0.6,3-1.7,4.1
	c-1.1,1.2-2.5,1.8-4.2,1.8c-1.6,0-3-0.6-4.1-1.8C472.3,122.6,471.7,121.2,471.7,119.6z M471.7,134c0-1.7,0.6-3.1,1.8-4.3
	c1.2-1.2,2.6-1.8,4.1-1.8c1.7,0,3.1,0.6,4.2,1.8s1.7,2.6,1.7,4.3c0,1.6-0.6,3-1.7,4.1c-1.1,1.2-2.5,1.8-4.2,1.8
	c-1.6,0-3-0.6-4.1-1.8C472.3,136.9,471.7,135.6,471.7,134z M471.7,148.3c0-1.7,0.6-3.1,1.8-4.2c1.2-1.1,2.6-1.7,4.1-1.7
	c1.7,0,3.1,0.6,4.2,1.7c1.1,1.1,1.7,2.5,1.7,4.2c0,1.6-0.6,3-1.7,4.1c-1.1,1.2-2.5,1.8-4.2,1.8c-1.6,0-3-0.6-4.1-1.8
	C472.3,151.3,471.7,149.9,471.7,148.3z M471.7,162.7c0-1.7,0.6-3.1,1.8-4.2c1.2-1.1,2.6-1.7,4.1-1.7c1.7,0,3.1,0.6,4.2,1.7
	c1.1,1.1,1.7,2.5,1.7,4.2c0,1.6-0.6,3-1.7,4.1c-1.1,1.2-2.5,1.8-4.2,1.8c-1.6,0-3-0.6-4.1-1.8C472.3,165.7,471.7,164.3,471.7,162.7z
	 M471.7,177.1c0-1.7,0.6-3.1,1.8-4.2c1.2-1.1,2.6-1.7,4.1-1.7c1.7,0,3.1,0.6,4.2,1.7c1.1,1.1,1.7,2.5,1.7,4.2c0,1.6-0.6,3-1.7,4.1
	c-1.1,1.2-2.5,1.8-4.2,1.8c-1.6,0-3-0.6-4.1-1.8C472.3,180,471.7,178.6,471.7,177.1z M471.7,191.4c0-1.7,0.6-3.1,1.8-4.2
	c1.2-1.1,2.6-1.7,4.1-1.7c1.7,0,3.1,0.6,4.2,1.7c1.1,1.1,1.7,2.5,1.7,4.2c0,1.6-0.6,3-1.7,4.1c-1.1,1.2-2.5,1.8-4.2,1.8
	c-1.6,0-3-0.6-4.1-1.8C472.3,194.4,471.7,193,471.7,191.4z M486.1,90.7c0-1.6,0.6-3,1.8-4.1c1.2-1.2,2.6-1.8,4.1-1.8
	c1.7,0,3.1,0.6,4.2,1.8c1.1,1.2,1.7,2.6,1.7,4.1c0,1.7-0.6,3.1-1.7,4.3c-1.1,1.2-2.5,1.8-4.2,1.8c-1.6,0-3-0.6-4.1-1.8
	C486.7,93.8,486.1,92.4,486.1,90.7z M486.1,105.2c0-1.7,0.6-3.1,1.8-4.3c1.2-1.2,2.6-1.8,4.1-1.8c1.7,0,3.1,0.6,4.2,1.8
	c1.1,1.2,1.7,2.6,1.7,4.3c0,1.6-0.6,3-1.7,4.1c-1.1,1.2-2.5,1.8-4.2,1.8c-1.6,0-3-0.6-4.1-1.8C486.7,108.2,486.1,106.8,486.1,105.2z
	 M486.1,119.6c0-1.7,0.6-3.1,1.8-4.3c1.2-1.2,2.6-1.8,4.1-1.8c1.7,0,3.1,0.6,4.2,1.8c1.1,1.2,1.7,2.6,1.7,4.3c0,1.6-0.6,3-1.7,4.1
	c-1.1,1.2-2.5,1.8-4.2,1.8c-1.6,0-3-0.6-4.1-1.8C486.7,122.6,486.1,121.2,486.1,119.6z M486.1,134c0-1.7,0.6-3.1,1.8-4.3
	c1.2-1.2,2.6-1.8,4.1-1.8c1.7,0,3.1,0.6,4.2,1.8s1.7,2.6,1.7,4.3c0,1.6-0.6,3-1.7,4.1c-1.1,1.2-2.5,1.8-4.2,1.8
	c-1.6,0-3-0.6-4.1-1.8C486.7,136.9,486.1,135.6,486.1,134z M486.1,148.3c0-1.7,0.6-3.1,1.8-4.2c1.2-1.1,2.6-1.7,4.1-1.7
	c1.7,0,3.1,0.6,4.2,1.7c1.1,1.1,1.7,2.5,1.7,4.2c0,1.6-0.6,3-1.7,4.1c-1.1,1.2-2.5,1.8-4.2,1.8c-1.6,0-3-0.6-4.1-1.8
	C486.7,151.3,486.1,149.9,486.1,148.3z M486.1,162.7c0-1.7,0.6-3.1,1.8-4.2c1.2-1.1,2.6-1.7,4.1-1.7c1.7,0,3.1,0.6,4.2,1.7
	c1.1,1.1,1.7,2.5,1.7,4.2c0,1.6-0.6,3-1.7,4.1c-1.1,1.2-2.5,1.8-4.2,1.8c-1.6,0-3-0.6-4.1-1.8C486.7,165.7,486.1,164.3,486.1,162.7z
	 M486.1,177.1c0-1.7,0.6-3.1,1.8-4.2c1.2-1.1,2.6-1.7,4.1-1.7c1.7,0,3.1,0.6,4.2,1.7c1.1,1.1,1.7,2.5,1.7,4.2c0,1.6-0.6,3-1.7,4.1
	c-1.1,1.2-2.5,1.8-4.2,1.8c-1.6,0-3-0.6-4.1-1.8C486.7,180,486.1,178.6,486.1,177.1z M486.1,191.4c0-1.7,0.6-3.1,1.8-4.2
	c1.2-1.1,2.6-1.7,4.1-1.7c1.7,0,3.1,0.6,4.2,1.7c1.1,1.1,1.7,2.5,1.7,4.2c0,1.6-0.6,3-1.7,4.1c-1.1,1.2-2.5,1.8-4.2,1.8
	c-1.6,0-3-0.6-4.1-1.8C486.7,194.4,486.1,193,486.1,191.4z M500.4,90.7c0-1.6,0.6-3,1.8-4.1c1.2-1.2,2.6-1.8,4.1-1.8
	c1.7,0,3.1,0.6,4.2,1.8c1.1,1.2,1.7,2.6,1.7,4.1c0,1.7-0.6,3.1-1.7,4.3c-1.1,1.2-2.5,1.8-4.2,1.8c-1.6,0-3-0.6-4.1-1.8
	C501,93.8,500.4,92.4,500.4,90.7z M500.4,105.2c0-1.7,0.6-3.1,1.8-4.3c1.2-1.2,2.6-1.8,4.1-1.8c1.7,0,3.1,0.6,4.2,1.8
	c1.1,1.2,1.7,2.6,1.7,4.3c0,1.6-0.6,3-1.7,4.1c-1.1,1.2-2.5,1.8-4.2,1.8c-1.6,0-3-0.6-4.1-1.8C501,108.2,500.4,106.8,500.4,105.2z
	 M514.8,90.7c0-1.6,0.6-3,1.8-4.1c1.2-1.2,2.6-1.8,4.1-1.8c1.7,0,3.1,0.6,4.3,1.8s1.8,2.6,1.8,4.1c0,1.7-0.6,3.1-1.8,4.3
	c-1.2,1.2-2.6,1.8-4.3,1.8c-1.6,0-3-0.6-4.1-1.8C515.4,93.8,514.8,92.4,514.8,90.7z M514.8,105.2c0-1.7,0.6-3.1,1.8-4.3
	c1.2-1.2,2.6-1.8,4.1-1.8c1.7,0,3.1,0.6,4.3,1.8s1.8,2.6,1.8,4.3c0,1.6-0.6,3-1.8,4.1c-1.2,1.2-2.6,1.8-4.3,1.8
	c-1.6,0-3-0.6-4.1-1.8C515.4,108.2,514.8,106.8,514.8,105.2z M549.4,90.7c0-1.6,0.6-3,1.8-4.1c1.2-1.2,2.6-1.8,4.1-1.8
	c1.7,0,3.1,0.6,4.2,1.8c1.1,1.2,1.7,2.6,1.7,4.1c0,1.7-0.6,3.1-1.7,4.3c-1.1,1.2-2.5,1.8-4.2,1.8c-1.6,0-3-0.6-4.1-1.8
	C550,93.8,549.4,92.4,549.4,90.7z M549.4,105.2c0-1.7,0.6-3.1,1.8-4.3c1.2-1.2,2.6-1.8,4.1-1.8c1.7,0,3.1,0.6,4.2,1.8
	c1.1,1.2,1.7,2.6,1.7,4.3c0,1.6-0.6,3-1.7,4.1c-1.1,1.2-2.5,1.8-4.2,1.8c-1.6,0-3-0.6-4.1-1.8C550,108.2,549.4,106.8,549.4,105.2z
	 M549.4,119.6c0-1.7,0.6-3.1,1.8-4.3c1.2-1.2,2.6-1.8,4.1-1.8c1.7,0,3.1,0.6,4.2,1.8c1.1,1.2,1.7,2.6,1.7,4.3c0,1.6-0.6,3-1.7,4.1
	c-1.1,1.2-2.5,1.8-4.2,1.8c-1.6,0-3-0.6-4.1-1.8C550,122.6,549.4,121.2,549.4,119.6z M549.4,134c0-1.7,0.6-3.1,1.8-4.3
	s2.6-1.8,4.1-1.8c1.7,0,3.1,0.6,4.2,1.8c1.1,1.2,1.7,2.6,1.7,4.3c0,1.6-0.6,3-1.7,4.1c-1.1,1.2-2.5,1.8-4.2,1.8
	c-1.6,0-3-0.6-4.1-1.8C550,136.9,549.4,135.6,549.4,134z M549.4,148.3c0-1.7,0.6-3.1,1.8-4.2c1.2-1.1,2.6-1.7,4.1-1.7
	c1.7,0,3.1,0.6,4.2,1.7c1.1,1.1,1.7,2.5,1.7,4.2c0,1.6-0.6,3-1.7,4.1c-1.1,1.2-2.5,1.8-4.2,1.8c-1.6,0-3-0.6-4.1-1.8
	C550,151.3,549.4,149.9,549.4,148.3z M549.4,162.7c0-1.7,0.6-3.1,1.8-4.2c1.2-1.1,2.6-1.7,4.1-1.7c1.7,0,3.1,0.6,4.2,1.7
	c1.1,1.1,1.7,2.5,1.7,4.2c0,1.6-0.6,3-1.7,4.1c-1.1,1.2-2.5,1.8-4.2,1.8c-1.6,0-3-0.6-4.1-1.8C550,165.7,549.4,164.3,549.4,162.7z
	 M549.4,177.1c0-1.7,0.6-3.1,1.8-4.2c1.2-1.1,2.6-1.7,4.1-1.7c1.7,0,3.1,0.6,4.2,1.7c1.1,1.1,1.7,2.5,1.7,4.2c0,1.6-0.6,3-1.7,4.1
	c-1.1,1.2-2.5,1.8-4.2,1.8c-1.6,0-3-0.6-4.1-1.8C550,180,549.4,178.6,549.4,177.1z M549.4,191.4c0-1.7,0.6-3.1,1.8-4.2
	c1.2-1.1,2.6-1.7,4.1-1.7c1.7,0,3.1,0.6,4.2,1.7c1.1,1.1,1.7,2.5,1.7,4.2c0,1.6-0.6,3-1.7,4.1c-1.1,1.2-2.5,1.8-4.2,1.8
	c-1.6,0-3-0.6-4.1-1.8C550,194.4,549.4,193,549.4,191.4z M563.8,90.7c0-1.6,0.6-3,1.8-4.1c1.2-1.2,2.6-1.8,4.1-1.8
	c1.7,0,3.1,0.6,4.2,1.8c1.1,1.2,1.7,2.6,1.7,4.1c0,1.7-0.6,3.1-1.7,4.3c-1.1,1.2-2.5,1.8-4.2,1.8c-1.6,0-3-0.6-4.1-1.8
	C564.4,93.8,563.8,92.4,563.8,90.7z M563.8,105.2c0-1.7,0.6-3.1,1.8-4.3c1.2-1.2,2.6-1.8,4.1-1.8c1.7,0,3.1,0.6,4.2,1.8
	c1.1,1.2,1.7,2.6,1.7,4.3c0,1.6-0.6,3-1.7,4.1c-1.1,1.2-2.5,1.8-4.2,1.8c-1.6,0-3-0.6-4.1-1.8C564.4,108.2,563.8,106.8,563.8,105.2z
	 M563.8,119.6c0-1.7,0.6-3.1,1.8-4.3c1.2-1.2,2.6-1.8,4.1-1.8c1.7,0,3.1,0.6,4.2,1.8c1.1,1.2,1.7,2.6,1.7,4.3c0,1.6-0.6,3-1.7,4.1
	c-1.1,1.2-2.5,1.8-4.2,1.8c-1.6,0-3-0.6-4.1-1.8C564.4,122.6,563.8,121.2,563.8,119.6z M563.8,134c0-1.7,0.6-3.1,1.8-4.3
	s2.6-1.8,4.1-1.8c1.7,0,3.1,0.6,4.2,1.8c1.1,1.2,1.7,2.6,1.7,4.3c0,1.6-0.6,3-1.7,4.1c-1.1,1.2-2.5,1.8-4.2,1.8
	c-1.6,0-3-0.6-4.1-1.8C564.4,136.9,563.8,135.6,563.8,134z M563.8,148.3c0-1.7,0.6-3.1,1.8-4.2c1.2-1.1,2.6-1.7,4.1-1.7
	c1.7,0,3.1,0.6,4.2,1.7c1.1,1.1,1.7,2.5,1.7,4.2c0,1.6-0.6,3-1.7,4.1c-1.1,1.2-2.5,1.8-4.2,1.8c-1.6,0-3-0.6-4.1-1.8
	C564.4,151.3,563.8,149.9,563.8,148.3z M563.8,162.7c0-1.7,0.6-3.1,1.8-4.2c1.2-1.1,2.6-1.7,4.1-1.7c1.7,0,3.1,0.6,4.2,1.7
	c1.1,1.1,1.7,2.5,1.7,4.2c0,1.6-0.6,3-1.7,4.1c-1.1,1.2-2.5,1.8-4.2,1.8c-1.6,0-3-0.6-4.1-1.8C564.4,165.7,563.8,164.3,563.8,162.7z
	 M563.8,177.1c0-1.7,0.6-3.1,1.8-4.2c1.2-1.1,2.6-1.7,4.1-1.7c1.7,0,3.1,0.6,4.2,1.7c1.1,1.1,1.7,2.5,1.7,4.2c0,1.6-0.6,3-1.7,4.1
	c-1.1,1.2-2.5,1.8-4.2,1.8c-1.6,0-3-0.6-4.1-1.8C564.4,180,563.8,178.6,563.8,177.1z M563.8,191.4c0-1.7,0.6-3.1,1.8-4.2
	c1.2-1.1,2.6-1.7,4.1-1.7c1.7,0,3.1,0.6,4.2,1.7c1.1,1.1,1.7,2.5,1.7,4.2c0,1.6-0.6,3-1.7,4.1c-1.1,1.2-2.5,1.8-4.2,1.8
	c-1.6,0-3-0.6-4.1-1.8C564.4,194.4,563.8,193,563.8,191.4z M598.3,90.7c0-1.6,0.6-3,1.8-4.1c1.2-1.2,2.6-1.8,4.1-1.8
	c1.7,0,3.1,0.6,4.2,1.8c1.1,1.2,1.7,2.6,1.7,4.1c0,1.7-0.6,3.1-1.7,4.3c-1.1,1.2-2.5,1.8-4.2,1.8c-1.6,0-3-0.6-4.1-1.8
	C598.9,93.8,598.3,92.4,598.3,90.7z M598.3,105.2c0-1.7,0.6-3.1,1.8-4.3c1.2-1.2,2.6-1.8,4.1-1.8c1.7,0,3.1,0.6,4.2,1.8
	c1.1,1.2,1.7,2.6,1.7,4.3c0,1.6-0.6,3-1.7,4.1c-1.1,1.2-2.5,1.8-4.2,1.8c-1.6,0-3-0.6-4.1-1.8C598.9,108.2,598.3,106.8,598.3,105.2z
	 M598.3,119.6c0-1.7,0.6-3.1,1.8-4.3c1.2-1.2,2.6-1.8,4.1-1.8c1.7,0,3.1,0.6,4.2,1.8c1.1,1.2,1.7,2.6,1.7,4.3c0,1.6-0.6,3-1.7,4.1
	c-1.1,1.2-2.5,1.8-4.2,1.8c-1.6,0-3-0.6-4.1-1.8C598.9,122.6,598.3,121.2,598.3,119.6z M598.3,134c0-1.7,0.6-3.1,1.8-4.3
	s2.6-1.8,4.1-1.8c1.7,0,3.1,0.6,4.2,1.8c1.1,1.2,1.7,2.6,1.7,4.3c0,1.6-0.6,3-1.7,4.1c-1.1,1.2-2.5,1.8-4.2,1.8
	c-1.6,0-3-0.6-4.1-1.8C598.9,136.9,598.3,135.6,598.3,134z M598.3,148.3c0-1.7,0.6-3.1,1.8-4.2c1.2-1.1,2.6-1.7,4.1-1.7
	c1.7,0,3.1,0.6,4.2,1.7c1.1,1.1,1.7,2.5,1.7,4.2c0,1.6-0.6,3-1.7,4.1c-1.1,1.2-2.5,1.8-4.2,1.8c-1.6,0-3-0.6-4.1-1.8
	C598.9,151.3,598.3,149.9,598.3,148.3z M598.3,162.7c0-1.7,0.6-3.1,1.8-4.2c1.2-1.1,2.6-1.7,4.1-1.7c1.7,0,3.1,0.6,4.2,1.7
	c1.1,1.1,1.7,2.5,1.7,4.2c0,1.6-0.6,3-1.7,4.1c-1.1,1.2-2.5,1.8-4.2,1.8c-1.6,0-3-0.6-4.1-1.8C598.9,165.7,598.3,164.3,598.3,162.7z
	 M598.3,177.1c0-1.7,0.6-3.1,1.8-4.2c1.2-1.1,2.6-1.7,4.1-1.7c1.7,0,3.1,0.6,4.2,1.7c1.1,1.1,1.7,2.5,1.7,4.2c0,1.6-0.6,3-1.7,4.1
	c-1.1,1.2-2.5,1.8-4.2,1.8c-1.6,0-3-0.6-4.1-1.8C598.9,180,598.3,178.6,598.3,177.1z M598.3,191.4c0-1.7,0.6-3.1,1.8-4.2
	c1.2-1.1,2.6-1.7,4.1-1.7c1.7,0,3.1,0.6,4.2,1.7c1.1,1.1,1.7,2.5,1.7,4.2c0,1.6-0.6,3-1.7,4.1c-1.1,1.2-2.5,1.8-4.2,1.8
	c-1.6,0-3-0.6-4.1-1.8C598.9,194.4,598.3,193,598.3,191.4z M612.6,90.7c0-1.6,0.6-3,1.8-4.1c1.2-1.2,2.6-1.8,4.1-1.8
	c1.7,0,3.1,0.6,4.2,1.8c1.1,1.2,1.7,2.6,1.7,4.1c0,1.7-0.6,3.1-1.7,4.3c-1.1,1.2-2.5,1.8-4.2,1.8c-1.6,0-3-0.6-4.1-1.8
	C613.2,93.8,612.6,92.4,612.6,90.7z M612.6,105.2c0-1.7,0.6-3.1,1.8-4.3c1.2-1.2,2.6-1.8,4.1-1.8c1.7,0,3.1,0.6,4.2,1.8
	c1.1,1.2,1.7,2.6,1.7,4.3c0,1.6-0.6,3-1.7,4.1c-1.1,1.2-2.5,1.8-4.2,1.8c-1.6,0-3-0.6-4.1-1.8C613.2,108.2,612.6,106.8,612.6,105.2z
	 M612.6,119.6c0-1.7,0.6-3.1,1.8-4.3c1.2-1.2,2.6-1.8,4.1-1.8c1.7,0,3.1,0.6,4.2,1.8c1.1,1.2,1.7,2.6,1.7,4.3c0,1.6-0.6,3-1.7,4.1
	c-1.1,1.2-2.5,1.8-4.2,1.8c-1.6,0-3-0.6-4.1-1.8C613.2,122.6,612.6,121.2,612.6,119.6z M612.6,134c0-1.7,0.6-3.1,1.8-4.3
	s2.6-1.8,4.1-1.8c1.7,0,3.1,0.6,4.2,1.8c1.1,1.2,1.7,2.6,1.7,4.3c0,1.6-0.6,3-1.7,4.1c-1.1,1.2-2.5,1.8-4.2,1.8
	c-1.6,0-3-0.6-4.1-1.8C613.2,136.9,612.6,135.6,612.6,134z M612.6,148.3c0-1.7,0.6-3.1,1.8-4.2c1.2-1.1,2.6-1.7,4.1-1.7
	c1.7,0,3.1,0.6,4.2,1.7c1.1,1.1,1.7,2.5,1.7,4.2c0,1.6-0.6,3-1.7,4.1c-1.1,1.2-2.5,1.8-4.2,1.8c-1.6,0-3-0.6-4.1-1.8
	C613.2,151.3,612.6,149.9,612.6,148.3z M612.6,162.7c0-1.7,0.6-3.1,1.8-4.2c1.2-1.1,2.6-1.7,4.1-1.7c1.7,0,3.1,0.6,4.2,1.7
	c1.1,1.1,1.7,2.5,1.7,4.2c0,1.6-0.6,3-1.7,4.1c-1.1,1.2-2.5,1.8-4.2,1.8c-1.6,0-3-0.6-4.1-1.8C613.2,165.7,612.6,164.3,612.6,162.7z
	 M612.6,177.1c0-1.7,0.6-3.1,1.8-4.2c1.2-1.1,2.6-1.7,4.1-1.7c1.7,0,3.1,0.6,4.2,1.7c1.1,1.1,1.7,2.5,1.7,4.2c0,1.6-0.6,3-1.7,4.1
	c-1.1,1.2-2.5,1.8-4.2,1.8c-1.6,0-3-0.6-4.1-1.8C613.2,180,612.6,178.6,612.6,177.1z M612.6,191.4c0-1.7,0.6-3.1,1.8-4.2
	c1.2-1.1,2.6-1.7,4.1-1.7c1.7,0,3.1,0.6,4.2,1.7c1.1,1.1,1.7,2.5,1.7,4.2c0,1.6-0.6,3-1.7,4.1c-1.1,1.2-2.5,1.8-4.2,1.8
	c-1.6,0-3-0.6-4.1-1.8C613.2,194.4,612.6,193,612.6,191.4z M627,105.2c0-1.7,0.6-3.1,1.8-4.3c1.2-1.2,2.6-1.8,4.1-1.8
	c1.7,0,3.1,0.6,4.2,1.8c1.1,1.2,1.7,2.6,1.7,4.3c0,1.6-0.6,3-1.7,4.1c-1.1,1.2-2.5,1.8-4.2,1.8c-1.6,0-3-0.6-4.1-1.8
	C627.6,108.2,627,106.8,627,105.2z M627,119.6c0-1.7,0.6-3.1,1.8-4.3c1.2-1.2,2.6-1.8,4.1-1.8c1.7,0,3.1,0.6,4.2,1.8
	c1.1,1.2,1.7,2.6,1.7,4.3c0,1.6-0.6,3-1.7,4.1c-1.1,1.2-2.5,1.8-4.2,1.8c-1.6,0-3-0.6-4.1-1.8C627.6,122.6,627,121.2,627,119.6z
	 M641.4,119.6c0-1.7,0.6-3.1,1.8-4.3c1.2-1.2,2.6-1.8,4.1-1.8c1.7,0,3.1,0.6,4.2,1.8c1.1,1.2,1.7,2.6,1.7,4.3c0,1.6-0.6,3-1.7,4.1
	c-1.1,1.2-2.5,1.8-4.2,1.8c-1.6,0-3-0.6-4.1-1.8S641.4,121.2,641.4,119.6z M641.4,134c0-1.7,0.6-3.1,1.8-4.3s2.6-1.8,4.1-1.8
	c1.7,0,3.1,0.6,4.2,1.8c1.1,1.2,1.7,2.6,1.7,4.3c0,1.6-0.6,3-1.7,4.1c-1.1,1.2-2.5,1.8-4.2,1.8c-1.6,0-3-0.6-4.1-1.8
	S641.4,135.6,641.4,134z M655.7,119.6c0-1.7,0.6-3.1,1.8-4.3c1.2-1.2,2.6-1.8,4.1-1.8c1.7,0,3.1,0.6,4.2,1.8
	c1.1,1.2,1.7,2.6,1.7,4.3c0,1.6-0.6,3-1.7,4.1c-1.1,1.2-2.5,1.8-4.2,1.8c-1.6,0-3-0.6-4.1-1.8S655.7,121.2,655.7,119.6z M655.7,134
	c0-1.7,0.6-3.1,1.8-4.3s2.6-1.8,4.1-1.8c1.7,0,3.1,0.6,4.2,1.8c1.1,1.2,1.7,2.6,1.7,4.3c0,1.6-0.6,3-1.7,4.1
	c-1.1,1.2-2.5,1.8-4.2,1.8c-1.6,0-3-0.6-4.1-1.8S655.7,135.6,655.7,134z M670.1,105.2c0-1.7,0.6-3.1,1.8-4.3
	c1.2-1.2,2.6-1.8,4.1-1.8c1.7,0,3.1,0.6,4.3,1.8s1.8,2.6,1.8,4.3c0,1.6-0.6,3-1.8,4.1c-1.2,1.2-2.6,1.8-4.3,1.8
	c-1.6,0-3-0.6-4.1-1.8C670.7,108.2,670.1,106.8,670.1,105.2z M670.1,119.6c0-1.7,0.6-3.1,1.8-4.3c1.2-1.2,2.6-1.8,4.1-1.8
	c1.7,0,3.1,0.6,4.3,1.8c1.2,1.2,1.8,2.6,1.8,4.3c0,1.6-0.6,3-1.8,4.1s-2.6,1.8-4.3,1.8c-1.6,0-3-0.6-4.1-1.8
	C670.7,122.6,670.1,121.2,670.1,119.6z M684.5,90.7c0-1.6,0.6-3,1.8-4.1c1.2-1.2,2.6-1.8,4.1-1.8c1.7,0,3.1,0.6,4.3,1.8
	s1.8,2.6,1.8,4.1c0,1.7-0.6,3.1-1.8,4.3c-1.2,1.2-2.6,1.8-4.3,1.8c-1.6,0-3-0.6-4.1-1.8C685,93.8,684.5,92.4,684.5,90.7z
	 M684.5,105.2c0-1.7,0.6-3.1,1.8-4.3c1.2-1.2,2.6-1.8,4.1-1.8c1.7,0,3.1,0.6,4.3,1.8s1.8,2.6,1.8,4.3c0,1.6-0.6,3-1.8,4.1
	c-1.2,1.2-2.6,1.8-4.3,1.8c-1.6,0-3-0.6-4.1-1.8C685,108.2,684.5,106.8,684.5,105.2z M684.5,119.6c0-1.7,0.6-3.1,1.8-4.3
	c1.2-1.2,2.6-1.8,4.1-1.8c1.7,0,3.1,0.6,4.3,1.8c1.2,1.2,1.8,2.6,1.8,4.3c0,1.6-0.6,3-1.8,4.1s-2.6,1.8-4.3,1.8
	c-1.6,0-3-0.6-4.1-1.8C685,122.6,684.5,121.2,684.5,119.6z M684.5,134c0-1.7,0.6-3.1,1.8-4.3s2.6-1.8,4.1-1.8c1.7,0,3.1,0.6,4.3,1.8
	s1.8,2.6,1.8,4.3c0,1.6-0.6,3-1.8,4.1s-2.6,1.8-4.3,1.8c-1.6,0-3-0.6-4.1-1.8C685,136.9,684.5,135.6,684.5,134z M684.5,148.3
	c0-1.7,0.6-3.1,1.8-4.2c1.2-1.1,2.6-1.7,4.1-1.7c1.7,0,3.1,0.6,4.3,1.7c1.2,1.1,1.8,2.5,1.8,4.2c0,1.6-0.6,3-1.8,4.1
	s-2.6,1.8-4.3,1.8c-1.6,0-3-0.6-4.1-1.8C685,151.3,684.5,149.9,684.5,148.3z M684.5,162.7c0-1.7,0.6-3.1,1.8-4.2
	c1.2-1.1,2.6-1.7,4.1-1.7c1.7,0,3.1,0.6,4.3,1.7c1.2,1.1,1.8,2.5,1.8,4.2c0,1.6-0.6,3-1.8,4.1c-1.2,1.2-2.6,1.8-4.3,1.8
	c-1.6,0-3-0.6-4.1-1.8C685,165.7,684.5,164.3,684.5,162.7z M684.5,177.1c0-1.7,0.6-3.1,1.8-4.2c1.2-1.1,2.6-1.7,4.1-1.7
	c1.7,0,3.1,0.6,4.3,1.7c1.2,1.1,1.8,2.5,1.8,4.2c0,1.6-0.6,3-1.8,4.1c-1.2,1.2-2.6,1.8-4.3,1.8c-1.6,0-3-0.6-4.1-1.8
	C685,180,684.5,178.6,684.5,177.1z M684.5,191.4c0-1.7,0.6-3.1,1.8-4.2c1.2-1.1,2.6-1.7,4.1-1.7c1.7,0,3.1,0.6,4.3,1.7
	c1.2,1.1,1.8,2.5,1.8,4.2c0,1.6-0.6,3-1.8,4.1s-2.6,1.8-4.3,1.8c-1.6,0-3-0.6-4.1-1.8C685,194.4,684.5,193,684.5,191.4z M698.8,90.7
	c0-1.6,0.6-3,1.8-4.1c1.2-1.2,2.6-1.8,4.1-1.8c1.7,0,3.1,0.6,4.3,1.8c1.2,1.2,1.8,2.6,1.8,4.1c0,1.7-0.6,3.1-1.8,4.3
	c-1.2,1.2-2.6,1.8-4.3,1.8c-1.6,0-3-0.6-4.1-1.8C699.4,93.8,698.8,92.4,698.8,90.7z M698.8,105.2c0-1.7,0.6-3.1,1.8-4.3
	c1.2-1.2,2.6-1.8,4.1-1.8c1.7,0,3.1,0.6,4.3,1.8c1.2,1.2,1.8,2.6,1.8,4.3c0,1.6-0.6,3-1.8,4.1c-1.2,1.2-2.6,1.8-4.3,1.8
	c-1.6,0-3-0.6-4.1-1.8C699.4,108.2,698.8,106.8,698.8,105.2z M698.8,119.6c0-1.7,0.6-3.1,1.8-4.3c1.2-1.2,2.6-1.8,4.1-1.8
	c1.7,0,3.1,0.6,4.3,1.8c1.2,1.2,1.8,2.6,1.8,4.3c0,1.6-0.6,3-1.8,4.1c-1.2,1.2-2.6,1.8-4.3,1.8c-1.6,0-3-0.6-4.1-1.8
	C699.4,122.6,698.8,121.2,698.8,119.6z M698.8,134c0-1.7,0.6-3.1,1.8-4.3s2.6-1.8,4.1-1.8c1.7,0,3.1,0.6,4.3,1.8s1.8,2.6,1.8,4.3
	c0,1.6-0.6,3-1.8,4.1c-1.2,1.2-2.6,1.8-4.3,1.8c-1.6,0-3-0.6-4.1-1.8C699.4,136.9,698.8,135.6,698.8,134z M698.8,148.3
	c0-1.7,0.6-3.1,1.8-4.2c1.2-1.1,2.6-1.7,4.1-1.7c1.7,0,3.1,0.6,4.3,1.7c1.2,1.1,1.8,2.5,1.8,4.2c0,1.6-0.6,3-1.8,4.1
	c-1.2,1.2-2.6,1.8-4.3,1.8c-1.6,0-3-0.6-4.1-1.8C699.4,151.3,698.8,149.9,698.8,148.3z M698.8,162.7c0-1.7,0.6-3.1,1.8-4.2
	c1.2-1.1,2.6-1.7,4.1-1.7c1.7,0,3.1,0.6,4.3,1.7c1.2,1.1,1.8,2.5,1.8,4.2c0,1.6-0.6,3-1.8,4.1c-1.2,1.2-2.6,1.8-4.3,1.8
	c-1.6,0-3-0.6-4.1-1.8C699.4,165.7,698.8,164.3,698.8,162.7z M698.8,177.1c0-1.7,0.6-3.1,1.8-4.2c1.2-1.1,2.6-1.7,4.1-1.7
	c1.7,0,3.1,0.6,4.3,1.7c1.2,1.1,1.8,2.5,1.8,4.2c0,1.6-0.6,3-1.8,4.1c-1.2,1.2-2.6,1.8-4.3,1.8c-1.6,0-3-0.6-4.1-1.8
	C699.4,180,698.8,178.6,698.8,177.1z M698.8,191.4c0-1.7,0.6-3.1,1.8-4.2c1.2-1.1,2.6-1.7,4.1-1.7c1.7,0,3.1,0.6,4.3,1.7
	c1.2,1.1,1.8,2.5,1.8,4.2c0,1.6-0.6,3-1.8,4.1c-1.2,1.2-2.6,1.8-4.3,1.8c-1.6,0-3-0.6-4.1-1.8C699.4,194.4,698.8,193,698.8,191.4z
	 M733.5,90.7c0-1.6,0.6-3,1.8-4.1c1.2-1.2,2.6-1.8,4.1-1.8c1.7,0,3.1,0.6,4.2,1.8c1.1,1.2,1.7,2.6,1.7,4.1c0,1.7-0.6,3.1-1.7,4.3
	c-1.1,1.2-2.5,1.8-4.2,1.8c-1.6,0-3-0.6-4.1-1.8C734,93.8,733.5,92.4,733.5,90.7z M733.5,105.2c0-1.7,0.6-3.1,1.8-4.3
	c1.2-1.2,2.6-1.8,4.1-1.8c1.7,0,3.1,0.6,4.2,1.8c1.1,1.2,1.7,2.6,1.7,4.3c0,1.6-0.6,3-1.7,4.1c-1.1,1.2-2.5,1.8-4.2,1.8
	c-1.6,0-3-0.6-4.1-1.8C734,108.2,733.5,106.8,733.5,105.2z M733.5,119.6c0-1.7,0.6-3.1,1.8-4.3c1.2-1.2,2.6-1.8,4.1-1.8
	c1.7,0,3.1,0.6,4.2,1.8c1.1,1.2,1.7,2.6,1.7,4.3c0,1.6-0.6,3-1.7,4.1c-1.1,1.2-2.5,1.8-4.2,1.8c-1.6,0-3-0.6-4.1-1.8
	C734,122.6,733.5,121.2,733.5,119.6z M733.5,134c0-1.7,0.6-3.1,1.8-4.3s2.6-1.8,4.1-1.8c1.7,0,3.1,0.6,4.2,1.8
	c1.1,1.2,1.7,2.6,1.7,4.3c0,1.6-0.6,3-1.7,4.1c-1.1,1.2-2.5,1.8-4.2,1.8c-1.6,0-3-0.6-4.1-1.8C734,136.9,733.5,135.6,733.5,134z
	 M733.5,148.3c0-1.7,0.6-3.1,1.8-4.2c1.2-1.1,2.6-1.7,4.1-1.7c1.7,0,3.1,0.6,4.2,1.7c1.1,1.1,1.7,2.5,1.7,4.2c0,1.6-0.6,3-1.7,4.1
	c-1.1,1.2-2.5,1.8-4.2,1.8c-1.6,0-3-0.6-4.1-1.8C734,151.3,733.5,149.9,733.5,148.3z M733.5,162.7c0-1.7,0.6-3.1,1.8-4.2
	c1.2-1.1,2.6-1.7,4.1-1.7c1.7,0,3.1,0.6,4.2,1.7c1.1,1.1,1.7,2.5,1.7,4.2c0,1.6-0.6,3-1.7,4.1c-1.1,1.2-2.5,1.8-4.2,1.8
	c-1.6,0-3-0.6-4.1-1.8C734,165.7,733.5,164.3,733.5,162.7z M733.5,177.1c0-1.7,0.6-3.1,1.8-4.2c1.2-1.1,2.6-1.7,4.1-1.7
	c1.7,0,3.1,0.6,4.2,1.7c1.1,1.1,1.7,2.5,1.7,4.2c0,1.6-0.6,3-1.7,4.1c-1.1,1.2-2.5,1.8-4.2,1.8c-1.6,0-3-0.6-4.1-1.8
	C734,180,733.5,178.6,733.5,177.1z M733.5,191.4c0-1.7,0.6-3.1,1.8-4.2c1.2-1.1,2.6-1.7,4.1-1.7c1.7,0,3.1,0.6,4.2,1.7
	c1.1,1.1,1.7,2.5,1.7,4.2c0,1.6-0.6,3-1.7,4.1c-1.1,1.2-2.5,1.8-4.2,1.8c-1.6,0-3-0.6-4.1-1.8C734,194.4,733.5,193,733.5,191.4z
	 M747.8,90.7c0-1.6,0.6-3,1.8-4.1s2.6-1.8,4.1-1.8c1.7,0,3.1,0.6,4.2,1.8c1.1,1.2,1.7,2.6,1.7,4.1c0,1.7-0.6,3.1-1.7,4.3
	c-1.1,1.2-2.5,1.8-4.2,1.8c-1.6,0-3-0.6-4.1-1.8C748.4,93.8,747.8,92.4,747.8,90.7z M747.8,105.2c0-1.7,0.6-3.1,1.8-4.3
	s2.6-1.8,4.1-1.8c1.7,0,3.1,0.6,4.2,1.8c1.1,1.2,1.7,2.6,1.7,4.3c0,1.6-0.6,3-1.7,4.1c-1.1,1.2-2.5,1.8-4.2,1.8
	c-1.6,0-3-0.6-4.1-1.8C748.4,108.2,747.8,106.8,747.8,105.2z M747.8,119.6c0-1.7,0.6-3.1,1.8-4.3c1.2-1.2,2.6-1.8,4.1-1.8
	c1.7,0,3.1,0.6,4.2,1.8c1.1,1.2,1.7,2.6,1.7,4.3c0,1.6-0.6,3-1.7,4.1c-1.1,1.2-2.5,1.8-4.2,1.8c-1.6,0-3-0.6-4.1-1.8
	S747.8,121.2,747.8,119.6z M747.8,134c0-1.7,0.6-3.1,1.8-4.3s2.6-1.8,4.1-1.8c1.7,0,3.1,0.6,4.2,1.8c1.1,1.2,1.7,2.6,1.7,4.3
	c0,1.6-0.6,3-1.7,4.1c-1.1,1.2-2.5,1.8-4.2,1.8c-1.6,0-3-0.6-4.1-1.8S747.8,135.6,747.8,134z M747.8,148.3c0-1.7,0.6-3.1,1.8-4.2
	c1.2-1.1,2.6-1.7,4.1-1.7c1.7,0,3.1,0.6,4.2,1.7c1.1,1.1,1.7,2.5,1.7,4.2c0,1.6-0.6,3-1.7,4.1c-1.1,1.2-2.5,1.8-4.2,1.8
	c-1.6,0-3-0.6-4.1-1.8S747.8,149.9,747.8,148.3z M747.8,162.7c0-1.7,0.6-3.1,1.8-4.2c1.2-1.1,2.6-1.7,4.1-1.7c1.7,0,3.1,0.6,4.2,1.7
	c1.1,1.1,1.7,2.5,1.7,4.2c0,1.6-0.6,3-1.7,4.1c-1.1,1.2-2.5,1.8-4.2,1.8c-1.6,0-3-0.6-4.1-1.8C748.4,165.7,747.8,164.3,747.8,162.7z
	 M747.8,177.1c0-1.7,0.6-3.1,1.8-4.2c1.2-1.1,2.6-1.7,4.1-1.7c1.7,0,3.1,0.6,4.2,1.7c1.1,1.1,1.7,2.5,1.7,4.2c0,1.6-0.6,3-1.7,4.1
	c-1.1,1.2-2.5,1.8-4.2,1.8c-1.6,0-3-0.6-4.1-1.8C748.4,180,747.8,178.6,747.8,177.1z M747.8,191.4c0-1.7,0.6-3.1,1.8-4.2
	c1.2-1.1,2.6-1.7,4.1-1.7c1.7,0,3.1,0.6,4.2,1.7c1.1,1.1,1.7,2.5,1.7,4.2c0,1.6-0.6,3-1.7,4.1c-1.1,1.2-2.5,1.8-4.2,1.8
	c-1.6,0-3-0.6-4.1-1.8S747.8,193,747.8,191.4z M762.2,90.7c0-1.6,0.6-3,1.8-4.1c1.2-1.2,2.6-1.8,4.1-1.8c1.7,0,3.1,0.6,4.2,1.8
	c1.1,1.2,1.7,2.6,1.7,4.1c0,1.7-0.6,3.1-1.7,4.3c-1.1,1.2-2.5,1.8-4.2,1.8c-1.6,0-3-0.6-4.1-1.8C762.8,93.8,762.2,92.4,762.2,90.7z
	 M762.2,105.2c0-1.7,0.6-3.1,1.8-4.3c1.2-1.2,2.6-1.8,4.1-1.8c1.7,0,3.1,0.6,4.2,1.8c1.1,1.2,1.7,2.6,1.7,4.3c0,1.6-0.6,3-1.7,4.1
	c-1.1,1.2-2.5,1.8-4.2,1.8c-1.6,0-3-0.6-4.1-1.8C762.8,108.2,762.2,106.8,762.2,105.2z M762.2,134c0-1.7,0.6-3.1,1.8-4.3
	s2.6-1.8,4.1-1.8c1.7,0,3.1,0.6,4.2,1.8c1.1,1.2,1.7,2.6,1.7,4.3c0,1.6-0.6,3-1.7,4.1c-1.1,1.2-2.5,1.8-4.2,1.8
	c-1.6,0-3-0.6-4.1-1.8C762.8,136.9,762.2,135.6,762.2,134z M762.2,148.3c0-1.7,0.6-3.1,1.8-4.2c1.2-1.1,2.6-1.7,4.1-1.7
	c1.7,0,3.1,0.6,4.2,1.7c1.1,1.1,1.7,2.5,1.7,4.2c0,1.6-0.6,3-1.7,4.1c-1.1,1.2-2.5,1.8-4.2,1.8c-1.6,0-3-0.6-4.1-1.8
	C762.8,151.3,762.2,149.9,762.2,148.3z M762.2,177.1c0-1.7,0.6-3.1,1.8-4.2c1.2-1.1,2.6-1.7,4.1-1.7c1.7,0,3.1,0.6,4.2,1.7
	c1.1,1.1,1.7,2.5,1.7,4.2c0,1.6-0.6,3-1.7,4.1c-1.1,1.2-2.5,1.8-4.2,1.8c-1.6,0-3-0.6-4.1-1.8C762.8,180,762.2,178.6,762.2,177.1z
	 M762.2,191.4c0-1.7,0.6-3.1,1.8-4.2c1.2-1.1,2.6-1.7,4.1-1.7c1.7,0,3.1,0.6,4.2,1.7c1.1,1.1,1.7,2.5,1.7,4.2c0,1.6-0.6,3-1.7,4.1
	c-1.1,1.2-2.5,1.8-4.2,1.8c-1.6,0-3-0.6-4.1-1.8C762.8,194.4,762.2,193,762.2,191.4z M776.5,90.7c0-1.6,0.6-3,1.8-4.1
	c1.2-1.2,2.6-1.8,4.1-1.8c1.7,0,3.1,0.6,4.2,1.8c1.1,1.2,1.7,2.6,1.7,4.1c0,1.7-0.6,3.1-1.7,4.3c-1.1,1.2-2.5,1.8-4.2,1.8
	c-1.6,0-3-0.6-4.1-1.8C777.1,93.8,776.5,92.4,776.5,90.7z M776.5,105.2c0-1.7,0.6-3.1,1.8-4.3c1.2-1.2,2.6-1.8,4.1-1.8
	c1.7,0,3.1,0.6,4.2,1.8c1.1,1.2,1.7,2.6,1.7,4.3c0,1.6-0.6,3-1.7,4.1c-1.1,1.2-2.5,1.8-4.2,1.8c-1.6,0-3-0.6-4.1-1.8
	C777.1,108.2,776.5,106.8,776.5,105.2z M776.5,134c0-1.7,0.6-3.1,1.8-4.3s2.6-1.8,4.1-1.8c1.7,0,3.1,0.6,4.2,1.8
	c1.1,1.2,1.7,2.6,1.7,4.3c0,1.6-0.6,3-1.7,4.1c-1.1,1.2-2.5,1.8-4.2,1.8c-1.6,0-3-0.6-4.1-1.8C777.1,136.9,776.5,135.6,776.5,134z
	 M776.5,148.3c0-1.7,0.6-3.1,1.8-4.2c1.2-1.1,2.6-1.7,4.1-1.7c1.7,0,3.1,0.6,4.2,1.7c1.1,1.1,1.7,2.5,1.7,4.2c0,1.6-0.6,3-1.7,4.1
	c-1.1,1.2-2.5,1.8-4.2,1.8c-1.6,0-3-0.6-4.1-1.8C777.1,151.3,776.5,149.9,776.5,148.3z M776.5,177.1c0-1.7,0.6-3.1,1.8-4.2
	c1.2-1.1,2.6-1.7,4.1-1.7c1.7,0,3.1,0.6,4.2,1.7c1.1,1.1,1.7,2.5,1.7,4.2c0,1.6-0.6,3-1.7,4.1c-1.1,1.2-2.5,1.8-4.2,1.8
	c-1.6,0-3-0.6-4.1-1.8C777.1,180,776.5,178.6,776.5,177.1z M776.5,191.4c0-1.7,0.6-3.1,1.8-4.2c1.2-1.1,2.6-1.7,4.1-1.7
	c1.7,0,3.1,0.6,4.2,1.7c1.1,1.1,1.7,2.5,1.7,4.2c0,1.6-0.6,3-1.7,4.1c-1.1,1.2-2.5,1.8-4.2,1.8c-1.6,0-3-0.6-4.1-1.8
	C777.1,194.4,776.5,193,776.5,191.4z M790.9,90.7c0-1.6,0.6-3,1.8-4.1c1.2-1.2,2.6-1.8,4.1-1.8c1.7,0,3.1,0.6,4.2,1.8
	c1.1,1.2,1.7,2.6,1.7,4.1c0,1.7-0.6,3.1-1.7,4.3c-1.1,1.2-2.5,1.8-4.2,1.8c-1.6,0-3-0.6-4.1-1.8C791.5,93.8,790.9,92.4,790.9,90.7z
	 M790.9,105.2c0-1.7,0.6-3.1,1.8-4.3c1.2-1.2,2.6-1.8,4.1-1.8c1.7,0,3.1,0.6,4.2,1.8c1.1,1.2,1.7,2.6,1.7,4.3c0,1.6-0.6,3-1.7,4.1
	c-1.1,1.2-2.5,1.8-4.2,1.8c-1.6,0-3-0.6-4.1-1.8C791.5,108.2,790.9,106.8,790.9,105.2z M790.9,134c0-1.7,0.6-3.1,1.8-4.3
	s2.6-1.8,4.1-1.8c1.7,0,3.1,0.6,4.2,1.8c1.1,1.2,1.7,2.6,1.7,4.3c0,1.6-0.6,3-1.7,4.1c-1.1,1.2-2.5,1.8-4.2,1.8
	c-1.6,0-3-0.6-4.1-1.8C791.5,136.9,790.9,135.6,790.9,134z M790.9,148.3c0-1.7,0.6-3.1,1.8-4.2c1.2-1.1,2.6-1.7,4.1-1.7
	c1.7,0,3.1,0.6,4.2,1.7c1.1,1.1,1.7,2.5,1.7,4.2c0,1.6-0.6,3-1.7,4.1c-1.1,1.2-2.5,1.8-4.2,1.8c-1.6,0-3-0.6-4.1-1.8
	C791.5,151.3,790.9,149.9,790.9,148.3z M790.9,177.1c0-1.7,0.6-3.1,1.8-4.2c1.2-1.1,2.6-1.7,4.1-1.7c1.7,0,3.1,0.6,4.2,1.7
	c1.1,1.1,1.7,2.5,1.7,4.2c0,1.6-0.6,3-1.7,4.1c-1.1,1.2-2.5,1.8-4.2,1.8c-1.6,0-3-0.6-4.1-1.8C791.5,180,790.9,178.6,790.9,177.1z
	 M790.9,191.4c0-1.7,0.6-3.1,1.8-4.2c1.2-1.1,2.6-1.7,4.1-1.7c1.7,0,3.1,0.6,4.2,1.7c1.1,1.1,1.7,2.5,1.7,4.2c0,1.6-0.6,3-1.7,4.1
	c-1.1,1.2-2.5,1.8-4.2,1.8c-1.6,0-3-0.6-4.1-1.8C791.5,194.4,790.9,193,790.9,191.4z M805.3,90.7c0-1.6,0.6-3,1.8-4.1
	c1.2-1.2,2.6-1.8,4.1-1.8c1.7,0,3.1,0.6,4.3,1.8c1.2,1.2,1.8,2.6,1.8,4.1c0,1.7-0.6,3.1-1.8,4.3c-1.2,1.2-2.6,1.8-4.3,1.8
	c-1.6,0-3-0.6-4.1-1.8C805.9,93.8,805.3,92.4,805.3,90.7z M805.3,105.2c0-1.7,0.6-3.1,1.8-4.3c1.2-1.2,2.6-1.8,4.1-1.8
	c1.7,0,3.1,0.6,4.3,1.8c1.2,1.2,1.8,2.6,1.8,4.3c0,1.6-0.6,3-1.8,4.1c-1.2,1.2-2.6,1.8-4.3,1.8c-1.6,0-3-0.6-4.1-1.8
	C805.9,108.2,805.3,106.8,805.3,105.2z M805.3,134c0-1.7,0.6-3.1,1.8-4.3s2.6-1.8,4.1-1.8c1.7,0,3.1,0.6,4.3,1.8s1.8,2.6,1.8,4.3
	c0,1.6-0.6,3-1.8,4.1c-1.2,1.2-2.6,1.8-4.3,1.8c-1.6,0-3-0.6-4.1-1.8C805.9,136.9,805.3,135.6,805.3,134z M805.3,148.3
	c0-1.7,0.6-3.1,1.8-4.2c1.2-1.1,2.6-1.7,4.1-1.7c1.7,0,3.1,0.6,4.3,1.7c1.2,1.1,1.8,2.5,1.8,4.2c0,1.6-0.6,3-1.8,4.1
	c-1.2,1.2-2.6,1.8-4.3,1.8c-1.6,0-3-0.6-4.1-1.8C805.9,151.3,805.3,149.9,805.3,148.3z M805.3,177.1c0-1.7,0.6-3.1,1.8-4.2
	c1.2-1.1,2.6-1.7,4.1-1.7c1.7,0,3.1,0.6,4.3,1.7c1.2,1.1,1.8,2.5,1.8,4.2c0,1.6-0.6,3-1.8,4.1c-1.2,1.2-2.6,1.8-4.3,1.8
	c-1.6,0-3-0.6-4.1-1.8C805.9,180,805.3,178.6,805.3,177.1z M805.3,191.4c0-1.7,0.6-3.1,1.8-4.2c1.2-1.1,2.6-1.7,4.1-1.7
	c1.7,0,3.1,0.6,4.3,1.7c1.2,1.1,1.8,2.5,1.8,4.2c0,1.6-0.6,3-1.8,4.1c-1.2,1.2-2.6,1.8-4.3,1.8c-1.6,0-3-0.6-4.1-1.8
	C805.9,194.4,805.3,193,805.3,191.4z"/>
<path id="side-push" d="M78.3,193.8C53.8,193.8,39,181,39,159.6v-6.5h28.1v5.8c0,5.8,3.6,9.9,9.7,9.9s9-3.4,9-9.7
	c0-7.4-8.8-12.6-18.8-18.9c-12.8-7.9-27.2-17.6-27.2-35.3c0-18.7,13.3-37,39.3-37c21.3,0,35.9,15.3,35.9,34v5H86.9v-5.6
	c0-5.2-3.4-8.5-7.8-8.5c-4.1,0-8.5,2.9-8.5,8.7c0,7.4,8.8,12.4,18.8,18.7c12.8,8.1,27.4,18,27.4,36.4
	C116.8,175.6,103.1,193.8,78.3,193.8z M129,190.7l-0.1-120h32.3l0.1,120H129z M216.1,190.7h-40.6l-0.1-120H216
	c24.2,0,39.3,16,39.3,36.7v49.4C255.4,177.5,240.3,190.6,216.1,190.7z M223.1,106.7c0-6.7-2.9-10.5-9.4-10.4h-5.9v68.9h5.9
	c6.5,0,9.4-3.8,9.4-10.5V106.7z M268.8,190.6l-0.1-120h68.7v26.1H301v21.1h23.6v22.7H301v22.4h36.4v27.8L268.8,190.6z M404.3,148.4
	h-14.1v42.2h-32.3l-0.1-120h46.3c16.9,0,29.6,10.8,29.6,28.8v20.2C433.8,137.5,421.2,148.3,404.3,148.4z M403.7,100.8
	c0-4.3-2.2-5.9-5.6-5.9h-7.9v31.4h7.9c3.4,0,5.6-1.8,5.6-6V100.8z M482.9,193.5c-22.5,0-39.7-14.8-39.7-32.8l-0.1-90.3h32.6
	l0.1,90.1c0,4,3.4,6.3,7,6.3c4,0,7.4-2.3,7.4-6.3l-0.1-90.1h31.2l0.1,90.3C521.4,178.7,505.8,193.5,482.9,193.5z M570,193.5
	c-24.5,0-39.3-12.8-39.3-34.2v-6.5h28.1v5.8c0,5.8,3.6,9.9,9.7,9.9c6.1,0,9-3.4,9-9.7c0-7.4-8.8-12.6-18.8-18.9
	c-12.8-7.9-27.2-17.6-27.2-35.3c0-18.7,13.3-37,39.3-37c21.3,0,35.9,15.3,35.9,34v5h-28.1V101c0-5.2-3.4-8.5-7.8-8.5
	c-4.1,0-8.5,2.9-8.5,8.7c0,7.4,8.8,12.4,18.8,18.7c12.8,8.1,27.4,18,27.4,36.4C608.6,175.3,594.9,193.5,570,193.5z M669.4,190.4v-44
	h-19.1v44H618l-0.1-120h32.3v48.7h19.1V70.4h32.3l0.1,120H669.4z"/>
<path id="top-and-tail" d="M44.8,85.6l3.2,43.2l14.6-2.3l-0.6-8.7l11.4-1.1l2.3,58l-10.1,0.7l1.9,19.8l37.5-3.4l-0.4-20.5l-8.1,0.4
	l-3.6-63.5l9.9-0.7l1,11.4l13.9-1.9l-1.4-40L44.8,85.6z M180.8,102.2c-0.6-11.2-2.7-19-6.2-23.3c-4.5-5.4-12.8-7.9-25.1-7.6
	c-10.8,0.2-18.4,2.9-22.7,7.9s-6.2,12.7-5.5,23l4,59.3c0.7,11,3,18.3,6.9,22c4.5,4.4,12.9,5.9,25.2,4.5c10.5-1.1,17.8-4.3,21.8-9.4
	c3.6-4.6,5.1-11.7,4.6-21.3L180.8,102.2z M162,142.7c0.3,7.7-2.4,11.5-8,11.2c-3.7-0.2-6.4-0.9-8.1-2.1c-2.2-1.6-3.4-4.3-3.5-8.2
	l-0.8-27.9c-0.1-4.5,0.4-7.5,1.5-9.1c1.2-1.6,3.9-2.7,8.1-3.2c3.2-0.4,5.7,0.4,7.3,2.5c1.6,2,2.5,5.2,2.6,9.5L162,142.7z M242,70.9
	c-5-3.3-12.6-4.7-22.9-4.2c-2.9,0.2-6,0.4-9.2,0.8l-27.5,3.7l3,29.7l9.8-0.4l2.6,59.9l-9.6,0.3l2,27.7l39-3.8l-0.5-28.3L218,156
	l-1.8-14.4c0.6,0,2.7-0.4,6.5-1.2s5.8-1.2,6.2-1.3c15.2-1.8,22.6-9.3,22.1-22.3L249.8,88C249.6,80,247,74.3,242,70.9z M228.5,115.8
	c0.1,6.6-2.5,10.1-7.9,10.4l-4.4,0.2l-2.4-26.5l5.4-1c1.3-0.3,2.5-0.5,3.4-0.5c3.8-0.2,5.7,2.2,5.8,7.1L228.5,115.8z M386.8,111.8
	c-0.6-7.2-2.7-11.8-6.2-13.9c-3.6-2.1-10.4-3.1-20.5-2.9l-14,0.2l0.2,3.9l-17.4,2.5l1.2,15.6l4.9,0.4l0.9,29.3l-16.3-47.7l-20.4,0.4
	l2,18.6l3.9,0.3l2.2,34.6l-2.9,0.3l-0.2-4.4l-3.5,0.2l-7.7-35.8l4-0.2l-0.5-15.5l-33.3-0.4l1.4,16.1l4-0.2l-4.1,43.4l-3.7,0.2
	l0.1,14l22.4-2l-1.2-13.1l-4.4,0.2l0.7-14.7l9.8-0.5l1.5,9.2l-4.4,0.2l1.9,13.6h15l0.8,7.7l19-1l-0.3-20.4l-5.1-0.1l-1.9-35.3
	l17.6,51l13.4-1.7l-1.9-47.4l4.9,0.4l-0.1-4.2l3.2,0.2l1.4,29.8l-5.2-0.1l-0.1,23.6l16.6,0.1c9.8,0,16.5-1.4,20.1-4.3
	c3.6-2.9,5.1-8,4.5-15.2L386.8,111.8z M369.3,137l-7.1,0.5l-1.3-29.4h6.6c2.8,0.1,4.6,0.4,5.4,1.1c0.8,0.6,1.2,2.1,1.3,4.5l1.1,17.1
	C375.6,134.6,373.5,136.7,369.3,137L369.3,137z M279.7,132.4l2.4-15.8l4.6,15.4L279.7,132.4z M399.5,89.2l3.2,43.2l14.6-2.3
	l-0.6-8.7l11.4-1.1l2.3,58l-10.1,0.7l1.9,19.8l37.5-3.4l-0.4-20.5l-8.1,0.4l-3.6-63.5l9.9-0.7l1,11.4l13.9-1.9l-1.4-40L399.5,89.2z
	 M553,169.8l-6.1,0.3l-14.6-70.9l6.7-0.4l-0.4-27l-55.2,6.7l1.9,25.5l6.7-0.4l-6.2,60.7l-5.9,0.3l1.3,24.2l29.4-2.9l0.6-23l-7.2,0.4
	l0.9-15.4l16.5-0.9l3.7,24.1l-7.2,0.4l0.3,21.9l37.3-0.7L553,169.8z M506.3,133.4l4.5-26.4l7,25.8L506.3,133.4z M555.6,71.7
	l3.6,29.6l6.8,0.1l2,50l-10,1.7l3.8,33l37.4-4.5l-0.2-25.8l-10.6,1.4l-1.6-55.2l8.1-0.4l0.2-33.7L555.6,71.7z M649.7,129.8l0.8,18.8
	l-19.8,1.9l-4-55.6l12.1-2l-0.4-28.8L599,67.7l2.6,32.4l7-0.9l2.6,57.7l-8.1,0.4l2.2,28.2l62.2-2.2l-1.8-55.9L649.7,129.8z"/>
</svg>
