<?xml version="1.0" encoding="utf-8"?>
<!-- Generator: Adobe Illustrator 21.1.0, SVG Export Plug-In . SVG Version: 6.00 Build 0)  -->
<svg version="1.1" id="metric-icons" xmlns="http://www.w3.org/2000/svg" xmlns:xlink="http://www.w3.org/1999/xlink" x="0px"
	 y="0px" viewBox="0 0 980 300" style="enable-background:new 0 0 980 300;" xml:space="preserve">
<style type="text/css">
	.st0{display:none;}
	.st1{fill:#010101;}
</style>
<path id="not-used1" class="st0" d="M619.4-134c3.7,5.2,7,10.8,10.2,16.3c0.5,0.9,1.2,1.5,2.2,1.4s1.5-0.7,1.9-1.6
	c2.6-6.7,5.6-13.2,9-19.5c6.7-12.7,15-24.4,25-34.8c2.8-2.8,5.7-5.6,8.6-8.4c0.9-0.9,1.8-1.7,2.4-2.8c1.2-1.9,0.5-3.9-1.7-4.6
	c-1.3-0.4-2.6-0.3-4,0.1c-2.2,0.7-4.1,1.9-6,3.2c-4.5,3.1-8.7,6.9-12.6,10.6c-8.7,8.3-16.7,17.1-24.5,26.2c-0.4,0.4-0.6,0.4-1,0.2
	c-4-2-7.9-4-12.1-5.5c-2.1-0.8-4.3-1.5-6.6-1.5c-0.2,0-0.4,0-0.6,0c-2.2,0.1-3.7,1.3-4.2,3.2c-0.2,1.1-0.1,2,0.9,2.9
	C611.2-144.2,615.6-139.3,619.4-134z M733.1-96c-0.8,0-2.1-2.6-2.1-3.5V-203c0-0.8,1.3-1,2.1-1H756v-24.5
	c0-14.3-10.3-24.5-24.7-24.5H552.5c-14.3,0-27.5,10.2-27.5,24.5v24.5h23.8c0.8,0,1.2,0.2,1.2,1v103.5c0,0.8-0.4,3.5-1.2,3.5H525
	v22.1c0,14.3,13.2,26.9,27.5,26.9h178.8c14.3,0,24.7-12.6,24.7-26.9V-96H733.1z M698-98.5c0,0.8-0.7,1.5-1.5,1.5h-111
	c-0.8,0-1.5-0.7-1.5-1.5v-104c0-0.8,0.7-1.5,1.5-1.5h111c0.8,0,1.5,0.7,1.5,1.5V-98.5z M568.2-220.3h-16.6v-16.5h16.6V-220.3z
	 M608.9-220.3h-16.6v-16.5h16.6V-220.3z M649.7-220.3h-16.6v-16.5h16.6V-220.3z M690.4-220.3h-16.6v-16.5h16.6V-220.3z M731.1-220.3
	h-16.6v-16.5h16.6V-220.3z M568.2-66.5h-16.6v-16.6h16.6V-66.5z M608.9-66.5h-16.6v-16.6h16.6V-66.5z M649.7-66.5h-16.6v-16.6h16.6
	V-66.5z M690.4-66.5h-16.6v-16.6h16.6V-66.5z M731.1-66.5h-16.6v-16.6h16.6V-66.5z"/>
<g id="ctr">
	<path d="M91.7,177c8.3,8.9,16.4,16.2,23.2,14.9c4.7-0.9,4.6-6.4,4.6-6.4s-2.3-84,0-123.5c0.7-12.7,21.2-11.4,22.7-1.4
		c1.8,12.7,5,77.2,5,77.2s6.4-0.9,9.6-1.4c3.2-0.5,7.3,0.9,7.3,0.9s58.5,16,63.1,20.5s2.7,7.4,2.7,7.4s1.8,49.8,0,60.8
		S212,255.1,212,255.1H111.1c0,0-22.8-25.6-35-48.3s-12.1-39.5-3.3-41.1C81.6,164.3,88.2,173.2,91.7,177z M211.2,265.5H110.8V286
		h100.4L211.2,265.5L211.2,265.5z M154.9,106.5c0,0,25.8-13.6,25.8-42.9s-17-53.3-51.7-53.3S76.2,33.2,76.2,63.5s33,46.1,33,46.1
		l0.5-53.2c0,0,1.5-12,20.8-12s21,12.9,21,12.9l2.7,49.3L154.9,106.5z"/>
</g>
<g id="viewability">
	<path d="M148.7,62.8C61.6,62.8,14.5,150,14.5,150s42.7,87.2,134.2,87.2c89,0,130.8-87.2,130.8-87.2S235.9,62.8,148.7,62.8z
		 M148.7,211.9c-34.2,0-61.9-27.7-61.9-61.9s27.7-61.9,61.9-61.9s61.9,27.7,61.9,61.9S182.9,211.9,148.7,211.9z M148.7,187
		c-20.5,0-37-16.6-37-37s16.6-37,37-37s37,16.6,37,37S169.2,187,148.7,187z"/>
</g>
<g id="time-in-view">
	<path d="M148.5,66.2c-59.1,0-107,47.9-107,107s47.9,107,107,107s107-47.9,107-107S207.6,66.2,148.5,66.2z M144.5,174V92.8
		c0,0,2.4-0.1,3.3-0.1c44.4,0,80.8,36.3,80.8,80.7c0,0.1,0.4,0.6,0.4,0.6H144.5z M199.3,68.2l7.3-8.9c3.2-4,9.1-4.5,13.1-1.3
		l17.6,14.4c4,3.2,4.5,9.1,1.3,13.1l-5.8,7.1C223.2,82.6,211.9,74.3,199.3,68.2z M180.4,34c0,7.1-5.8,13-13,13h-7.9v12h-27V47h-5.7
		c-7.1,0-13-5.9-13-13s5.8-13,13-13h40.6C174.6,21,180.4,26.9,180.4,34z"/>
</g>
<g id="replay-rate">
	<path d="M254.6,127.8c0,5-4.1,9.1-9.1,9.1h-63.4c-3.7,0-6.9-2.3-8.4-5.7c-1.4-3.3-0.7-7.2,2-9.8l19.5-19.5
		c-13.3-12.3-30.9-19.4-49.4-19.4c-39.9,0-72.5,32.6-72.5,72.5s32.6,72.5,72.5,72.5c22.5,0,43.3-10.2,57.2-28.2c0.7-1,2-1.6,3.3-1.7
		c1.3,0,2.5,0.4,3.5,1.3l19.4,19.5c1.7,1.6,1.7,4.2,0.3,6.1c-20.7,24.9-51.2,39.2-83.7,39.2c-59.9,0-108.7-48.8-108.7-108.7
		S86,46.3,145.9,46.3c27.9,0,54.9,11.2,74.9,30L239.2,58c2.5-2.7,6.5-3.4,9.9-2c3.3,1.4,5.5,4.7,5.5,8.4L254.6,127.8L254.6,127.8z"
		/>
</g>
<g id="impressions-old">
	<path d="M81.1,185.4H62.9l6.2-22.7c1.7-1.4,4.1-2.1,6.5-2.1h15.5h32.6V121c0-4.8-2.6-9.7-5.6-15.4c-4.1-7.7-8.7-16.4-8.7-28.1
		c0-21.4,17.4-38.8,38.8-38.8S187,56.1,187,77.5c0,11.7-4.6,20.4-8.7,28.1c-3,5.7-5.6,10.6-5.6,15.3v39.5h32.8H221
		c2.5,0,4.8,0.8,6.5,2.1l6.2,22.7h-18.2H81.1V185.4z M248.1,196.8H48.5c-7.6,0-13.9,6.2-13.9,13.9v27.4c0,7.6,6.2,13.9,13.9,13.9
		h199.6c7.6,0,13.9-6.2,13.9-13.9v-27.4C262,203,255.7,196.8,248.1,196.8z"/>
</g>
<g id="hot">
	<path d="M180.4,20.7c0,0,12.4,99.3-24.8,99.3S93.5,70.3,93.5,70.3S31.4,120,43.8,194.4s74.5,86.9,111.7,86.9s99.3-37.2,99.3-111.7
		S180.4,20.7,180.4,20.7z M198.4,209.4c-14.9,27.5-70.8,42.4-86.9,15.8c-16.2-26.8,9.9-54,41.6-62.4c31.6-8.4,46.5-29.8,46.5-29.8
		S223.9,162.3,198.4,209.4z"/>
</g>
<g id="clicks">
	<polygon points="215.9,221.8 168.1,158.1 210.6,140 81.1,65.2 80.8,65.4 110.8,211.9 141.2,177 186.6,242.7 	"/>
</g>
<g id="impressions">
	<path d="M224.5,44.7c0-9.2-7.4-16.7-16.5-16.7H89c-9.1,0-16.5,7.5-16.5,16.7v210.5c0,9.2,7.4,16.7,16.5,16.7h119.1
		c9.1,0,16.5-7.5,16.5-16.7V44.7H224.5z M115.4,47h66.2c1.1,0,2.1,1.3,2.1,2.5s-0.9,2.5-2.1,2.5h-66.2c-1.1,0-2.1-1.3-2.1-2.5
		C113.3,48.3,114.2,47,115.4,47z M148.5,261.6c-6.6,0-12-5.4-12-12s5.4-12,12-12s12,5.4,12,12S155.1,261.6,148.5,261.6z M207.5,225
		h-119V66h119V225z M202.5,72h-109v82h109V72z M148.5,118h-11v9h-8v-9h-8v-8h8v-10h8v10h11V118z M173.5,131h-8v-29.1
		c-2,0.7-2.7,1.4-4.1,2c-1.4,0.6-2.9,1.2-4.2,1.6l-2.6-6.5c1.1-0.4,2.2-1,3.4-1.5c1.2-0.6,2.3-1.2,3.4-1.9c1.1-0.7,2.2-1.4,3.2-2.2
		c1-0.8,1.9-1.1,2.8-2.5h6.1L173.5,131L173.5,131z"/>
</g>
<g id="completion-rate">
	<path d="M257.7,150c0,60.2-49,109.2-109.2,109.2S39.3,210.2,39.3,150c0-23.7,7.5-46.2,21.6-65.2l0.2,0.2c2-2.7,5.2-4.4,8.9-4.4
		c6.1,0,11.1,5,11.1,11.1c0,3.2-1.4,6.2-3.6,8.2c-10.4,14.7-16,32-16,50.2c0,47.9,39,86.9,86.9,86.9s86.9-39,86.9-86.9
		s-39-86.9-86.9-86.9c-20.3,0-40,7.1-55.6,20.1L78.8,66c19.5-16.3,44.3-25.2,69.8-25.2C208.8,40.8,257.7,89.8,257.7,150z
		 M120.7,175.1c5.1,7.2,9.6,14.8,13.9,22.4c0.7,1.2,1.6,2,3,1.9s2.1-1,2.6-2.2c3.6-9.2,7.7-18.1,12.3-26.8
		c9.2-17.4,20.4-33.5,34.1-47.7c3.8-3.9,7.8-7.7,11.7-11.5c1.2-1.2,2.4-2.4,3.3-3.8c1.7-2.6,0.7-5.3-2.3-6.3
		c-1.8-0.6-3.6-0.4-5.4,0.2c-3,1-5.6,2.6-8.2,4.4c-6.2,4.3-11.8,9.4-17.2,14.6c-11.8,11.4-22.8,23.4-33.4,35.9
		c-0.5,0.6-0.8,0.6-1.4,0.3c-5.4-2.8-10.8-5.5-16.5-7.6c-2.9-1.1-5.8-2-9-2c-0.3,0-0.6,0-0.8,0c-3,0.1-5.1,1.8-5.7,4.4
		c-0.3,1.5-0.1,2.8,1.2,4C109.6,161.1,115.5,167.8,120.7,175.1z"/>
</g>
<g id="video-completions">
	<path d="M257.7,150c0,60.2-49,109.2-109.2,109.2S39.3,210.2,39.3,150c0-23.7,7.5-46.2,21.6-65.2l0.2,0.2c2-2.7,5.2-4.4,8.9-4.4
		c6.1,0,11.1,5,11.1,11.1c0,3.2-1.4,6.2-3.6,8.2c-10.4,14.7-16,32-16,50.2c0,47.9,39,86.9,86.9,86.9s86.9-39,86.9-86.9
		s-39-86.9-86.9-86.9c-20.3,0-40,7.1-55.6,20.1L78.8,66c19.5-16.3,44.3-25.2,69.8-25.2C208.8,40.8,257.7,89.8,257.7,150z M125.2,200
		l69.6-51l-69.6-51C125.2,98,125.2,200,125.2,200z"/>
</g>
<g id="engagement-rate">
	<path id="_x3C_Compound_Path_x3E_" d="M91.7,178c8.3,8.9,16.4,16.2,23.2,14.9c4.7-0.9,4.6-6.4,4.6-6.4s-2.3-84,0-123.5
		c0.7-12.7,21.2-11.4,22.7-1.4c1.8,12.7,5,77.2,5,77.2s6.4-0.9,9.6-1.4c3.2-0.5,7.3,0.9,7.3,0.9s58.5,16,63.1,20.5s2.7,7.4,2.7,7.4
		s1.8,49.8,0,60.8S212,256.1,212,256.1H111.1c0,0-22.8-25.6-35-48.3s-12.1-39.5-3.3-41.1C81.6,165.3,88.2,174.2,91.7,178z
		 M211.2,266.5H110.8V287h100.4L211.2,266.5L211.2,266.5z M154.6,63.9l52.2-8.6l-33.6-40.9L154.6,63.9z M106.5,114l-29-29l-29,29
		l29,29L106.5,114z M207.5,78.7c-14,0-25.4,11.4-25.4,25.4s11.4,25.4,25.4,25.4s25.4-11.4,25.4-25.4S221.5,78.7,207.5,78.7z"/>
</g>
<g id="expand-rate">
	<polygon points="123.2,38.8 37.2,38.8 37.2,124.9 65.7,96.4 98.2,129 127.4,99.8 94.8,67.3 	"/>
	<polygon points="37,175.1 37,261.2 123,261.2 94.6,232.7 127.1,200.2 98,171 65.4,203.6 	"/>
	<polygon points="173.8,38.4 259.8,38.4 259.8,124.4 231.3,96 198.8,128.5 169.6,99.4 202.2,66.8 	"/>
	<polygon points="260,175.6 260,261.6 174,261.6 202.4,233.2 169.9,200.6 199,171.5 231.6,204 	"/>
</g>
<g id="full-view">
	<path d="M148.7,62.8C61.6,62.8,14.5,150,14.5,150s42.7,87.2,134.2,87.2c89,0,130.8-87.2,130.8-87.2S235.9,62.8,148.7,62.8z
		 M148.7,211.9c-34.2,0-61.9-27.7-61.9-61.9s27.7-61.9,61.9-61.9s61.9,27.7,61.9,61.9S182.9,211.9,148.7,211.9z M123,170.9
		c4.1,5.4,11.3,14.5,14.8,20.2c0.6,0.9,1.3,1.5,2.4,1.4c1.1-0.1,1.7-0.8,2.1-1.7c2.9-6.9,8.5-17.9,12.2-24.5
		c7.4-13.1,16.5-25.2,27.5-35.9c3.1-2.9,6.3-5.8,9.4-8.7c1-0.9,1.9-1.8,2.7-2.9c1.4-2-2.9-4-5.3-4.7c-1.5-0.5-5.2-0.3-6.6,0.2
		c-2.4,0.8-4.5,2-6.6,3.3c-5,3.2-9.5,7.1-13.9,11c-9.5,8.6-16.1,17.6-24.7,27c-0.4,0.5-0.6,0.5-1.1,0.2c-4.4-2.1-16.7-9.5-21.3-11.1
		c-2.3-0.8-4.7-1.5-7.3-1.5c-0.2,0-0.5,0-0.6,0c-2.4,0.1-4.1,1.4-4.6,3.3c-0.2,1.1-0.1,2.1,1,3C108.5,154.1,118.8,165.4,123,170.9z"
		/>
</g>
<path id="dismissal-rate" class="st1" d="M147,22.1c-69.6,0-126,56.4-126,126s56.4,126,126,126s126-56.4,126-126
	S216.6,22.1,147,22.1z M204.6,197l-9.8,9.8L147,157.9l-47.8,48.9l-9.8-9.8l47.8-48.9L89.4,99.2l9.8-9.8l47.8,48.9l47.8-48.9l9.8,9.8
	l-48,48.9L204.6,197z"/>
<path id="logo" d="M52.3,79.9H19.7c-2,0-2.9,1-2.9,3.3v103.3c0,2.2,0.8,3.3,2.9,3.3h9.8c2.2,0,2.9-1,2.9-3.3V149h20
	c27.7,0,36.7-11.6,36.7-24.8V105C88.9,91.5,80.2,79.9,52.3,79.9z M73.2,121.3c0,8.8-6.5,14.1-21,14.1h-20V93.2h20
	c14.5,0,21,5.3,21,14.1V121.3z M166.1,176.1h-41.3V83c0-2.2-0.8-3.3-2.9-3.3h-9.8c-2.2,0-3.1,1-3.1,3.3v103.3c0,2,0.8,3.3,2.6,3.3
	h54.6c2,0,3.1-0.8,3.1-3.1v-7.3C169.2,176.9,168.1,176.1,166.1,176.1z M230.9,83c-0.6-2-1.8-3.1-3.9-3.1h-19.3c-2,0-3.3,1-3.9,3.1
	l-26.7,103.5c-0.6,2,0.2,3.1,2.2,3.1h65.6h10.2c2.2,0,3.1-1.2,2.4-3.1L230.9,83z M332.7,79.9h-9.8c-1.8,0-2.6,1.4-3.5,3.1
	l-21.6,42.6c-1.2,2-2.6,6.9-2.6,7.3c-0.2-0.6-1.6-5.1-2.6-7.3L272.4,83c-1-2-1.6-3.1-3.7-3.1h-11.2c-2.2,0-3.3,1.2-2.2,3.1l32,64.8
	v38.7c0,2,0.8,3.1,3.1,3.1h9.8c2,0,2.9-1,2.9-3.1V146l31.6-63.1C336,80.8,334.9,79.9,332.7,79.9z M382.6,78.5
	c-27.7,0-35.6,11.6-35.6,24.8v62.5c0,13.2,7.9,24.8,35.6,24.8s35.6-11.6,35.6-24.8v-28.3c0-2-1-2.9-3.1-2.9h-31.4
	c-2,0-3.1,0.8-3.1,2.9v7.3c0,2.2,1,3.1,3.1,3.1H403v15.5c0,8.8-5.9,13.8-20.2,13.8c-14.5,0-20-5.3-20-14.1v-57.4
	c0-8.8,5.5-14.1,20-14.1s20.2,5.3,20.2,14.1v4.5c0,2,0.8,3.1,3.1,3.1h9.4c2,0,2.9-1,2.9-3.1v-7.1C418.2,90.1,410.3,78.5,382.6,78.5z
	 M494.6,144.1c13.8-3.9,18.9-12.8,18.9-22.6v-16.7c0-13.2-9-24.8-36.7-24.8H444c-2,0-2.9,1-2.9,3.3v103.3c0,2.2,0.8,3.3,2.9,3.3h9.8
	c2.2,0,2.9-1,2.9-3.3v-40.1h20h2.6l18.1,40.1c1,2,1.2,3.3,3.5,3.3h9.8c2.2,0,3.7-1.2,2.9-3.3L494.6,144.1z M476.7,132.7h-20V93.2h20
	c14.5,0,21,5.3,21,14.1v11.4C497.7,127.6,491.4,132.7,476.7,132.7z M571.8,78.5c-27.5,0-36.7,11.6-36.7,24.8v62.5
	c0,13.2,9,24.8,36.7,24.8s36.9-11.6,36.9-24.8v-62.5C608.5,90.1,599.5,78.5,571.8,78.5z M592.8,163.4c0,8.8-6.5,14.1-21,14.1
	c-14.3,0-20.8-5.3-20.8-14.1V106c0-8.8,6.5-14.1,20.8-14.1c14.5,0,21,5.3,21,14.1V163.4z M702.8,79.9H693c-2,0-2.9,1-2.9,3.3v80.2
	c0,8.8-6.5,14.1-21.2,14.1c-14.3,0-20.8-5.3-20.8-14.1V83.2c0-2.2-0.8-3.3-2.9-3.3h-9.8c-2,0-3.1,1-3.1,3.3v82.9
	c0,13.2,9,24.8,36.7,24.8s36.9-11.6,36.9-24.8V83.2C705.6,80.8,705,79.9,702.8,79.9z M801.3,79.9h-9c-2,0-3.1,1-3.1,3.1v76.4
	c0,0-2.6-6.5-5.1-10.4l-38.9-67.8c-0.4-0.8-1.2-1.2-2.6-1.2h-9c-2,0-2.9,1-2.9,3.1v103.5c0,2,0.8,3.1,2.9,3.1h9c2,0,2.9-1,2.9-3.1
	v-76.4c0.4,0.6,2.2,5.7,5.9,11.6l37.9,66.4c0.6,1,1.2,1.4,2.9,1.4h9c2.2,0,2.9-1,2.9-3.1V83C804.4,80.8,803.6,79.9,801.3,79.9z
	 M867.3,79.9h-33.6c-2,0-2.9,1-2.9,3.3v103.3c0,2,0.6,3.3,2.6,3.3h34c27.5,0,36.9-11.6,36.9-24.8v-60.1
	C904.2,91.5,895,79.9,867.3,79.9z M888.3,162.2c0,8.8-6.5,14.1-21,14.1h-21V93.4h21c14.5,0,21,5.3,21,14.1V162.2z M835.1,59.2h4.7
	c1,0,1.6-0.6,1.8-1.4l9.6-17.1l10,17.1c0.4,0.6,1,1.4,2,1.4h5.1c1,0,1-0.6,0.6-1.4l-13.4-23l12.8-22c0.4-0.8,0.2-1.4-0.6-1.4H863
	c-0.8,0-1.4,0.6-1.8,1.4L852,29l-9.6-16.3c-0.4-0.8-1-1.4-2-1.4h-4.9c-1,0-1,0.6-0.6,1.4l12.8,21.8l-13.2,23
	C834.1,58.6,834.3,59.2,835.1,59.2z M906.4,11.5h-4.3c-0.8,0-1.2,0.6-1.6,1.4l-9.4,18.5c-0.4,0.8-1.2,3.1-1.2,3.3
	c0-0.2-0.6-2.2-1.2-3.3l-8.8-18.5c-0.4-0.8-0.6-1.4-1.6-1.4h-4.9c-1,0-1.4,0.4-1,1.4l13.8,28.3v16.9c0,0.8,0.4,1.4,1.4,1.4h4.3
	c0.8,0,1.2-0.4,1.2-1.4V40.4L907,12.9C907.8,11.9,907.4,11.5,906.4,11.5z M940.2,53.5H920L940.2,17c0.2-0.2,0.2-0.6,0.2-1.2v-3.1
	c0-1-0.4-1.4-1.4-1.4h-24.8c-0.8,0-1.4,0.4-1.4,1.4V16c0,1,0.4,1.4,1.4,1.4h17.7l-20,36.3c-0.2,0.4-0.4,0.6-0.4,1.2v3.3
	c0,1,0.4,1.4,1.4,1.4H940c0.8,0,1.4-0.4,1.4-1.4v-3.3C941.7,53.7,941.2,53.5,940.2,53.5z"/>
<path id="comments-old" d="M146.7,74.4c-60.2,0-111.2,33.9-111.2,74.1c0,21.6,14.5,42.1,39.5,56.3l12.6,7.2l-3.9,13.9
	c-2.8,10.3-6.4,18.2-10.1,24.9c14.6-6.1,27.9-14.3,39.8-24.8l6.2-5.5l8.3,0.9c6.2,0.7,12.6,1.2,18.8,1.2
	c60.2,0,111.2-33.9,111.2-74.1S206.9,74.4,146.7,74.4z M276.4,148.5c0,51.2-58,92.6-129.7,92.6c-7.1,0-14.2-0.4-21-1.2
	c-19,16.8-41.5,28.7-66.6,35c-5.2,1.4-10.9,2.5-16.5,3.2h-0.7c-2.9,0-5.5-2.3-6.2-5.5v-0.1c-0.7-3.6,1.7-5.8,3.9-8.4
	c9.1-10.3,19.5-19,26.3-43.1C36.1,204.1,17,177.9,17,148.5c0-51.1,58-92.6,129.7-92.6l0,0C218.3,55.8,276.4,97.4,276.4,148.5
	L276.4,148.5z"/>
<path id="menu" d="M95.5,153c0,14-11.2,25.2-25.2,25.2S45.1,167,45.1,153c0-14,11.2-25.2,25.2-25.2S95.5,139,95.5,153z M171.1,153
	c0,14-11.2,25.2-25.2,25.2c-14,0-25.2-11.2-25.2-25.2c0-14,11.2-25.2,25.2-25.2C159.8,127.8,171.1,139,171.1,153z M246.6,153
	c0,14-11.2,25.2-25.2,25.2c-14,0-25.2-11.2-25.2-25.2c0-14,11.2-25.2,25.2-25.2C235.4,127.8,246.6,139,246.6,153z"/>
</svg>
