<?xml version="1.0" encoding="utf-8"?>
<!-- Generator: Adobe Illustrator 21.1.0, SVG Export Plug-In . SVG Version: 6.00 Build 0)  -->
<svg version="1.1" id="metric-icons" xmlns="http://www.w3.org/2000/svg" xmlns:xlink="http://www.w3.org/1999/xlink" x="0px"
	 y="0px" viewBox="0 0 300 300" style="enable-background:new 0 0 300 300;" xml:space="preserve">
<style type="text/css">
	.st0{display:none;}
	.st1{fill:#010101;}
</style>
<path id="not-used1" class="st0" d="M619.4-134c3.7,5.2,7,10.8,10.2,16.3c0.5,0.9,1.2,1.5,2.2,1.4s1.5-0.7,1.9-1.6
	c2.6-6.7,5.6-13.2,9-19.5c6.7-12.7,15-24.4,25-34.8c2.8-2.8,5.7-5.6,8.6-8.4c0.9-0.9,1.8-1.7,2.4-2.8c1.2-1.9,0.5-3.9-1.7-4.6
	c-1.3-0.4-2.6-0.3-4,0.1c-2.2,0.7-4.1,1.9-6,3.2c-4.5,3.1-8.7,6.9-12.6,10.6c-8.7,8.3-16.7,17.1-24.5,26.2c-0.4,0.4-0.6,0.4-1,0.2
	c-4-2-7.9-4-12.1-5.5c-2.1-0.8-4.3-1.5-6.6-1.5c-0.2,0-0.4,0-0.6,0c-2.2,0.1-3.7,1.3-4.2,3.2c-0.2,1.1-0.1,2,0.9,2.9
	C611.2-144.2,615.6-139.3,619.4-134z M733.1-96c-0.8,0-2.1-2.6-2.1-3.5V-203c0-0.8,1.3-1,2.1-1H756v-24.5
	c0-14.3-10.3-24.5-24.7-24.5H552.5c-14.3,0-27.5,10.2-27.5,24.5v24.5h23.8c0.8,0,1.2,0.2,1.2,1v103.5c0,0.8-0.4,3.5-1.2,3.5H525
	v22.1c0,14.3,13.2,26.9,27.5,26.9h178.8c14.3,0,24.7-12.6,24.7-26.9V-96H733.1z M698-98.5c0,0.8-0.7,1.5-1.5,1.5h-111
	c-0.8,0-1.5-0.7-1.5-1.5v-104c0-0.8,0.7-1.5,1.5-1.5h111c0.8,0,1.5,0.7,1.5,1.5V-98.5z M568.2-220.3h-16.6v-16.5h16.6V-220.3z
	 M608.9-220.3h-16.6v-16.5h16.6V-220.3z M649.7-220.3h-16.6v-16.5h16.6V-220.3z M690.4-220.3h-16.6v-16.5h16.6V-220.3z M731.1-220.3
	h-16.6v-16.5h16.6V-220.3z M568.2-66.5h-16.6v-16.6h16.6V-66.5z M608.9-66.5h-16.6v-16.6h16.6V-66.5z M649.7-66.5h-16.6v-16.6h16.6
	V-66.5z M690.4-66.5h-16.6v-16.6h16.6V-66.5z M731.1-66.5h-16.6v-16.6h16.6V-66.5z"/>
<g id="ctr">
	<path d="M91.7,177c8.3,8.9,16.4,16.2,23.2,14.9c4.7-0.9,4.6-6.4,4.6-6.4s-2.3-84,0-123.5c0.7-12.7,21.2-11.4,22.7-1.4
		c1.8,12.7,5,77.2,5,77.2s6.4-0.9,9.6-1.4c3.2-0.5,7.3,0.9,7.3,0.9s58.5,16,63.1,20.5s2.7,7.4,2.7,7.4s1.8,49.8,0,60.8
		S212,255.1,212,255.1H111.1c0,0-22.8-25.6-35-48.3s-12.1-39.5-3.3-41.1C81.6,164.3,88.2,173.2,91.7,177z M211.2,265.5H110.8V286
		h100.4L211.2,265.5L211.2,265.5z M154.9,106.5c0,0,25.8-13.6,25.8-42.9s-17-53.3-51.7-53.3S76.2,33.2,76.2,63.5s33,46.1,33,46.1
		l0.5-53.2c0,0,1.5-12,20.8-12s21,12.9,21,12.9l2.7,49.3L154.9,106.5z"/>
</g>
<g id="viewability">
	<path d="M148.7,62.8C61.6,62.8,14.5,150,14.5,150s42.7,87.2,134.2,87.2c89,0,130.8-87.2,130.8-87.2S235.9,62.8,148.7,62.8z
		 M148.7,211.9c-34.2,0-61.9-27.7-61.9-61.9s27.7-61.9,61.9-61.9s61.9,27.7,61.9,61.9S182.9,211.9,148.7,211.9z M148.7,187
		c-20.5,0-37-16.6-37-37s16.6-37,37-37s37,16.6,37,37S169.2,187,148.7,187z"/>
</g>
<g id="time-in-view">
	<path d="M148.5,66.2c-59.1,0-107,47.9-107,107s47.9,107,107,107s107-47.9,107-107S207.6,66.2,148.5,66.2z M144.5,174V92.8
		c0,0,2.4-0.1,3.3-0.1c44.4,0,80.8,36.3,80.8,80.7c0,0.1,0.4,0.6,0.4,0.6H144.5z M199.3,68.2l7.3-8.9c3.2-4,9.1-4.5,13.1-1.3
		l17.6,14.4c4,3.2,4.5,9.1,1.3,13.1l-5.8,7.1C223.2,82.6,211.9,74.3,199.3,68.2z M180.4,34c0,7.1-5.8,13-13,13h-7.9v12h-27V47h-5.7
		c-7.1,0-13-5.9-13-13s5.8-13,13-13h40.6C174.6,21,180.4,26.9,180.4,34z"/>
</g>
<g id="replay-rate">
	<path d="M254.6,127.8c0,5-4.1,9.1-9.1,9.1h-63.4c-3.7,0-6.9-2.3-8.4-5.7c-1.4-3.3-0.7-7.2,2-9.8l19.5-19.5
		c-13.3-12.3-30.9-19.4-49.4-19.4c-39.9,0-72.5,32.6-72.5,72.5s32.6,72.5,72.5,72.5c22.5,0,43.3-10.2,57.2-28.2c0.7-1,2-1.6,3.3-1.7
		c1.3,0,2.5,0.4,3.5,1.3l19.4,19.5c1.7,1.6,1.7,4.2,0.3,6.1c-20.7,24.9-51.2,39.2-83.7,39.2c-59.9,0-108.7-48.8-108.7-108.7
		S86,46.3,145.9,46.3c27.9,0,54.9,11.2,74.9,30L239.2,58c2.5-2.7,6.5-3.4,9.9-2c3.3,1.4,5.5,4.7,5.5,8.4L254.6,127.8L254.6,127.8z"
		/>
</g>
<g id="impressions-old">
	<path d="M81.1,185.4H62.9l6.2-22.7c1.7-1.4,4.1-2.1,6.5-2.1h15.5h32.6V121c0-4.8-2.6-9.7-5.6-15.4c-4.1-7.7-8.7-16.4-8.7-28.1
		c0-21.4,17.4-38.8,38.8-38.8S187,56.1,187,77.5c0,11.7-4.6,20.4-8.7,28.1c-3,5.7-5.6,10.6-5.6,15.3v39.5h32.8H221
		c2.5,0,4.8,0.8,6.5,2.1l6.2,22.7h-18.2H81.1V185.4z M248.1,196.8H48.5c-7.6,0-13.9,6.2-13.9,13.9v27.4c0,7.6,6.2,13.9,13.9,13.9
		h199.6c7.6,0,13.9-6.2,13.9-13.9v-27.4C262,203,255.7,196.8,248.1,196.8z"/>
</g>
<g id="hot">
	<path d="M180.4,20.7c0,0,12.4,99.3-24.8,99.3S93.5,70.3,93.5,70.3S31.4,120,43.8,194.4s74.5,86.9,111.7,86.9s99.3-37.2,99.3-111.7
		S180.4,20.7,180.4,20.7z M198.4,209.4c-14.9,27.5-70.8,42.4-86.9,15.8c-16.2-26.8,9.9-54,41.6-62.4c31.6-8.4,46.5-29.8,46.5-29.8
		S223.9,162.3,198.4,209.4z"/>
</g>
<g id="clicks">
	<polygon points="215.9,221.8 168.1,158.1 210.6,140 81.1,65.2 80.8,65.4 110.8,211.9 141.2,177 186.6,242.7 	"/>
</g>
<g id="impressions">
	<path d="M224.5,44.7c0-9.2-7.4-16.7-16.5-16.7H89c-9.1,0-16.5,7.5-16.5,16.7v210.5c0,9.2,7.4,16.7,16.5,16.7h119.1
		c9.1,0,16.5-7.5,16.5-16.7V44.7H224.5z M115.4,47h66.2c1.1,0,2.1,1.3,2.1,2.5s-0.9,2.5-2.1,2.5h-66.2c-1.1,0-2.1-1.3-2.1-2.5
		C113.3,48.3,114.2,47,115.4,47z M148.5,261.6c-6.6,0-12-5.4-12-12s5.4-12,12-12s12,5.4,12,12S155.1,261.6,148.5,261.6z M207.5,225
		h-119V66h119V225z M202.5,72h-109v82h109V72z M148.5,118h-11v9h-8v-9h-8v-8h8v-10h8v10h11V118z M173.5,131h-8v-29.1
		c-2,0.7-2.7,1.4-4.1,2c-1.4,0.6-2.9,1.2-4.2,1.6l-2.6-6.5c1.1-0.4,2.2-1,3.4-1.5c1.2-0.6,2.3-1.2,3.4-1.9c1.1-0.7,2.2-1.4,3.2-2.2
		c1-0.8,1.9-1.1,2.8-2.5h6.1L173.5,131L173.5,131z"/>
</g>
<g id="completion-rate">
	<path d="M257.7,150c0,60.2-49,109.2-109.2,109.2S39.3,210.2,39.3,150c0-23.7,7.5-46.2,21.6-65.2l0.2,0.2c2-2.7,5.2-4.4,8.9-4.4
		c6.1,0,11.1,5,11.1,11.1c0,3.2-1.4,6.2-3.6,8.2c-10.4,14.7-16,32-16,50.2c0,47.9,39,86.9,86.9,86.9s86.9-39,86.9-86.9
		s-39-86.9-86.9-86.9c-20.3,0-40,7.1-55.6,20.1L78.8,66c19.5-16.3,44.3-25.2,69.8-25.2C208.8,40.8,257.7,89.8,257.7,150z
		 M120.7,175.1c5.1,7.2,9.6,14.8,13.9,22.4c0.7,1.2,1.6,2,3,1.9s2.1-1,2.6-2.2c3.6-9.2,7.7-18.1,12.3-26.8
		c9.2-17.4,20.4-33.5,34.1-47.7c3.8-3.9,7.8-7.7,11.7-11.5c1.2-1.2,2.4-2.4,3.3-3.8c1.7-2.6,0.7-5.3-2.3-6.3
		c-1.8-0.6-3.6-0.4-5.4,0.2c-3,1-5.6,2.6-8.2,4.4c-6.2,4.3-11.8,9.4-17.2,14.6c-11.8,11.4-22.8,23.4-33.4,35.9
		c-0.5,0.6-0.8,0.6-1.4,0.3c-5.4-2.8-10.8-5.5-16.5-7.6c-2.9-1.1-5.8-2-9-2c-0.3,0-0.6,0-0.8,0c-3,0.1-5.1,1.8-5.7,4.4
		c-0.3,1.5-0.1,2.8,1.2,4C109.6,161.1,115.5,167.8,120.7,175.1z"/>
</g>
<g id="video-completions">
	<path d="M257.7,150c0,60.2-49,109.2-109.2,109.2S39.3,210.2,39.3,150c0-23.7,7.5-46.2,21.6-65.2l0.2,0.2c2-2.7,5.2-4.4,8.9-4.4
		c6.1,0,11.1,5,11.1,11.1c0,3.2-1.4,6.2-3.6,8.2c-10.4,14.7-16,32-16,50.2c0,47.9,39,86.9,86.9,86.9s86.9-39,86.9-86.9
		s-39-86.9-86.9-86.9c-20.3,0-40,7.1-55.6,20.1L78.8,66c19.5-16.3,44.3-25.2,69.8-25.2C208.8,40.8,257.7,89.8,257.7,150z M125.2,200
		l69.6-51l-69.6-51C125.2,98,125.2,200,125.2,200z"/>
</g>
<g id="engagement-rate">
	<path id="_x3C_Compound_Path_x3E_" d="M91.7,178c8.3,8.9,16.4,16.2,23.2,14.9c4.7-0.9,4.6-6.4,4.6-6.4s-2.3-84,0-123.5
		c0.7-12.7,21.2-11.4,22.7-1.4c1.8,12.7,5,77.2,5,77.2s6.4-0.9,9.6-1.4c3.2-0.5,7.3,0.9,7.3,0.9s58.5,16,63.1,20.5s2.7,7.4,2.7,7.4
		s1.8,49.8,0,60.8S212,256.1,212,256.1H111.1c0,0-22.8-25.6-35-48.3s-12.1-39.5-3.3-41.1C81.6,165.3,88.2,174.2,91.7,178z
		 M211.2,266.5H110.8V287h100.4L211.2,266.5L211.2,266.5z M154.6,63.9l52.2-8.6l-33.6-40.9L154.6,63.9z M106.5,114l-29-29l-29,29
		l29,29L106.5,114z M207.5,78.7c-14,0-25.4,11.4-25.4,25.4s11.4,25.4,25.4,25.4s25.4-11.4,25.4-25.4S221.5,78.7,207.5,78.7z"/>
</g>
<g id="expand-rate">
	<polygon points="123.2,38.8 37.2,38.8 37.2,124.9 65.7,96.4 98.2,129 127.4,99.8 94.8,67.3 	"/>
	<polygon points="37,175.1 37,261.2 123,261.2 94.6,232.7 127.1,200.2 98,171 65.4,203.6 	"/>
	<polygon points="173.8,38.4 259.8,38.4 259.8,124.4 231.3,96 198.8,128.5 169.6,99.4 202.2,66.8 	"/>
	<polygon points="260,175.6 260,261.6 174,261.6 202.4,233.2 169.9,200.6 199,171.5 231.6,204 	"/>
</g>
<g id="full-view">
	<path d="M148.7,62.8C61.6,62.8,14.5,150,14.5,150s42.7,87.2,134.2,87.2c89,0,130.8-87.2,130.8-87.2S235.9,62.8,148.7,62.8z
		 M148.7,211.9c-34.2,0-61.9-27.7-61.9-61.9s27.7-61.9,61.9-61.9s61.9,27.7,61.9,61.9S182.9,211.9,148.7,211.9z M123,170.9
		c4.1,5.4,11.3,14.5,14.8,20.2c0.6,0.9,1.3,1.5,2.4,1.4c1.1-0.1,1.7-0.8,2.1-1.7c2.9-6.9,8.5-17.9,12.2-24.5
		c7.4-13.1,16.5-25.2,27.5-35.9c3.1-2.9,6.3-5.8,9.4-8.7c1-0.9,1.9-1.8,2.7-2.9c1.4-2-2.9-4-5.3-4.7c-1.5-0.5-5.2-0.3-6.6,0.2
		c-2.4,0.8-4.5,2-6.6,3.3c-5,3.2-9.5,7.1-13.9,11c-9.5,8.6-16.1,17.6-24.7,27c-0.4,0.5-0.6,0.5-1.1,0.2c-4.4-2.1-16.7-9.5-21.3-11.1
		c-2.3-0.8-4.7-1.5-7.3-1.5c-0.2,0-0.5,0-0.6,0c-2.4,0.1-4.1,1.4-4.6,3.3c-0.2,1.1-0.1,2.1,1,3C108.5,154.1,118.8,165.4,123,170.9z"
		/>
</g>
<path id="dismissal-rate" class="st1" d="M147,22.1c-69.6,0-126,56.4-126,126s56.4,126,126,126s126-56.4,126-126
	S216.6,22.1,147,22.1z M204.6,197l-9.8,9.8L147,157.9l-47.8,48.9l-9.8-9.8l47.8-48.9L89.4,99.2l9.8-9.8l47.8,48.9l47.8-48.9l9.8,9.8
	l-48,48.9L204.6,197z"/>
<path id="comments-old" d="M146.7,74.4c-60.2,0-111.2,33.9-111.2,74.1c0,21.6,14.5,42.1,39.5,56.3l12.6,7.2l-3.9,13.9
	c-2.8,10.3-6.4,18.2-10.1,24.9c14.6-6.1,27.9-14.3,39.8-24.8l6.2-5.5l8.3,0.9c6.2,0.7,12.6,1.2,18.8,1.2
	c60.2,0,111.2-33.9,111.2-74.1S206.9,74.4,146.7,74.4z M276.4,148.5c0,51.2-58,92.6-129.7,92.6c-7.1,0-14.2-0.4-21-1.2
	c-19,16.8-41.5,28.7-66.6,35c-5.2,1.4-10.9,2.5-16.5,3.2h-0.7c-2.9,0-5.5-2.3-6.2-5.5v-0.1c-0.7-3.6,1.7-5.8,3.9-8.4
	c9.1-10.3,19.5-19,26.3-43.1C36.1,204.1,17,177.9,17,148.5c0-51.1,58-92.6,129.7-92.6l0,0C218.3,55.8,276.4,97.4,276.4,148.5
	L276.4,148.5z"/>
<path id="menu" d="M95.5,153c0,14-11.2,25.2-25.2,25.2S45.1,167,45.1,153s11.2-25.2,25.2-25.2S95.5,139,95.5,153z M171.1,153
	c0,14-11.2,25.2-25.2,25.2S120.7,167,120.7,153s11.2-25.2,25.2-25.2C159.8,127.8,171.1,139,171.1,153z M246.6,153
	c0,14-11.2,25.2-25.2,25.2S196.2,167,196.2,153s11.2-25.2,25.2-25.2S246.6,139,246.6,153z"/>
<path id="chart-bar" d="M54,215.5v24.8c0,2.3-1.8,4.1-4.1,4.1H25.1c-2.3,0-4.1-1.8-4.1-4.1v-24.8c0-2.3,1.8-4.1,4.1-4.1h24.8
	C52.2,211.4,54,213.2,54,215.5z M103.6,199v41.3c0,2.3-1.8,4.1-4.1,4.1H74.7c-2.3,0-4.1-1.8-4.1-4.1V199c0-2.3,1.8-4.1,4.1-4.1h24.8
	C101.7,194.9,103.6,196.7,103.6,199z M153.1,166v74.3c0,2.3-1.8,4.1-4.1,4.1h-24.8c-2.3,0-4.1-1.8-4.1-4.1V166
	c0-2.3,1.8-4.1,4.1-4.1H149C151.3,161.9,153.1,163.7,153.1,166z M202.6,116.5v123.8c0,2.3-1.8,4.1-4.1,4.1h-24.8
	c-2.3,0-4.1-1.8-4.1-4.1V116.5c0-2.3,1.8-4.1,4.1-4.1h24.8C200.8,112.3,202.6,114.1,202.6,116.5z M252.1,50.4v189.9
	c0,2.3-1.8,4.1-4.1,4.1h-24.8c-2.3,0-4.1-1.8-4.1-4.1V50.4c0-2.3,1.8-4.1,4.1-4.1H248C250.3,46.3,252.1,48.1,252.1,50.4z"/>
<path id="chart-line" d="M276.4,227.9V244H17.6V50h16.2v177.9H276.4z M260.2,70.2v55c0,3.5-4.3,5.4-6.9,2.8L238,112.6l-80,80
	c-1.6,1.6-4.2,1.6-5.8,0l-29.4-29.4l-52.6,52.6l-24.3-24.3l73.9-73.9c1.6-1.6,4.2-1.6,5.8,0L155,147l58.6-58.6l-15.3-15.3
	c-2.7-2.7-0.8-6.9,2.8-6.9h55C258.5,66.1,260.2,67.9,260.2,70.2z"/>
<path id="chart-area" d="M276.4,227.9V244H17.6V50h16.2v177.9H276.4z M227.9,98.5l32.4,113.2H50v-72.8l56.6-72.8l72.8,72.8
	L227.9,98.5z"/>
<path id="logo-icon" d="M166.9,63.6c-1-3.2-2.9-5-6.3-5h-31c-3.2,0-5.3,1.6-6.3,5L80.5,229.8c-1,3.2,0.3,5,3.5,5h105.3h16.4
	c3.5,0,5-1.9,3.9-5L166.9,63.6z"/>
<path id="linkedin" d="M76.1,215.6H104v-83.8H76.1V215.6z M105.8,105.9c-0.1-8.2-6-14.5-15.6-14.5s-15.8,6.3-15.8,14.5
	c0,8,6,14.5,15.5,14.5H90C99.8,120.4,105.8,113.9,105.8,105.9z M176.5,215.6h27.9v-48.1c0-25.7-13.8-37.7-32.1-37.7
	c-15,0-21.6,8.3-25.2,14.1h0.2v-12.2h-27.9c0,0,0.4,7.9,0,83.8l0,0h27.9v-46.9c0-2.4,0.1-5,0.8-6.8c2.1-5,6.6-10.1,14.4-10.1
	c10,0,14,7.6,14,19L176.5,215.6L176.5,215.6z M233,95.1V211c0,19.2-15.6,34.8-34.8,34.8H82.3c-19.2,0-34.8-15.6-34.8-34.8V95.1
	c0-19.2,15.6-34.8,34.8-34.8h115.9C217.4,60.3,233,75.9,233,95.1z"/>
<path id="fb" d="M201.1,60.8c19.3,0,34.9,15.6,34.9,34.9V212c0,19.3-15.6,34.9-34.9,34.9h-22.8v-72.1h24.1l3.6-28.1h-27.7v-17.9
	c0-8.1,2.2-13.6,13.9-13.6l14.8-0.1V90c-2.5-0.4-11.4-1.1-21.6-1.1c-21.4,0-36.2,13.1-36.2,37.1v20.7H125v28.1h24.2v72.1H84.8
	c-19.3,0-34.9-15.6-34.9-34.9V95.7c0-19.3,15.6-34.9,34.9-34.9L201.1,60.8L201.1,60.8z"/>
<path id="expand-plus" d="M202.1,157.8V141c0-4.6-3.8-8.4-8.4-8.4h-33.5V99.1c0-4.6-3.8-8.4-8.4-8.4H135c-4.6,0-8.4,3.8-8.4,8.4
	v33.5H93.1c-4.6,0-8.4,3.8-8.4,8.4v16.8c0,4.6,3.8,8.4,8.4,8.4h33.5v33.5c0,4.6,3.8,8.4,8.4,8.4h16.8c4.6,0,8.4-3.8,8.4-8.4v-33.5
	h33.5C198.3,166.2,202.1,162.4,202.1,157.8z M244,149.4c0,55.5-45.1,100.6-100.6,100.6S42.8,204.9,42.8,149.4S87.9,48.8,143.4,48.8
	S244,93.9,244,149.4z"/>
<path id="expand-minus" d="M202.1,157.8V141c0-4.6-3.8-8.4-8.4-8.4H93.1c-4.6,0-8.4,3.8-8.4,8.4v16.8c0,4.6,3.8,8.4,8.4,8.4h100.6
	C198.3,166.2,202.1,162.4,202.1,157.8z M244,149.4c0,55.5-45.1,100.6-100.6,100.6S42.8,204.9,42.8,149.4S87.9,48.8,143.4,48.8
	S244,93.9,244,149.4z"/>
<path id="arrow-right" d="M213.7,148.7L93.5,243.1V54.3L213.7,148.7z"/>
<path id="target" d="M155.5,10.3C81.2,10.3,21,70.5,21,144.8s60.2,134.5,134.5,134.5S290,219.1,290,144.8S229.8,10.3,155.5,10.3z
	 M155.5,237.3c-51.1,0-92.5-41.4-92.5-92.5s41.4-92.5,92.5-92.5S248,93.7,248,144.8S206.6,237.3,155.5,237.3z M155.5,97.3
	c26.2,0,47.5,21.3,47.5,47.5s-21.3,47.5-47.5,47.5S108,171,108,144.8S129.3,97.3,155.5,97.3z"/>
<path id="tag" d="M200.9,116.9c8.9,0,16-7.1,16-16s-7.1-16-16-16s-16,7.1-16,16S192,116.9,200.9,116.9z M129,250
	c-4.2,0-8.4-1.7-11.2-4.6l-61.4-61.3c-2.9-3-4.6-7.1-4.6-11.4c0-4.2,1.7-8.4,4.6-11.2l89.3-89.2C152,66,164.1,61,172.9,61h51.9
	c8.7,0,16,7.2,16,16v51.9c0,8.9-5,21-11.4,27.3l-89.1,89.2C137.4,248.3,133.3,250,129,250z"/>
<path id="plus" d="M202.1,157.8V141c0-4.6-3.8-8.4-8.4-8.4h-33.5V99.1c0-4.6-3.8-8.4-8.4-8.4H135c-4.6,0-8.4,3.8-8.4,8.4v33.5H93.1
	c-4.6,0-8.4,3.8-8.4,8.4v16.8c0,4.6,3.8,8.4,8.4,8.4h33.5v33.5c0,4.6,3.8,8.4,8.4,8.4h16.8c4.6,0,8.4-3.8,8.4-8.4v-33.5h33.5
	C198.3,166.2,202.1,162.4,202.1,157.8z"/>
<path id="pencil-square" d="M95.1,181.4l22.5,22.5l-7.7,7.7h-8.3v-14.2H87.4v-8.3L95.1,181.4z M156.4,123.7c1.2,1,0.9,3.1-0.4,4.4
	l-43.1,43.1c-1.3,1.3-3.4,1.6-4.4,0.4c-1.2-1-0.9-3.1,0.4-4.4l43.1-43.1C153.3,122.8,155.4,122.5,156.4,123.7z M115.8,225.8
	l80.5-80.5l-42.6-42.6l-80.5,80.5v42.6L115.8,225.8L115.8,225.8z M205.9,135.8l13.6-13.6c5.5-5.5,5.5-14.7,0-20.1L197,79.5
	c-5.5-5.5-14.7-5.5-20.1,0l-13.6,13.6L205.9,135.8z M262.7,78.9V221c0,23.5-19.1,42.6-42.6,42.6H77.9c-23.5,0-42.6-19.1-42.6-42.6
	V78.9c0-23.5,19.1-42.6,42.6-42.6H220C243.6,36.3,262.7,55.4,262.7,78.9z"/>
<path id="play" d="M149,26c68.5,0,124,55.5,124,124s-55.5,124-124,124S25,218.5,25,150S80.5,26,149,26z M211,158.9
	c3.2-1.8,5.2-5.2,5.2-8.9s-1.9-7.1-5.2-8.9l-87.8-51.7c-3.1-1.9-7.1-1.9-10.3-0.2c-3.2,1.9-5.2,5.3-5.2,9v103.3c0,3.7,1.9,7.1,5.2,9
	c1.6,0.8,3.4,1.3,5.2,1.3s3.6-0.5,5.2-1.5L211,158.9z"/>
<path id="pause" d="M137.2,202.9V97.1c0-3.3-2.6-5.9-5.9-5.9h-47c-3.3,0-5.9,2.6-5.9,5.9v105.8c0,3.3,2.6,5.9,5.9,5.9h47
	C134.7,208.8,137.2,206.2,137.2,202.9z M219.5,202.9V97.1c0-3.3-2.6-5.9-5.9-5.9h-47c-3.3,0-5.9,2.6-5.9,5.9v105.8
	c0,3.3,2.6,5.9,5.9,5.9h47C216.9,208.8,219.5,206.2,219.5,202.9z M290,150c0,77.8-63.2,141-141,141S8,227.8,8,150S71.2,9,149,9
	S290,72.2,290,150z"/>
<path id="stop" d="M207.8,202.9V97.1c0-3.3-2.6-5.9-5.9-5.9H96.1c-3.3,0-5.9,2.6-5.9,5.9v105.8c0,3.3,2.6,5.9,5.9,5.9h105.8
	C205.2,208.8,207.8,206.2,207.8,202.9z M290,150c0,77.8-63.2,141-141,141S8,227.8,8,150S71.2,9,149,9S290,72.2,290,150z"/>
<path id="arrow-down" d="M159.6,248.8L65.2,128.6H254L159.6,248.8z"/>
<path id="lock" d="M209.1,119.8h-3.5V77.4c0-23.4-19-42.4-42.4-42.4h-28.3c-23.4,0-42.4,19-42.4,42.4v42.4H89
	c-5.8,0-10.6,4.8-10.6,10.6v106c0,5.8,4.8,10.6,10.6,10.6h120.1c5.8,0,10.6-4.8,10.6-10.6v-106C219.7,124.6,214.9,119.8,209.1,119.8
	z M120.7,77.4c0-7.8,6.3-14.1,14.1-14.1h28.3c7.8,0,14.1,6.3,14.1,14.1v42.4h-56.5L120.7,77.4L120.7,77.4z"/>
<path id="calendar" d="M55.8,235.3h37.8v-37.8H55.8V235.3z M102.1,235.3h42.1v-37.8h-42.1V235.3z M55.8,189h37.8v-42H55.8V189z
	 M102.1,189h42.1v-42h-42.1V189z M55.8,138.5h37.8v-37.8H55.8V138.5z M152.5,235.3h42.1v-37.8h-42.1V235.3z M102.1,138.5h42.1v-37.8
	h-42.1V138.5z M203,235.3h37.8v-37.8H203V235.3z M152.5,189h42.1v-42h-42.1V189z M106.3,75.5V37.6c0-2.2-2-4.2-4.2-4.2h-8.4
	c-2.2,0-4.2,2-4.2,4.2v37.8c0,2.2,2,4.2,4.2,4.2h8.4C104.3,79.7,106.3,77.7,106.3,75.5z M203,189h37.8v-42H203V189z M152.5,138.5
	h42.1v-37.8h-42.1V138.5z M203,138.5h37.8v-37.8H203V138.5z M207.2,75.5V37.6c0-2.2-2-4.2-4.2-4.2h-8.4c-2.2,0-4.2,2-4.2,4.2v37.8
	c0,2.2,2,4.2,4.2,4.2h8.4C205.2,79.7,207.2,77.7,207.2,75.5z M257.7,67.1v168.2c0,9.2-7.6,16.8-16.8,16.8h-185
	c-9.2,0-16.8-7.6-16.8-16.8V67.1c0-9.2,7.6-16.8,16.8-16.8h16.8V37.6c0-11.6,9.5-21,21-21h8.4c11.6,0,21,9.5,21,21v12.6h50.5V37.6
	c0-11.6,9.5-21,21-21h8.4c11.6,0,21,9.5,21,21v12.6h16.8C250,50.2,257.7,57.9,257.7,67.1z"/>
<path id="filter" d="M198.2,126.5c-5.6,8.1-11.3,16.9-16.8,26.7c-2.5,4.4-4.9,9-7.2,13.6h-56.9c-2.4-5.1-5-10.1-7.7-14.9
	c-5.3-9.3-10.7-17.7-16-25.4C93.6,126.5,198.2,126.5,198.2,126.5z M214.4,105C234.8,80.2,251,68,251,68h-83.7h-43.7H40
	c0,0,16.6,11.9,37.4,37H214.4z M127.5,191.1c11.5,31,16.9,58.9,16.9,58.9s6.7-27.9,19.1-58.9H127.5z"/>
<path id="filter2" d="M198.2,126.5c-5.6,8.1-11.3,16.9-16.8,26.7c-2.5,4.4-4.9,9-7.2,13.6h-56.9c-2.4-5.1-5-10.1-7.7-14.9
	c-5.3-9.3-10.7-17.7-16-25.4C93.6,126.5,198.2,126.5,198.2,126.5z M214.4,105C234.8,80.2,251,68,251,68h-83.7h-43.7H40
	c0,0,16.6,11.9,37.4,37H214.4z M125,208.5c0,11.3,9.2,20.5,20.5,20.5s20.5-9.2,20.5-20.5s-9.2-20.5-20.5-20.5S125,197.2,125,208.5z"
	/>
<path id="arrow-left" d="M68.8,222.5c-2-0.3-3.4-1.5-4.7-2.9c-20.8-21.7-41.7-43.4-62.5-65.1c-0.2-0.2-0.4-0.4-0.6-0.7
	c0.2-0.2,0.3-0.4,0.5-0.6c21.1-21.9,42.1-43.9,63.2-65.8c1.8-1.9,4-2.7,6.5-2c2.3,0.6,3.8,2.2,4.3,4.5c0.6,2.3-0.1,4.3-1.8,6
	c-5.3,5.5-10.7,11.1-16,16.6c-10.9,11.4-21.8,22.8-32.8,34.1c-0.2,0.2-0.4,0.4-0.7,0.8c0.6,0,1,0,1.4,0c89,0,178,0,267,0
	c0.8,0,1.6,0,2.4,0.1c3.2,0.6,5.1,3.2,4.9,6.7c-0.2,3.2-2.5,5.5-5.7,5.6c-0.5,0-1,0-1.5,0c-89,0-178.1,0-267.1,0c-0.4,0-0.8,0-1.4,0
	c0.3,0.4,0.5,0.6,0.8,0.8c16.1,16.8,32.2,33.5,48.3,50.3c0.2,0.2,0.4,0.4,0.6,0.6c1.6,1.7,2.4,3.7,1.6,6.1c-0.8,2.4-2.5,3.9-4.9,4.5
	c-0.2,0-0.4,0.1-0.5,0.2C69.6,222.5,69.2,222.5,68.8,222.5z"/>
<path id="download-file" d="M247,69c0,66.7,0,133.3,0,200c-2.4,5.6-6.4,9.6-12,12c-61.3,0-122.7,0-184,0c-5.6-2.4-9.6-6.4-12-12
	c0-77.3,0-154.7,0-232c2.4-5.6,6.4-9.6,12-12c49.3,0,98.7,0,148,0C215,39.7,231,54.3,247,69z M55.4,41.2c0,74.7,0,149.1,0,223.5
	c58.6,0,116.9,0,175.4,0c0-61.3,0-122.3,0-183.9c-14.7,0-29.1,0-43.8,0c0-13.5,0-26.4,0-39.6C142.9,41.2,99.3,41.2,55.4,41.2z
	 M203.2,64.7c5,0,9.4,0,14.8,0c-5.2-4.7-9.7-8.8-14.8-13.4C203.2,56.5,203.2,60.5,203.2,64.7z M39,25c0,4,0,8,0,12
	c2.4-5.6,6.4-9.6,12-12C47,25,43,25,39,25z M39,281c4,0,8,0,12,0c-5.6-2.4-9.6-6.4-12-12C39,273,39,277,39,281z M247,281
	c0-4,0-8,0-12c-2.4,5.6-6.4,9.6-12,12C239,281,243,281,247,281z M173.7,151c-7.5,6.7-14.7,13-22.7,20.2c0-25.4,0-49.6,0-73.9
	c-5.6,0-10.6,0-16.2,0c0,24.5,0,48.6,0,73.6c-7.9-7-15.1-13.3-22.4-19.9c-3.6,4.1-7,7.9-10.6,12c14,12.4,27.6,24.5,41.3,36.7
	c14-12.4,27.4-24.3,41.3-36.7C180.6,158.8,177.2,155,173.7,151z M206.6,232.7c0-5.4,0-10.5,0-15.4c-42.6,0-84.9,0-127.4,0
	c0,5.2,0,10.1,0,15.4C122,232.7,164.4,232.7,206.6,232.7z"/>
<path id="close" d="M208.5,223l-60.8-60.8L86.9,223l-8.5-8.5l60.8-60.8L78.4,92.9l8.5-8.5l60.8,60.8l60.8-60.8l8.5,8.5l-60.8,60.8
	l60.8,60.8L208.5,223z"/>
<path id="spinner" d="M91.1,237.8c0,11.5-9.4,21.1-21.1,21.1c-11.5,0-21.1-9.5-21.1-21.1c0-11.7,9.5-21.1,21.1-21.1
	C81.7,216.7,91.1,226.1,91.1,237.8z M173.1,271.7c0,11.7-9.4,21.1-21.1,21.1s-21.1-9.4-21.1-21.1s9.4-21.1,21.1-21.1
	S173.1,260,173.1,271.7z M57.2,155.8c0,11.7-9.4,21.1-21.1,21.1S15,167.5,15,155.8s9.4-21.1,21.1-21.1S57.2,144.1,57.2,155.8z
	 M255.1,237.8c0,11.5-9.5,21.1-21.1,21.1c-11.7,0-21.1-9.5-21.1-21.1c0-11.7,9.4-21.1,21.1-21.1
	C245.5,216.7,255.1,226.1,255.1,237.8z M96.3,73.8c0,14.5-11.9,26.3-26.3,26.3S43.7,88.3,43.7,73.8S55.5,47.4,70,47.4
	S96.3,59.3,96.3,73.8z M289,155.8c0,11.7-9.4,21.1-21.1,21.1s-21.1-9.4-21.1-21.1c0-11.7,9.4-21.1,21.1-21.1S289,144.1,289,155.8z
	 M183.6,39.8c0,17.5-14.2,31.6-31.6,31.6s-31.6-14.2-31.6-31.6S134.5,8.2,152,8.2S183.6,22.4,183.6,39.8z M270.9,73.8
	c0,20.4-16.6,36.9-36.9,36.9c-20.4,0-36.9-16.5-36.9-36.9c0-20.3,16.5-36.9,36.9-36.9C254.3,36.9,270.9,53.5,270.9,73.8z"/>
<path id="clock" d="M171.2,88v77.6c0,3.1-2.4,5.5-5.5,5.5h-55.4c-3.1,0-5.5-2.4-5.5-5.5v-11.1c0-3.1,2.4-5.5,5.5-5.5H149V88
	c0-3.1,2.4-5.5,5.5-5.5h11.1C168.7,82.5,171.2,84.9,171.2,88z M243.2,149c0-52-42.3-94.2-94.2-94.2S54.8,97.1,54.8,149
	s42.3,94.2,94.2,94.2S243.2,200.9,243.2,149z M282,149c0,73.4-59.6,133-133,133S16,222.4,16,149S75.6,16,149,16S282,75.6,282,149z"
	/>
<path id="profile" d="M163,166.5v-9.9c13.2-7.4,24-26,24-44.6c0-29.8,0-54-36-54s-36,24.2-36,54c0,18.6,10.8,37.1,24,44.6v9.9
	c-40.7,3.3-72,23.3-72,47.5h168C235,189.8,203.7,169.8,163,166.5z M152.2,288c-75.5,0-136.9-61.4-136.9-136.8S76.7,14.3,152.2,14.3
	s136.9,61.4,136.9,136.9S227.6,288,152.2,288z M152.2,26.4c-68.8,0-124.8,56-124.8,124.8S83.4,276,152.2,276S277,220,277,151.2
	S220.9,26.4,152.2,26.4z"/>
<path id="comments" d="M146.7,70.4c-60.2,0-111.2,33.9-111.2,74.1c0,21.6,14.5,42.1,39.5,56.3l12.6,7.2l-3.9,13.9
	c-2.8,10.3-6.4,18.2-10.1,24.9c14.6-6.1,27.9-14.3,39.8-24.8l6.2-5.5l8.3,0.9c6.2,0.7,12.6,1.2,18.8,1.2
	c60.2,0,111.2-33.9,111.2-74.1S206.9,70.4,146.7,70.4z M276.4,144.5c0,51.2-58,92.6-129.7,92.6c-7.1,0-14.2-0.4-21-1.2
	c-19,16.8-41.5,28.7-66.6,35c-5.2,1.4-10.9,2.5-16.5,3.2h-0.7c-2.9,0-5.5-2.3-6.2-5.5v-0.1c-0.7-3.6,1.7-5.8,3.9-8.4
	c9.1-10.3,19.5-19,26.3-43.1C36.1,200.1,17,173.9,17,144.5c0-51.1,58-92.6,129.7-92.6l0,0C218.3,51.8,276.4,93.4,276.4,144.5
	L276.4,144.5z M109.5,147.3c0,8.1-6.6,14.7-14.7,14.7S80,155.4,80,147.3s6.6-14.7,14.7-14.7S109.5,139.1,109.5,147.3z M164.4,147.3
	c0,8.1-6.6,14.7-14.7,14.7c-8.1,0-14.7-6.6-14.7-14.7s6.6-14.7,14.7-14.7C157.8,132.5,164.4,139.1,164.4,147.3z M219,147.3
	c0,8.1-6.6,14.7-14.7,14.7s-14.7-6.6-14.7-14.7s6.6-14.7,14.7-14.7S219,139.1,219,147.3z"/>
</svg>
