<?xml version="1.0" encoding="utf-8"?>
<!-- Generator: Adobe Illustrator 21.1.0, SVG Export Plug-In . SVG Version: 6.00 Build 0)  -->
<svg version="1.1" id="metric-icons" xmlns="http://www.w3.org/2000/svg" xmlns:xlink="http://www.w3.org/1999/xlink" x="0px"
	 y="0px" viewBox="0 0 1968.2 1380.1" style="enable-background:new 0 0 1968.2 1380.1;" xml:space="preserve">
<style type="text/css">
	.st0{fill:#010101;}
</style>
<path id="not-used1" d="M976.3,706.1c3.7,5.2,7,10.8,10.2,16.3c0.5,0.9,1.2,1.5,2.2,1.4c1-0.1,1.5-0.7,1.9-1.6
	c2.6-6.7,5.6-13.2,9-19.5c6.7-12.7,15-24.4,25-34.8c2.8-2.8,5.7-5.6,8.6-8.4c0.9-0.9,1.8-1.7,2.4-2.8c1.2-1.9,0.5-3.9-1.7-4.6
	c-1.3-0.4-2.6-0.3-4,0.1c-2.2,0.7-4.1,1.9-6,3.2c-4.5,3.1-8.7,6.9-12.6,10.6c-8.7,8.3-16.7,17.1-24.5,26.2c-0.4,0.4-0.6,0.4-1,0.2
	c-4-2-7.9-4-12.1-5.5c-2.1-0.8-4.3-1.5-6.6-1.5c-0.2,0-0.4,0-0.6,0c-2.2,0.1-3.7,1.3-4.2,3.2c-0.2,1.1-0.1,2,0.9,2.9
	C968.1,695.9,972.5,700.8,976.3,706.1z M1090,744.1c-0.8,0-2.1-2.6-2.1-3.5V637.1c0-0.8,1.3-1,2.1-1h22.9v-24.5
	c0-14.3-10.3-24.5-24.7-24.5H909.4c-14.3,0-27.5,10.2-27.5,24.5v24.5h23.8c0.8,0,1.2,0.2,1.2,1v103.5c0,0.8-0.4,3.5-1.2,3.5h-23.8
	v22.1c0,14.3,13.2,26.9,27.5,26.9h178.8c14.3,0,24.7-12.6,24.7-26.9v-22.1H1090z M1054.9,741.6c0,0.8-0.7,1.5-1.5,1.5h-111
	c-0.8,0-1.5-0.7-1.5-1.5v-104c0-0.8,0.7-1.5,1.5-1.5h111c0.8,0,1.5,0.7,1.5,1.5V741.6z M925.1,619.8h-16.6v-16.5h16.6V619.8z
	 M965.8,619.8h-16.6v-16.5h16.6V619.8z M1006.6,619.8H990v-16.5h16.6V619.8z M1047.3,619.8h-16.6v-16.5h16.6V619.8z M1088,619.8
	h-16.6v-16.5h16.6V619.8z M925.1,773.6h-16.6V757h16.6V773.6z M965.8,773.6h-16.6V757h16.6V773.6z M1006.6,773.6H990V757h16.6V773.6
	z M1047.3,773.6h-16.6V757h16.6V773.6z M1088,773.6h-16.6V757h16.6V773.6z"/>
<g id="ctr">
	<path d="M831.3,1002.4c8.3,8.9,16.4,16.2,23.2,14.9c4.7-0.9,4.6-6.4,4.6-6.4s-2.3-84,0-123.5c0.7-12.7,21.2-11.4,22.7-1.4
		c1.8,12.7,5,77.2,5,77.2s6.4-0.9,9.6-1.4c3.2-0.5,7.3,0.9,7.3,0.9s58.5,16,63.1,20.5c4.6,4.5,2.7,7.4,2.7,7.4s1.8,49.8,0,60.8
		s-17.9,29.1-17.9,29.1H850.7c0,0-22.8-25.6-35-48.3c-12.2-22.7-12.1-39.5-3.3-41.1C821.2,989.7,827.8,998.6,831.3,1002.4z
		 M950.8,1090.9H850.4v20.5h100.4V1090.9L950.8,1090.9z M894.5,931.9c0,0,25.8-13.6,25.8-42.9s-17-53.3-51.7-53.3
		c-34.7,0-52.8,22.9-52.8,53.2c0,30.3,33,46.1,33,46.1l0.5-53.2c0,0,1.5-12,20.8-12c19.3,0,21,12.9,21,12.9l2.7,49.3L894.5,931.9z"
		/>
</g>
<g id="viewability">
	<path d="M1253.1,338.2c-87.1,0-134.2,87.2-134.2,87.2s42.7,87.2,134.2,87.2c89,0,130.8-87.2,130.8-87.2S1340.3,338.2,1253.1,338.2z
		 M1253.1,487.3c-34.2,0-61.9-27.7-61.9-61.9s27.7-61.9,61.9-61.9c34.2,0,61.9,27.7,61.9,61.9S1287.3,487.3,1253.1,487.3z
		 M1253.1,462.4c-20.5,0-37-16.6-37-37s16.6-37,37-37s37,16.6,37,37S1273.6,462.4,1253.1,462.4z"/>
</g>
<g id="time-in-view">
	<path d="M1675.3,566c-59.1,0-107,47.9-107,107c0,59.1,47.9,107,107,107s107-47.9,107-107C1782.3,613.9,1734.4,566,1675.3,566z
		 M1671.3,673.8v-81.2c0,0,2.4-0.1,3.3-0.1c44.4,0,80.8,36.3,80.8,80.7c0,0.1,0.4,0.6,0.4,0.6H1671.3z M1726.1,568l7.3-8.9
		c3.2-4,9.1-4.5,13.1-1.3l17.6,14.4c4,3.2,4.5,9.1,1.3,13.1l-5.8,7.1C1750,582.4,1738.7,574.1,1726.1,568z M1707.2,533.8
		c0,7.1-5.8,13-13,13h-7.9v12h-27v-12h-5.7c-7.1,0-13-5.9-13-13s5.8-13,13-13h40.6C1701.4,520.8,1707.2,526.7,1707.2,533.8z"/>
</g>
<g id="replay-rate">
	<path d="M1437.8,837.6c0,5-4.1,9.1-9.1,9.1h-63.4c-3.7,0-6.9-2.3-8.4-5.7c-1.4-3.3-0.7-7.2,2-9.8l19.5-19.5
		c-13.3-12.3-30.9-19.4-49.4-19.4c-39.9,0-72.5,32.6-72.5,72.5c0,39.9,32.6,72.5,72.5,72.5c22.5,0,43.3-10.2,57.2-28.2
		c0.7-1,2-1.6,3.3-1.7c1.3,0,2.5,0.4,3.5,1.3l19.4,19.5c1.7,1.6,1.7,4.2,0.3,6.1c-20.7,24.9-51.2,39.2-83.7,39.2
		c-59.9,0-108.7-48.8-108.7-108.7c0-59.9,48.9-108.7,108.8-108.7c27.9,0,54.9,11.2,74.9,30l18.4-18.3c2.5-2.7,6.5-3.4,9.9-2
		c3.3,1.4,5.5,4.7,5.5,8.4V837.6L1437.8,837.6z"/>
</g>
<g id="impressions-old">
	<path d="M1148.1,1226.9h-18.2l6.2-22.7c1.7-1.4,4.1-2.1,6.5-2.1h15.5h32.6v-39.6c0-4.8-2.6-9.7-5.6-15.4
		c-4.1-7.7-8.7-16.4-8.7-28.1c0-21.4,17.4-38.8,38.8-38.8c21.4,0,38.8,17.4,38.8,38.8c0,11.7-4.6,20.4-8.7,28.1
		c-3,5.7-5.6,10.6-5.6,15.3v39.5h32.8h15.5c2.5,0,4.8,0.8,6.5,2.1l6.2,22.7h-18.2h-134.4V1226.9z M1315.1,1238.3h-199.6
		c-7.6,0-13.9,6.2-13.9,13.9v27.4c0,7.6,6.2,13.9,13.9,13.9h199.6c7.6,0,13.9-6.2,13.9-13.9v-27.4
		C1329,1244.5,1322.7,1238.3,1315.1,1238.3z"/>
</g>
<g id="hot">
	<path d="M1689,991.4c0,0,12.4,99.3-24.8,99.3c-37.2,0-62.1-49.7-62.1-49.7s-62.1,49.7-49.7,124.1c12.4,74.4,74.5,86.9,111.7,86.9
		s99.3-37.2,99.3-111.7S1689,991.4,1689,991.4z M1707,1180.1c-14.9,27.5-70.8,42.4-86.9,15.8c-16.2-26.8,9.9-54,41.6-62.4
		c31.6-8.4,46.5-29.8,46.5-29.8S1732.5,1133,1707,1180.1z"/>
</g>
<g id="clicks">
	<polygon points="345.3,1059.3 297.5,995.6 340,977.5 210.5,902.7 210.2,902.9 240.2,1049.4 270.6,1014.5 316,1080.2 	"/>
</g>
<g id="impressions">
	<path d="M723.7,485.7c0-9.2-7.4-16.7-16.5-16.7h-119c-9.1,0-16.5,7.5-16.5,16.7v210.5c0,9.2,7.4,16.7,16.5,16.7h119.1
		c9.1,0,16.5-7.5,16.5-16.7L723.7,485.7L723.7,485.7z M614.6,488h66.2c1.1,0,2.1,1.3,2.1,2.5s-0.9,2.5-2.1,2.5h-66.2
		c-1.1,0-2.1-1.3-2.1-2.5S613.4,488,614.6,488z M647.7,702.6c-6.6,0-12-5.4-12-12c0-6.6,5.4-12,12-12c6.6,0,12,5.4,12,12
		C659.7,697.2,654.3,702.6,647.7,702.6z M706.7,666h-119V507h119V666z M701.7,513h-109v82h109V513z M647.7,559h-11v9h-8v-9h-8v-8h8
		v-10h8v10h11V559z M672.7,572h-8v-29.1c-2,0.7-2.7,1.4-4.1,2c-1.4,0.6-2.9,1.2-4.2,1.6l-2.6-6.5c1.1-0.4,2.2-1,3.4-1.5
		c1.2-0.6,2.3-1.2,3.4-1.9c1.1-0.7,2.2-1.4,3.2-2.2c1-0.8,1.9-1.1,2.8-2.5h6.1V572L672.7,572z"/>
</g>
<g id="completion-rate">
	<path d="M1677.5,278.2c0,60.2-49,109.2-109.2,109.2c-60.2,0-109.2-49-109.2-109.2c0-23.7,7.5-46.2,21.6-65.2l0.2,0.2
		c2-2.7,5.2-4.4,8.9-4.4c6.1,0,11.1,5,11.1,11.1c0,3.2-1.4,6.2-3.6,8.2c-10.4,14.7-16,32-16,50.2c0,47.9,39,86.9,86.9,86.9
		s86.9-39,86.9-86.9s-39-86.9-86.9-86.9c-20.3,0-40,7.1-55.6,20.1l-14-17.3c19.5-16.3,44.3-25.2,69.8-25.2
		C1628.6,169,1677.5,218,1677.5,278.2z M1540.5,303.3c5.1,7.2,9.6,14.8,13.9,22.4c0.7,1.2,1.6,2,3,1.9c1.4-0.1,2.1-1,2.6-2.2
		c3.6-9.2,7.7-18.1,12.3-26.8c9.2-17.4,20.4-33.5,34.1-47.7c3.8-3.9,7.8-7.7,11.7-11.5c1.2-1.2,2.4-2.4,3.3-3.8
		c1.7-2.6,0.7-5.3-2.3-6.3c-1.8-0.6-3.6-0.4-5.4,0.2c-3,1-5.6,2.6-8.2,4.4c-6.2,4.3-11.8,9.4-17.2,14.6
		c-11.8,11.4-22.8,23.4-33.4,35.9c-0.5,0.6-0.8,0.6-1.4,0.3c-5.4-2.8-10.8-5.5-16.5-7.6c-2.9-1.1-5.8-2-9-2c-0.3,0-0.6,0-0.8,0
		c-3,0.1-5.1,1.8-5.7,4.4c-0.3,1.5-0.1,2.8,1.2,4C1529.4,289.3,1535.3,296,1540.5,303.3z"/>
</g>
<g id="video-completions">
	<path d="M1106.6,209.6c0,60.2-49,109.2-109.2,109.2s-109.2-49-109.2-109.2c0-23.7,7.5-46.2,21.6-65.2l0.2,0.2
		c2-2.7,5.2-4.4,8.9-4.4c6.1,0,11.1,5,11.1,11.1c0,3.2-1.4,6.2-3.6,8.2c-10.4,14.7-16,32-16,50.2c0,47.9,39,86.9,86.9,86.9
		c47.9,0,86.9-39,86.9-86.9s-39-86.9-86.9-86.9c-20.3,0-40,7.1-55.6,20.1l-14-17.3c19.5-16.3,44.3-25.2,69.8-25.2
		C1057.7,100.4,1106.6,149.4,1106.6,209.6z M974.1,259.6l69.6-51l-69.6-51C974.1,157.6,974.1,259.6,974.1,259.6z"/>
</g>
<g id="engagement-rate">
	<path id="_x3C_Compound_Path_x3E_" d="M275.4,539.9c8.3,8.9,16.4,16.2,23.2,14.9c4.7-0.9,4.6-6.4,4.6-6.4s-2.3-84,0-123.5
		c0.7-12.7,21.2-11.4,22.7-1.4c1.8,12.7,5,77.2,5,77.2s6.4-0.9,9.6-1.4s7.3,0.9,7.3,0.9s58.5,16,63.1,20.5s2.7,7.4,2.7,7.4
		s1.8,49.8,0,60.8c-1.8,11-17.9,29.1-17.9,29.1H294.8c0,0-22.8-25.6-35-48.3c-12.2-22.7-12.1-39.5-3.3-41.1
		C265.3,527.2,271.9,536.1,275.4,539.9z M394.9,628.4H294.5v20.5h100.4L394.9,628.4L394.9,628.4z M338.3,425.8l52.2-8.6l-33.6-40.9
		L338.3,425.8z M290.2,475.9l-29-29l-29,29l29,29L290.2,475.9z M391.2,440.6c-14,0-25.4,11.4-25.4,25.4s11.4,25.4,25.4,25.4
		s25.4-11.4,25.4-25.4S405.2,440.6,391.2,440.6z"/>
</g>
<g id="expand-rate">
	<polygon points="657.9,100.4 571.9,100.4 571.9,186.5 600.4,158 632.9,190.6 662.1,161.4 629.5,128.9 	"/>
	<polygon points="571.7,236.7 571.7,322.8 657.7,322.8 629.3,294.3 661.8,261.8 632.7,232.6 600.1,265.2 	"/>
	<polygon points="708.5,100 794.5,100 794.5,186 766,157.6 733.5,190.1 704.3,161 736.9,128.4 	"/>
	<polygon points="794.7,237.2 794.7,323.2 708.7,323.2 737.1,294.8 704.6,262.2 733.7,233.1 766.3,265.6 	"/>
</g>
<g id="full-view">
	<path d="M299.4,100c-87.1,0-134.2,87.2-134.2,87.2s42.7,87.2,134.2,87.2c89,0,130.8-87.2,130.8-87.2S386.6,100,299.4,100z
		 M299.4,249.1c-34.2,0-61.9-27.7-61.9-61.9s27.7-61.9,61.9-61.9s61.9,27.7,61.9,61.9S333.6,249.1,299.4,249.1z M273.7,208.1
		c4.1,5.4,11.3,14.5,14.8,20.2c0.6,0.9,1.3,1.5,2.4,1.4c1.1-0.1,1.7-0.8,2.1-1.7c2.9-6.9,8.5-17.9,12.2-24.5
		c7.4-13.1,16.5-25.2,27.5-35.9c3.1-2.9,6.3-5.8,9.4-8.7c1-0.9,1.9-1.8,2.7-2.9c1.4-2-2.9-4-5.3-4.7c-1.5-0.5-5.2-0.3-6.6,0.2
		c-2.4,0.8-4.5,2-6.6,3.3c-5,3.2-9.5,7.1-13.9,11c-9.5,8.6-16.1,17.6-24.7,27c-0.4,0.5-0.6,0.5-1.1,0.2c-4.4-2.1-16.7-9.5-21.3-11.1
		c-2.3-0.8-4.7-1.5-7.3-1.5c-0.2,0-0.5,0-0.6,0c-2.4,0.1-4.1,1.4-4.6,3.3c-0.2,1.1-0.1,2.1,1,3C259.2,191.3,269.5,202.6,273.7,208.1
		z"/>
</g>
<path id="dismissal-rate" class="st0" d="M536.1,1018.4c-69.6,0-126,56.4-126,126s56.4,126,126,126s126-56.4,126-126
	S605.7,1018.4,536.1,1018.4z M593.7,1193.3l-9.8,9.8l-47.8-48.9l-47.8,48.9l-9.8-9.8l47.8-48.9l-47.8-48.9l9.8-9.8l47.8,48.9
	l47.8-48.9l9.8,9.8l-48,48.9L593.7,1193.3z"/>
</svg>
